0
SECTION
2
HEADER
9
$ACADVER
1
AC1009
9
$INSUNITS
70
4
9
$MEASUREMENT
70
1
9
$EXTMIN
10
-9000
20
-3000
30
0
9
$EXTMAX
10
31000
20
30000
30
0
9
$LIMMIN
10
-9000
20
-3000
9
$LIMMAX
10
31000
20
30000
9
$LUNITS
70
2
9
$LUPREC
70
2
0
ENDSEC
0
SECTION
2
TABLES
0
TABLE
2
LTYPE
70
1
0
LTYPE
2
CONTINUOUS
70
0
3
Solid line
72
65
73
0
40
0
0
ENDTAB
0
TABLE
2
LAYER
70
8
0
LAYER
2
0
70
0
62
7
6
CONTINUOUS
0
LAYER
2
SITE_BOUNDARY
70
0
62
1
6
CONTINUOUS
0
LAYER
2
BUILDABLE_AREA
70
0
62
6
6
CONTINUOUS
0
LAYER
2
ROAD
70
0
62
8
6
CONTINUOUS
0
LAYER
2
ENTRANCE
70
0
62
2
6
CONTINUOUS
0
LAYER
2
DIMENSION
70
0
62
7
6
CONTINUOUS
0
LAYER
2
TEXT
70
0
62
7
6
CONTINUOUS
0
LAYER
2
NORTH
70
0
62
2
6
CONTINUOUS
0
ENDTAB
0
TABLE
2
STYLE
70
1
0
STYLE
2
STANDARD
70
0
40
0
41
1
50
0
71
0
42
2.5
3
txt
4

0
ENDTAB
0
ENDSEC
0
SECTION
2
BLOCKS
0
ENDSEC
0
SECTION
2
ENTITIES
0
POLYLINE
8
SITE_BOUNDARY
66
1
70
1
40
100
41
100
0
VERTEX
8
SITE_BOUNDARY
10
0.000
20
0.000
30
0
70
0
0
VERTEX
8
SITE_BOUNDARY
10
25000.000
20
0.000
30
0
70
0
0
VERTEX
8
SITE_BOUNDARY
10
23000.000
20
21000.000
30
0
70
0
0
VERTEX
8
SITE_BOUNDARY
10
-3000.000
20
16000.000
30
0
70
0
0
SEQEND
8
SITE_BOUNDARY
0
POLYLINE
8
BUILDABLE_AREA
66
1
70
1
40
70
41
70
0
VERTEX
8
BUILDABLE_AREA
10
1659.853
20
2000.000
30
0
70
0
0
VERTEX
8
BUILDABLE_AREA
10
22800.474
20
2000.000
30
0
70
0
0
VERTEX
8
BUILDABLE_AREA
10
21217.562
20
18620.577
30
0
70
0
0
VERTEX
8
BUILDABLE_AREA
10
-667.385
20
14411.933
30
0
70
0
0
SEQEND
8
BUILDABLE_AREA
0
TEXT
8
TEXT
10
6500.000
20
8500.000
30
0
40
480
1
SITE AREA = 478.00 SQ.M
50
0.000
7
STANDARD
0
TEXT
8
BUILDABLE_AREA
10
6400.000
20
7600.000
30
0
40
330
1
2m CONTROL LINE / 316.40 SQ.M
50
0.000
7
STANDARD
0
POLYLINE
8
ROAD
66
1
70
1
0
VERTEX
8
ROAD
10
-3000.000
20
16000.000
30
0
70
0
0
VERTEX
8
ROAD
10
23000.000
20
21000.000
30
0
70
0
0
VERTEX
8
ROAD
10
21866.916
20
26892.039
30
0
70
0
0
VERTEX
8
ROAD
10
-4133.084
20
21892.039
30
0
70
0
0
SEQEND
8
ROAD
0
LINE
8
ROAD
10
10000.000
20
18500.000
30
0
11
8866.916
21
24392.039
31
0
0
TEXT
8
TEXT
10
5000.000
20
23800.000
30
0
40
400
1
6.00m WIDE NORTH ROAD
50
-169.114
7
STANDARD
0
LINE
8
ENTRANCE
10
12001.782
20
18681.293
30
0
11
11831.820
21
19565.099
31
0
0
LINE
8
ENTRANCE
10
8073.757
20
17925.904
30
0
11
7903.794
21
18809.710
31
0
0
LINE
8
ENTRANCE
10
9678.959
20
20169.411
30
0
11
9933.903
21
18843.702
31
0
0
POLYLINE
8
ENTRANCE
66
1
70
1
0
VERTEX
8
ENTRANCE
10
9933.903
20
18843.702
30
0
70
0
0
VERTEX
8
ENTRANCE
10
9574.716
20
19334.705
30
0
70
0
0
VERTEX
8
ENTRANCE
10
10085.359
20
19432.906
30
0
70
0
0
SEQEND
8
ENTRANCE
0
TEXT
8
ENTRANCE
10
6500.000
20
21300.000
30
0
40
300
1
MAIN ENTRANCE 4.00m
50
-169.114
7
STANDARD
0
TEXT
8
DIMENSION
10
12500.000
20
-900.000
30
0
40
330
1
SOUTH 25.00m
50
0.000
7
STANDARD
0
TEXT
8
DIMENSION
10
24900.000
20
10500.000
30
0
40
330
1
EAST 21.10m
50
95.440
7
STANDARD
0
TEXT
8
DIMENSION
10
10000.000
20
19400.000
30
0
40
330
1
NORTH 26.48m
50
-169.114
7
STANDARD
0
TEXT
8
DIMENSION
10
-2700.000
20
8000.000
30
0
40
330
1
WEST 16.28m
50
-79.380
7
STANDARD
0
CIRCLE
8
NORTH
10
29000
20
15000
30
0
40
850
0
LINE
8
NORTH
10
29000.000
20
15000.000
30
0
11
30400.000
21
17424.871
31
0
0
POLYLINE
8
NORTH
66
1
70
1
0
VERTEX
8
NORTH
10
30400.000
20
17424.871
30
0
70
0
0
VERTEX
8
NORTH
10
29797.872
20
17021.955
30
0
70
0
0
VERTEX
8
NORTH
10
30352.128
20
16701.955
30
0
70
0
0
SEQEND
8
NORTH
0
TEXT
8
NORTH
10
30250.000
20
17924.871
30
0
40
650
1
N
50
0.000
7
STANDARD
0
TEXT
8
NORTH
10
27000.000
20
13700.000
30
0
40
300
1
NORTH +30 DEG
50
0.000
7
STANDARD
0
TEXT
8
TEXT
10
27000.000
20
11000.000
30
0
40
300
1
DRAWING UNIT: mm
50
0.000
7
STANDARD
0
TEXT
8
TEXT
10
27000.000
20
10450.000
30
0
40
300
1
SITE: FLAT
50
0.000
7
STANDARD
0
TEXT
8
TEXT
10
27000.000
20
9900.000
30
0
40
300
1
CONTROL OFFSET: 2m
50
0.000
7
STANDARD
0
TEXT
8
TEXT
10
27000.000
20
9350.000
30
0
40
300
1
ROAD: NORTH
50
0.000
7
STANDARD
0
ENDSEC
0
EOF
