0
SECTION
2
HEADER
9
$ACADVER
1
AC1009
9
$INSUNITS
70
4
9
$MEASUREMENT
70
1
9
$EXTMIN
10
-4000
20
-7000
30
0
9
$EXTMAX
10
25000
20
28000
30
0
9
$LIMMIN
10
-4000
20
-7000
9
$LIMMAX
10
25000
20
28000
9
$LUNITS
70
2
9
$LUPREC
70
2
0
ENDSEC
0
SECTION
2
TABLES
0
TABLE
2
LTYPE
70
1
0
LTYPE
2
CONTINUOUS
70
0
3
Solid line
72
65
73
0
40
0
0
ENDTAB
0
TABLE
2
LAYER
70
8
0
LAYER
2
0
70
0
62
7
6
CONTINUOUS
0
LAYER
2
SITE_BOUNDARY
70
0
62
1
6
CONTINUOUS
0
LAYER
2
BUILDABLE_AREA
70
0
62
6
6
CONTINUOUS
0
LAYER
2
ROAD
70
0
62
8
6
CONTINUOUS
0
LAYER
2
ENTRANCE
70
0
62
2
6
CONTINUOUS
0
LAYER
2
DIMENSION
70
0
62
7
6
CONTINUOUS
0
LAYER
2
TEXT
70
0
62
7
6
CONTINUOUS
0
LAYER
2
NORTH
70
0
62
2
6
CONTINUOUS
0
ENDTAB
0
TABLE
2
STYLE
70
1
0
STYLE
2
STANDARD
70
0
40
0
41
1
50
0
71
0
42
2.5
3
txt
4

0
ENDTAB
0
ENDSEC
0
SECTION
2
BLOCKS
0
ENDSEC
0
SECTION
2
ENTITIES
0
POLYLINE
8
SITE_BOUNDARY
66
1
70
1
40
100
41
100
0
VERTEX
8
SITE_BOUNDARY
10
0
20
0
30
0
70
0
0
VERTEX
8
SITE_BOUNDARY
10
20000
20
0
30
0
70
0
0
VERTEX
8
SITE_BOUNDARY
10
20000
20
25000
30
0
70
0
0
VERTEX
8
SITE_BOUNDARY
10
0
20
25000
30
0
70
0
0
SEQEND
8
SITE_BOUNDARY
0
POLYLINE
8
BUILDABLE_AREA
66
1
70
1
40
80
41
80
0
VERTEX
8
BUILDABLE_AREA
10
2000
20
5000
30
0
70
0
0
VERTEX
8
BUILDABLE_AREA
10
18000
20
5000
30
0
70
0
0
VERTEX
8
BUILDABLE_AREA
10
18000
20
22000
30
0
70
0
0
VERTEX
8
BUILDABLE_AREA
10
2000
20
22000
30
0
70
0
0
SEQEND
8
BUILDABLE_AREA
0
TEXT
8
TEXT
10
6600
20
13500
30
0
40
480
1
SITE AREA = 500.00 SQ.M
50
0
7
STANDARD
0
TEXT
8
BUILDABLE_AREA
10
6000
20
12500
30
0
40
400
1
BUILDABLE AREA = 272.00 SQ.M
50
0
7
STANDARD
0
POLYLINE
8
ROAD
66
1
70
1
0
VERTEX
8
ROAD
10
-2000
20
-6000
30
0
70
0
0
VERTEX
8
ROAD
10
22000
20
-6000
30
0
70
0
0
VERTEX
8
ROAD
10
22000
20
0
30
0
70
0
0
VERTEX
8
ROAD
10
-2000
20
0
30
0
70
0
0
SEQEND
8
ROAD
0
LINE
8
ROAD
10
-2000
20
-3000
30
0
11
22000
21
-3000
31
0
0
TEXT
8
TEXT
10
7000
20
-3700
30
0
40
420
1
6.00m WIDE SOUTH ROAD
50
0
7
STANDARD
0
LINE
8
ENTRANCE
10
8000
20
-150
30
0
11
8000
21
650
31
0
0
LINE
8
ENTRANCE
10
12000
20
-150
30
0
11
12000
21
650
31
0
0
LINE
8
ENTRANCE
10
10000
20
-1800
30
0
11
10000
21
-400
31
0
0
POLYLINE
8
ENTRANCE
66
1
70
1
0
VERTEX
8
ENTRANCE
10
10000
20
-400
30
0
70
0
0
VERTEX
8
ENTRANCE
10
9750
20
-900
30
0
70
0
0
VERTEX
8
ENTRANCE
10
10250
20
-900
30
0
70
0
0
SEQEND
8
ENTRANCE
0
TEXT
8
ENTRANCE
10
8200
20
-1300
30
0
40
320
1
MAIN ENTRANCE 4.00m
50
0
7
STANDARD
0
CIRCLE
8
NORTH
10
23500
20
20500
30
0
40
800
0
LINE
8
NORTH
10
23500
20
19700
30
0
11
23500
21
22300
31
0
0
POLYLINE
8
NORTH
66
1
70
1
0
VERTEX
8
NORTH
10
23500
20
22300
30
0
70
0
0
VERTEX
8
NORTH
10
23200
20
21700
30
0
70
0
0
VERTEX
8
NORTH
10
23800
20
21700
30
0
70
0
0
SEQEND
8
NORTH
0
TEXT
8
NORTH
10
23250
20
23000
30
0
40
600
1
N
50
0
7
STANDARD
0
LINE
8
DIMENSION
10
0
20
25000
30
0
11
0
21
27250
31
0
0
LINE
8
DIMENSION
10
20000
20
25000
30
0
11
20000
21
27250
31
0
0
LINE
8
DIMENSION
10
0
20
27000
30
0
11
20000
21
27000
31
0
0
LINE
8
DIMENSION
10
0
20
27000
30
0
11
300
21
27150
31
0
0
LINE
8
DIMENSION
10
0
20
27000
30
0
11
300
21
26850
31
0
0
LINE
8
DIMENSION
10
20000
20
27000
30
0
11
19700
21
27150
31
0
0
LINE
8
DIMENSION
10
20000
20
27000
30
0
11
19700
21
26850
31
0
0
TEXT
8
DIMENSION
10
9350.0
20
27350
30
0
40
300
1
20000 SITE
50
0
7
STANDARD
0
LINE
8
DIMENSION
10
0
20
0
30
0
11
-3250
21
0
31
0
0
LINE
8
DIMENSION
10
0
20
25000
30
0
11
-3250
21
25000
31
0
0
LINE
8
DIMENSION
10
-3000
20
0
30
0
11
-3000
21
25000
31
0
0
LINE
8
DIMENSION
10
-3000
20
0
30
0
11
-2850
21
300
31
0
0
LINE
8
DIMENSION
10
-3000
20
0
30
0
11
-3150
21
300
31
0
0
LINE
8
DIMENSION
10
-3000
20
25000
30
0
11
-2850
21
24700
31
0
0
LINE
8
DIMENSION
10
-3000
20
25000
30
0
11
-3150
21
24700
31
0
0
TEXT
8
DIMENSION
10
-3350
20
11850.0
30
0
40
300
1
25000 SITE
50
90
7
STANDARD
0
LINE
8
DIMENSION
10
2000
20
22000
30
0
11
2000
21
23750
31
0
0
LINE
8
DIMENSION
10
18000
20
22000
30
0
11
18000
21
23750
31
0
0
LINE
8
DIMENSION
10
2000
20
23500
30
0
11
18000
21
23500
31
0
0
LINE
8
DIMENSION
10
2000
20
23500
30
0
11
2300
21
23650
31
0
0
LINE
8
DIMENSION
10
2000
20
23500
30
0
11
2300
21
23350
31
0
0
LINE
8
DIMENSION
10
18000
20
23500
30
0
11
17700
21
23650
31
0
0
LINE
8
DIMENSION
10
18000
20
23500
30
0
11
17700
21
23350
31
0
0
TEXT
8
DIMENSION
10
9350.0
20
23850
30
0
40
300
1
16000 BUILDABLE
50
0
7
STANDARD
0
LINE
8
DIMENSION
10
18000
20
5000
30
0
11
21250
21
5000
31
0
0
LINE
8
DIMENSION
10
18000
20
22000
30
0
11
21250
21
22000
31
0
0
LINE
8
DIMENSION
10
21500
20
5000
30
0
11
21500
21
22000
31
0
0
LINE
8
DIMENSION
10
21500
20
5000
30
0
11
21650
21
5300
31
0
0
LINE
8
DIMENSION
10
21500
20
5000
30
0
11
21350
21
5300
31
0
0
LINE
8
DIMENSION
10
21500
20
22000
30
0
11
21650
21
21700
31
0
0
LINE
8
DIMENSION
10
21500
20
22000
30
0
11
21350
21
21700
31
0
0
TEXT
8
DIMENSION
10
21150
20
12850.0
30
0
40
300
1
17000 BUILDABLE
50
90
7
STANDARD
0
LINE
8
DIMENSION
10
0
20
10000
30
0
11
0
21
11750
31
0
0
LINE
8
DIMENSION
10
2000
20
10000
30
0
11
2000
21
11750
31
0
0
LINE
8
DIMENSION
10
0
20
11500
30
0
11
2000
21
11500
31
0
0
LINE
8
DIMENSION
10
0
20
11500
30
0
11
300
21
11650
31
0
0
LINE
8
DIMENSION
10
0
20
11500
30
0
11
300
21
11350
31
0
0
LINE
8
DIMENSION
10
2000
20
11500
30
0
11
1700
21
11650
31
0
0
LINE
8
DIMENSION
10
2000
20
11500
30
0
11
1700
21
11350
31
0
0
TEXT
8
DIMENSION
10
350.0
20
11850
30
0
40
300
1
2000 W
50
0
7
STANDARD
0
LINE
8
DIMENSION
10
18000
20
10000
30
0
11
18000
21
11750
31
0
0
LINE
8
DIMENSION
10
20000
20
10000
30
0
11
20000
21
11750
31
0
0
LINE
8
DIMENSION
10
18000
20
11500
30
0
11
20000
21
11500
31
0
0
LINE
8
DIMENSION
10
18000
20
11500
30
0
11
18300
21
11650
31
0
0
LINE
8
DIMENSION
10
18000
20
11500
30
0
11
18300
21
11350
31
0
0
LINE
8
DIMENSION
10
20000
20
11500
30
0
11
19700
21
11650
31
0
0
LINE
8
DIMENSION
10
20000
20
11500
30
0
11
19700
21
11350
31
0
0
TEXT
8
DIMENSION
10
18350.0
20
11850
30
0
40
300
1
2000 E
50
0
7
STANDARD
0
LINE
8
DIMENSION
10
10000
20
0
30
0
11
22250
21
0
31
0
0
LINE
8
DIMENSION
10
10000
20
5000
30
0
11
22250
21
5000
31
0
0
LINE
8
DIMENSION
10
22500
20
0
30
0
11
22500
21
5000
31
0
0
LINE
8
DIMENSION
10
22500
20
0
30
0
11
22650
21
300
31
0
0
LINE
8
DIMENSION
10
22500
20
0
30
0
11
22350
21
300
31
0
0
LINE
8
DIMENSION
10
22500
20
5000
30
0
11
22650
21
4700
31
0
0
LINE
8
DIMENSION
10
22500
20
5000
30
0
11
22350
21
4700
31
0
0
TEXT
8
DIMENSION
10
22150
20
1850.0
30
0
40
300
1
5000 SOUTH
50
90
7
STANDARD
0
LINE
8
DIMENSION
10
10000
20
22000
30
0
11
22250
21
22000
31
0
0
LINE
8
DIMENSION
10
10000
20
25000
30
0
11
22250
21
25000
31
0
0
LINE
8
DIMENSION
10
22500
20
22000
30
0
11
22500
21
25000
31
0
0
LINE
8
DIMENSION
10
22500
20
22000
30
0
11
22650
21
22300
31
0
0
LINE
8
DIMENSION
10
22500
20
22000
30
0
11
22350
21
22300
31
0
0
LINE
8
DIMENSION
10
22500
20
25000
30
0
11
22650
21
24700
31
0
0
LINE
8
DIMENSION
10
22500
20
25000
30
0
11
22350
21
24700
31
0
0
TEXT
8
DIMENSION
10
22150
20
22850.0
30
0
40
300
1
3000 NORTH
50
90
7
STANDARD
0
TEXT
8
TEXT
10
20500
20
16000
30
0
40
300
1
DRAWING UNIT: mm
50
0
7
STANDARD
0
TEXT
8
TEXT
10
20500
20
15450
30
0
40
300
1
NORTH: UP
50
0
7
STANDARD
0
TEXT
8
TEXT
10
20500
20
14900
30
0
40
300
1
SITE: FLAT
50
0
7
STANDARD
0
TEXT
8
TEXT
10
20500
20
14350
30
0
40
300
1
RED: SITE BOUNDARY
50
0
7
STANDARD
0
TEXT
8
TEXT
10
20500
20
13800
30
0
40
300
1
MAGENTA: CONTROL LINE
50
0
7
STANDARD
0
ENDSEC
0
EOF
