0
SECTION
2
HEADER
9
$ACADVER
1
AC1009
9
$INSUNITS
70
4
9
$MEASUREMENT
70
1
9
$EXTMIN
10
-4000
20
-7000
30
0
9
$EXTMAX
10
28000
20
34000
30
0
9
$LUNITS
70
2
9
$LUPREC
70
2
0
ENDSEC
0
SECTION
2
TABLES
0
TABLE
2
LTYPE
70
1
0
LTYPE
2
CONTINUOUS
70
0
3
Solid line
72
65
73
0
40
0
0
ENDTAB
0
TABLE
2
LAYER
70
11
0
LAYER
2
0
70
0
62
7
6
CONTINUOUS
0
LAYER
2
SITE_BOUNDARY
70
0
62
1
6
CONTINUOUS
0
LAYER
2
ROAD
70
0
62
8
6
CONTINUOUS
0
LAYER
2
ENTRANCE
70
0
62
2
6
CONTINUOUS
0
LAYER
2
EXISTING_BUILDING
70
0
62
5
6
CONTINUOUS
0
LAYER
2
TREE
70
0
62
3
6
CONTINUOUS
0
LAYER
2
WATER
70
0
62
4
6
CONTINUOUS
0
LAYER
2
WALL
70
0
62
9
6
CONTINUOUS
0
LAYER
2
DIMENSION
70
0
62
7
6
CONTINUOUS
0
LAYER
2
TEXT
70
0
62
7
6
CONTINUOUS
0
LAYER
2
NORTH
70
0
62
2
6
CONTINUOUS
0
ENDTAB
0
TABLE
2
STYLE
70
1
0
STYLE
2
STANDARD
70
0
40
0
41
1
50
0
71
0
42
2.5
3
txt
4

0
ENDTAB
0
ENDSEC
0
SECTION
2
BLOCKS
0
ENDSEC
0
SECTION
2
ENTITIES
0
POLYLINE
8
SITE_BOUNDARY
66
1
70
1
40
100
41
100
0
VERTEX
8
SITE_BOUNDARY
10
0
20
0
30
0
70
0
0
VERTEX
8
SITE_BOUNDARY
10
22000
20
0
30
0
70
0
0
VERTEX
8
SITE_BOUNDARY
10
22000
20
30000
30
0
70
0
0
VERTEX
8
SITE_BOUNDARY
10
0
20
30000
30
0
70
0
0
SEQEND
8
SITE_BOUNDARY
0
TEXT
8
TEXT
10
9000
20
14500
30
0
40
450
1
SITE AREA = 660.00 SQ.M
50
0
7
STANDARD
0
POLYLINE
8
EXISTING_BUILDING
66
1
70
1
40
120
41
120
0
VERTEX
8
EXISTING_BUILDING
10
1500
20
20500
30
0
70
0
0
VERTEX
8
EXISTING_BUILDING
10
8500
20
20500
30
0
70
0
0
VERTEX
8
EXISTING_BUILDING
10
8500
20
28500
30
0
70
0
0
VERTEX
8
EXISTING_BUILDING
10
1500
20
28500
30
0
70
0
0
SEQEND
8
EXISTING_BUILDING
0
TEXT
8
EXISTING_BUILDING
10
2400
20
24500
30
0
40
360
1
EXISTING BUILDING
50
0
7
STANDARD
0
TEXT
8
EXISTING_BUILDING
10
3200
20
23850
30
0
40
300
1
KEEP / 56 SQ.M
50
0
7
STANDARD
0
CIRCLE
8
TREE
10
18500
20
10500
30
0
40
1200
0
CIRCLE
8
TREE
10
18500
20
10500
30
0
40
180
0
LINE
8
TREE
10
17650
20
10500
30
0
11
19350
21
10500
31
0
0
LINE
8
TREE
10
18500
20
9650
30
0
11
18500
21
11350
31
0
0
TEXT
8
TREE
10
17600
20
8800
30
0
40
280
1
TREE 1 - KEEP
50
0
7
STANDARD
0
CIRCLE
8
TREE
10
18500
20
18500
30
0
40
1200
0
CIRCLE
8
TREE
10
18500
20
18500
30
0
40
180
0
LINE
8
TREE
10
17650
20
18500
30
0
11
19350
21
18500
31
0
0
LINE
8
TREE
10
18500
20
17650
30
0
11
18500
21
19350
31
0
0
TEXT
8
TREE
10
17600
20
16800
30
0
40
280
1
TREE 2 - KEEP
50
0
7
STANDARD
0
POLYLINE
8
WATER
66
1
70
1
0
VERTEX
8
WATER
10
0
20
30000
30
0
70
0
0
VERTEX
8
WATER
10
22000
20
30000
30
0
70
0
0
VERTEX
8
WATER
10
22000
20
31200
30
0
70
0
0
VERTEX
8
WATER
10
0
20
31200
30
0
70
0
0
SEQEND
8
WATER
0
LINE
8
WATER
10
0
20
30600
30
0
11
22000
21
30600
31
0
0
TEXT
8
WATER
10
8000
20
31550
30
0
40
320
1
WATER DITCH 1.20m
50
0
7
STANDARD
0
LINE
8
WALL
10
250
20
0
30
0
11
250
21
30000
31
0
0
LINE
8
WALL
10
450
20
0
30
0
11
450
21
30000
31
0
0
TEXT
8
WALL
10
800
20
10000
30
0
40
300
1
EXISTING WALL - KEEP
50
90
7
STANDARD
0
POLYLINE
8
ROAD
66
1
70
1
0
VERTEX
8
ROAD
10
-2000
20
-6000
30
0
70
0
0
VERTEX
8
ROAD
10
24000
20
-6000
30
0
70
0
0
VERTEX
8
ROAD
10
24000
20
0
30
0
70
0
0
VERTEX
8
ROAD
10
-2000
20
0
30
0
70
0
0
SEQEND
8
ROAD
0
LINE
8
ROAD
10
-2000
20
-3000
30
0
11
24000
21
-3000
31
0
0
TEXT
8
ROAD
10
7600
20
-3700
30
0
40
420
1
6.00m WIDE SOUTH ROAD
50
0
7
STANDARD
0
LINE
8
ENTRANCE
10
9000
20
-150
30
0
11
9000
21
650
31
0
0
LINE
8
ENTRANCE
10
13000
20
-150
30
0
11
13000
21
650
31
0
0
LINE
8
ENTRANCE
10
11000
20
-1800
30
0
11
11000
21
-400
31
0
0
POLYLINE
8
ENTRANCE
66
1
70
1
0
VERTEX
8
ENTRANCE
10
11000
20
-400
30
0
70
0
0
VERTEX
8
ENTRANCE
10
10750
20
-900
30
0
70
0
0
VERTEX
8
ENTRANCE
10
11250
20
-900
30
0
70
0
0
SEQEND
8
ENTRANCE
0
TEXT
8
ENTRANCE
10
9200
20
-1300
30
0
40
320
1
MAIN ENTRANCE 4.00m
50
0
7
STANDARD
0
CIRCLE
8
NORTH
10
26000
20
25000
30
0
40
800
0
LINE
8
NORTH
10
26000
20
24200
30
0
11
26000
21
26800
31
0
0
POLYLINE
8
NORTH
66
1
70
1
0
VERTEX
8
NORTH
10
26000
20
26800
30
0
70
0
0
VERTEX
8
NORTH
10
25700
20
26200
30
0
70
0
0
VERTEX
8
NORTH
10
26300
20
26200
30
0
70
0
0
SEQEND
8
NORTH
0
TEXT
8
NORTH
10
25750
20
27500
30
0
40
600
1
N
50
0
7
STANDARD
0
LINE
8
DIMENSION
10
0
20
30000
30
0
11
0
21
33250
31
0
0
LINE
8
DIMENSION
10
22000
20
30000
30
0
11
22000
21
33250
31
0
0
LINE
8
DIMENSION
10
0
20
33000
30
0
11
22000
21
33000
31
0
0
LINE
8
DIMENSION
10
0
20
33000
30
0
11
300
21
33150
31
0
0
LINE
8
DIMENSION
10
0
20
33000
30
0
11
300
21
32850
31
0
0
LINE
8
DIMENSION
10
22000
20
33000
30
0
11
21700
21
33150
31
0
0
LINE
8
DIMENSION
10
22000
20
33000
30
0
11
21700
21
32850
31
0
0
TEXT
8
DIMENSION
10
10400.0
20
33350
30
0
40
300
1
22000 SITE
50
0
7
STANDARD
0
LINE
8
DIMENSION
10
0
20
0
30
0
11
-3250
21
0
31
0
0
LINE
8
DIMENSION
10
0
20
30000
30
0
11
-3250
21
30000
31
0
0
LINE
8
DIMENSION
10
-3000
20
0
30
0
11
-3000
21
30000
31
0
0
LINE
8
DIMENSION
10
-3000
20
0
30
0
11
-2850
21
300
31
0
0
LINE
8
DIMENSION
10
-3000
20
0
30
0
11
-3150
21
300
31
0
0
LINE
8
DIMENSION
10
-3000
20
30000
30
0
11
-2850
21
29700
31
0
0
LINE
8
DIMENSION
10
-3000
20
30000
30
0
11
-3150
21
29700
31
0
0
TEXT
8
DIMENSION
10
-3350
20
14300.0
30
0
40
300
1
30000 SITE
50
90
7
STANDARD
0
LINE
8
DIMENSION
10
1500
20
20500
30
0
11
1500
21
19750
31
0
0
LINE
8
DIMENSION
10
8500
20
20500
30
0
11
8500
21
19750
31
0
0
LINE
8
DIMENSION
10
1500
20
19500
30
0
11
8500
21
19500
31
0
0
LINE
8
DIMENSION
10
1500
20
19500
30
0
11
1800
21
19650
31
0
0
LINE
8
DIMENSION
10
1500
20
19500
30
0
11
1800
21
19350
31
0
0
LINE
8
DIMENSION
10
8500
20
19500
30
0
11
8200
21
19650
31
0
0
LINE
8
DIMENSION
10
8500
20
19500
30
0
11
8200
21
19350
31
0
0
TEXT
8
DIMENSION
10
4400.0
20
19850
30
0
40
300
1
7000 EXISTING
50
0
7
STANDARD
0
LINE
8
DIMENSION
10
8500
20
20500
30
0
11
9750
21
20500
31
0
0
LINE
8
DIMENSION
10
8500
20
28500
30
0
11
9750
21
28500
31
0
0
LINE
8
DIMENSION
10
10000
20
20500
30
0
11
10000
21
28500
31
0
0
LINE
8
DIMENSION
10
10000
20
20500
30
0
11
10150
21
20800
31
0
0
LINE
8
DIMENSION
10
10000
20
20500
30
0
11
9850
21
20800
31
0
0
LINE
8
DIMENSION
10
10000
20
28500
30
0
11
10150
21
28200
31
0
0
LINE
8
DIMENSION
10
10000
20
28500
30
0
11
9850
21
28200
31
0
0
TEXT
8
DIMENSION
10
9650
20
23800.0
30
0
40
300
1
8000 EXISTING
50
90
7
STANDARD
0
TEXT
8
TEXT
10
23500
20
20500
30
0
40
300
1
DRAWING UNIT: mm
50
0
7
STANDARD
0
TEXT
8
TEXT
10
23500
20
19950
30
0
40
300
1
NORTH: UP
50
0
7
STANDARD
0
TEXT
8
TEXT
10
23500
20
19400
30
0
40
300
1
SITE: FLAT
50
0
7
STANDARD
0
TEXT
8
TEXT
10
23500
20
18850
30
0
40
300
1
KEEP: BUILDING
50
0
7
STANDARD
0
TEXT
8
TEXT
10
23500
20
18300
30
0
40
300
1
KEEP: 2 TREES
50
0
7
STANDARD
0
TEXT
8
TEXT
10
23500
20
17750
30
0
40
300
1
KEEP: DITCH + WALL
50
0
7
STANDARD
0
ENDSEC
0
EOF
