0
SECTION
2
HEADER
9
$ACADVER
1
AC1009
9
$INSUNITS
70
4
9
$MEASUREMENT
70
1
9
$EXTMIN
10
-4000
20
-7000
30
0
9
$EXTMAX
10
26000
20
34000
30
104000
9
$LUNITS
70
2
9
$LUPREC
70
2
0
ENDSEC
0
SECTION
2
TABLES
0
TABLE
2
LTYPE
70
1
0
LTYPE
2
CONTINUOUS
70
0
3
Solid line
72
65
73
0
40
0
0
ENDTAB
0
TABLE
2
LAYER
70
9
0
LAYER
2
0
70
0
62
7
6
CONTINUOUS
0
LAYER
2
SITE_BOUNDARY
70
0
62
1
6
CONTINUOUS
0
LAYER
2
ROAD
70
0
62
8
6
CONTINUOUS
0
LAYER
2
ENTRANCE
70
0
62
2
6
CONTINUOUS
0
LAYER
2
CONTOUR
70
0
62
30
6
CONTINUOUS
0
LAYER
2
ELEVATION
70
0
62
6
6
CONTINUOUS
0
LAYER
2
DIMENSION
70
0
62
7
6
CONTINUOUS
0
LAYER
2
TEXT
70
0
62
7
6
CONTINUOUS
0
LAYER
2
NORTH
70
0
62
2
6
CONTINUOUS
0
ENDTAB
0
TABLE
2
STYLE
70
1
0
STYLE
2
STANDARD
70
0
40
0
41
1
50
0
71
0
42
2.5
3
txt
4

0
ENDTAB
0
ENDSEC
0
SECTION
2
BLOCKS
0
ENDSEC
0
SECTION
2
ENTITIES
0
POLYLINE
8
SITE_BOUNDARY
66
1
70
1
30
0
40
100
41
100
0
VERTEX
8
SITE_BOUNDARY
10
0
20
0
30
0
70
0
0
VERTEX
8
SITE_BOUNDARY
10
20000
20
0
30
0
70
0
0
VERTEX
8
SITE_BOUNDARY
10
20000
20
30000
30
0
70
0
0
VERTEX
8
SITE_BOUNDARY
10
0
20
30000
30
0
70
0
0
SEQEND
8
SITE_BOUNDARY
0
TEXT
8
TEXT
10
7000
20
14500
30
0
40
430
1
SLOPED SITE 600.00 SQ.M
50
0
7
STANDARD
0
POLYLINE
8
CONTOUR
66
1
70
0
30
100000.0
0
VERTEX
8
CONTOUR
10
0
20
2500
30
100000.0
70
0
0
VERTEX
8
CONTOUR
10
5000
20
2800
30
100000.0
70
0
0
VERTEX
8
CONTOUR
10
10000
20
2400
30
100000.0
70
0
0
VERTEX
8
CONTOUR
10
15000
20
3000
30
100000.0
70
0
0
VERTEX
8
CONTOUR
10
20000
20
2700
30
100000.0
70
0
0
SEQEND
8
CONTOUR
0
TEXT
8
CONTOUR
10
900
20
2950.0
30
0
40
300
1
CONTOUR 100.00m
50
0
7
STANDARD
0
POLYLINE
8
CONTOUR
66
1
70
0
30
101000.0
0
VERTEX
8
CONTOUR
10
0
20
8500
30
101000.0
70
0
0
VERTEX
8
CONTOUR
10
5000
20
9200
30
101000.0
70
0
0
VERTEX
8
CONTOUR
10
10000
20
8800
30
101000.0
70
0
0
VERTEX
8
CONTOUR
10
15000
20
9800
30
101000.0
70
0
0
VERTEX
8
CONTOUR
10
20000
20
9000
30
101000.0
70
0
0
SEQEND
8
CONTOUR
0
TEXT
8
CONTOUR
10
900
20
8950.0
30
0
40
300
1
CONTOUR 101.00m
50
0
7
STANDARD
0
POLYLINE
8
CONTOUR
66
1
70
0
30
102000.0
0
VERTEX
8
CONTOUR
10
0
20
14500
30
102000.0
70
0
0
VERTEX
8
CONTOUR
10
5000
20
15300
30
102000.0
70
0
0
VERTEX
8
CONTOUR
10
10000
20
14800
30
102000.0
70
0
0
VERTEX
8
CONTOUR
10
15000
20
16000
30
102000.0
70
0
0
VERTEX
8
CONTOUR
10
20000
20
15100
30
102000.0
70
0
0
SEQEND
8
CONTOUR
0
TEXT
8
CONTOUR
10
900
20
14950.0
30
0
40
300
1
CONTOUR 102.00m
50
0
7
STANDARD
0
POLYLINE
8
CONTOUR
66
1
70
0
30
103000.0
0
VERTEX
8
CONTOUR
10
0
20
20500
30
103000.0
70
0
0
VERTEX
8
CONTOUR
10
5000
20
21800
30
103000.0
70
0
0
VERTEX
8
CONTOUR
10
10000
20
21100
30
103000.0
70
0
0
VERTEX
8
CONTOUR
10
15000
20
22400
30
103000.0
70
0
0
VERTEX
8
CONTOUR
10
20000
20
21500
30
103000.0
70
0
0
SEQEND
8
CONTOUR
0
TEXT
8
CONTOUR
10
900
20
20950.0
30
0
40
300
1
CONTOUR 103.00m
50
0
7
STANDARD
0
POLYLINE
8
CONTOUR
66
1
70
0
30
104000.0
0
VERTEX
8
CONTOUR
10
0
20
27000
30
104000.0
70
0
0
VERTEX
8
CONTOUR
10
5000
20
28000
30
104000.0
70
0
0
VERTEX
8
CONTOUR
10
10000
20
27400
30
104000.0
70
0
0
VERTEX
8
CONTOUR
10
15000
20
28800
30
104000.0
70
0
0
VERTEX
8
CONTOUR
10
20000
20
27800
30
104000.0
70
0
0
SEQEND
8
CONTOUR
0
TEXT
8
CONTOUR
10
900
20
27450.0
30
0
40
300
1
CONTOUR 104.00m
50
0
7
STANDARD
0
CIRCLE
8
ELEVATION
10
3000
20
1500
30
0
40
180
0
LINE
8
ELEVATION
10
2740
20
1500
30
0
11
3260
21
1500
31
0
0
LINE
8
ELEVATION
10
3000
20
1240
30
0
11
3000
21
1760
31
0
0
TEXT
8
ELEVATION
10
3320
20
1620
30
0
40
280
1
EL 100.00m
50
0
7
STANDARD
0
CIRCLE
8
ELEVATION
10
17000
20
3500
30
0
40
180
0
LINE
8
ELEVATION
10
16740
20
3500
30
0
11
17260
21
3500
31
0
0
LINE
8
ELEVATION
10
17000
20
3240
30
0
11
17000
21
3760
31
0
0
TEXT
8
ELEVATION
10
17320
20
3620
30
0
40
280
1
EL 100.20m
50
0
7
STANDARD
0
CIRCLE
8
ELEVATION
10
4000
20
11000
30
0
40
180
0
LINE
8
ELEVATION
10
3740
20
11000
30
0
11
4260
21
11000
31
0
0
LINE
8
ELEVATION
10
4000
20
10740
30
0
11
4000
21
11260
31
0
0
TEXT
8
ELEVATION
10
4320
20
11120
30
0
40
280
1
EL 101.40m
50
0
7
STANDARD
0
CIRCLE
8
ELEVATION
10
16000
20
17000
30
0
40
180
0
LINE
8
ELEVATION
10
15740
20
17000
30
0
11
16260
21
17000
31
0
0
LINE
8
ELEVATION
10
16000
20
16740
30
0
11
16000
21
17260
31
0
0
TEXT
8
ELEVATION
10
16320
20
17120
30
0
40
280
1
EL 102.40m
50
0
7
STANDARD
0
CIRCLE
8
ELEVATION
10
5000
20
24000
30
0
40
180
0
LINE
8
ELEVATION
10
4740
20
24000
30
0
11
5260
21
24000
31
0
0
LINE
8
ELEVATION
10
5000
20
23740
30
0
11
5000
21
24260
31
0
0
TEXT
8
ELEVATION
10
5320
20
24120
30
0
40
280
1
EL 103.50m
50
0
7
STANDARD
0
CIRCLE
8
ELEVATION
10
17000
20
29000
30
0
40
180
0
LINE
8
ELEVATION
10
16740
20
29000
30
0
11
17260
21
29000
31
0
0
LINE
8
ELEVATION
10
17000
20
28740
30
0
11
17000
21
29260
31
0
0
TEXT
8
ELEVATION
10
17320
20
29120
30
0
40
280
1
EL 104.00m
50
0
7
STANDARD
0
LINE
8
ELEVATION
10
11000
20
26000
30
0
11
11000
21
5000
31
0
0
POLYLINE
8
ELEVATION
66
1
70
1
30
0
0
VERTEX
8
ELEVATION
10
11000
20
5000
30
0
70
0
0
VERTEX
8
ELEVATION
10
10650
20
5700
30
0
70
0
0
VERTEX
8
ELEVATION
10
11350
20
5700
30
0
70
0
0
SEQEND
8
ELEVATION
0
TEXT
8
ELEVATION
10
11600
20
15000
30
0
40
320
1
SLOPE DOWN TO SOUTH
50
90
7
STANDARD
0
POLYLINE
8
ROAD
66
1
70
1
30
0
0
VERTEX
8
ROAD
10
-2000
20
-6000
30
0
70
0
0
VERTEX
8
ROAD
10
22000
20
-6000
30
0
70
0
0
VERTEX
8
ROAD
10
22000
20
0
30
0
70
0
0
VERTEX
8
ROAD
10
-2000
20
0
30
0
70
0
0
SEQEND
8
ROAD
0
LINE
8
ROAD
10
-2000
20
-3000
30
0
11
22000
21
-3000
31
0
0
TEXT
8
ROAD
10
7000
20
-3700
30
0
40
400
1
6.00m WIDE SOUTH ROAD / LOW SIDE
50
0
7
STANDARD
0
LINE
8
ENTRANCE
10
8000
20
-150
30
0
11
8000
21
650
31
0
0
LINE
8
ENTRANCE
10
12000
20
-150
30
0
11
12000
21
650
31
0
0
LINE
8
ENTRANCE
10
10000
20
-1800
30
0
11
10000
21
-400
31
0
0
POLYLINE
8
ENTRANCE
66
1
70
1
30
0
0
VERTEX
8
ENTRANCE
10
10000
20
-400
30
0
70
0
0
VERTEX
8
ENTRANCE
10
9750
20
-900
30
0
70
0
0
VERTEX
8
ENTRANCE
10
10250
20
-900
30
0
70
0
0
SEQEND
8
ENTRANCE
0
TEXT
8
ENTRANCE
10
8200
20
-1300
30
0
40
320
1
MAIN ENTRANCE 4.00m
50
0
7
STANDARD
0
CIRCLE
8
NORTH
10
24000
20
25000
30
0
40
800
0
LINE
8
NORTH
10
24000
20
24200
30
0
11
24000
21
26800
31
0
0
POLYLINE
8
NORTH
66
1
70
1
30
0
0
VERTEX
8
NORTH
10
24000
20
26800
30
0
70
0
0
VERTEX
8
NORTH
10
23700
20
26200
30
0
70
0
0
VERTEX
8
NORTH
10
24300
20
26200
30
0
70
0
0
SEQEND
8
NORTH
0
TEXT
8
NORTH
10
23750
20
27500
30
0
40
600
1
N
50
0
7
STANDARD
0
LINE
8
DIMENSION
10
0
20
30000
30
0
11
0
21
33250
31
0
0
LINE
8
DIMENSION
10
20000
20
30000
30
0
11
20000
21
33250
31
0
0
LINE
8
DIMENSION
10
0
20
33000
30
0
11
20000
21
33000
31
0
0
LINE
8
DIMENSION
10
0
20
33000
30
0
11
300
21
33150
31
0
0
LINE
8
DIMENSION
10
0
20
33000
30
0
11
300
21
32850
31
0
0
LINE
8
DIMENSION
10
20000
20
33000
30
0
11
19700
21
33150
31
0
0
LINE
8
DIMENSION
10
20000
20
33000
30
0
11
19700
21
32850
31
0
0
TEXT
8
DIMENSION
10
9400.0
20
33350
30
0
40
300
1
20000 SITE
50
0
7
STANDARD
0
LINE
8
DIMENSION
10
0
20
0
30
0
11
-3250
21
0
31
0
0
LINE
8
DIMENSION
10
0
20
30000
30
0
11
-3250
21
30000
31
0
0
LINE
8
DIMENSION
10
-3000
20
0
30
0
11
-3000
21
30000
31
0
0
LINE
8
DIMENSION
10
-3000
20
0
30
0
11
-2850
21
300
31
0
0
LINE
8
DIMENSION
10
-3000
20
0
30
0
11
-3150
21
300
31
0
0
LINE
8
DIMENSION
10
-3000
20
30000
30
0
11
-2850
21
29700
31
0
0
LINE
8
DIMENSION
10
-3000
20
30000
30
0
11
-3150
21
29700
31
0
0
TEXT
8
DIMENSION
10
-3350
20
14300.0
30
0
40
300
1
30000 SITE
50
90
7
STANDARD
0
TEXT
8
TEXT
10
21500
20
20500
30
0
40
300
1
DRAWING UNIT: mm
50
0
7
STANDARD
0
TEXT
8
TEXT
10
21500
20
19950
30
0
40
300
1
CONTOUR INTERVAL: 1m
50
0
7
STANDARD
0
TEXT
8
TEXT
10
21500
20
19400
30
0
40
300
1
HIGH: NORTH 104m
50
0
7
STANDARD
0
TEXT
8
TEXT
10
21500
20
18850
30
0
40
300
1
LOW: SOUTH 100m
50
0
7
STANDARD
0
TEXT
8
TEXT
10
21500
20
18300
30
0
40
300
1
TOTAL RELIEF: 4m
50
0
7
STANDARD
0
TEXT
8
TEXT
10
21500
20
17750
30
0
40
300
1
MANUAL TERRAIN REVIEW
50
0
7
STANDARD
0
ENDSEC
0
EOF
