0
SECTION
2
HEADER
9
$ACADVER
1
AC1009
9
$INSUNITS
70
4
9
$MEASUREMENT
70
1
9
$EXTMIN
10
995000
20
1992000
30
0
9
$EXTMAX
10
1060000
20
2042000
30
0
9
$LUNITS
70
2
9
$LUPREC
70
2
0
ENDSEC
0
SECTION
2
TABLES
0
TABLE
2
LTYPE
70
1
0
LTYPE
2
CONTINUOUS
70
0
3
Solid line
72
65
73
0
40
0
0
ENDTAB
0
TABLE
2
LAYER
70
8
0
LAYER
2
0
70
0
62
7
6
CONTINUOUS
0
LAYER
2
JZD_A
70
0
62
1
6
CONTINUOUS
0
LAYER
2
REDLINE_B
70
0
62
5
6
CONTINUOUS
0
LAYER
2
MAYBE_BOUNDARY
70
0
62
2
6
CONTINUOUS
0
LAYER
2
DLDW
70
0
62
8
6
CONTINUOUS
0
LAYER
2
BAD_GEOMETRY
70
0
62
30
6
CONTINUOUS
0
LAYER
2
BORDER_TITLEBLOCK
70
0
62
9
6
CONTINUOUS
0
LAYER
2
ANNO
70
0
62
7
6
CONTINUOUS
0
ENDTAB
0
TABLE
2
STYLE
70
1
0
STYLE
2
STANDARD
70
0
40
0
41
1
50
0
71
0
42
2.5
3
txt
4

0
ENDTAB
0
ENDSEC
0
SECTION
2
BLOCKS
0
ENDSEC
0
SECTION
2
ENTITIES
0
POLYLINE
8
JZD_A
66
1
70
1
40
100
41
100
0
VERTEX
8
JZD_A
10
1000000
20
2000000
30
0
70
0
0
VERTEX
8
JZD_A
10
1020000
20
2000000
30
0
70
0
0
VERTEX
8
JZD_A
10
1020000
20
2025000
30
0
70
0
0
VERTEX
8
JZD_A
10
1000000
20
2025000
30
0
70
0
0
SEQEND
8
JZD_A
0
TEXT
8
ANNO
10
1004500
20
2012000
30
0
40
420
1
CANDIDATE A / 500 SQ.M
50
0
7
STANDARD
0
POLYLINE
8
REDLINE_B
66
1
70
1
40
100
41
100
0
VERTEX
8
REDLINE_B
10
1030000
20
2000000
30
0
70
0
0
VERTEX
8
REDLINE_B
10
1049000
20
2000000
30
0
70
0
0
VERTEX
8
REDLINE_B
10
1049000
20
2026000
30
0
70
0
0
VERTEX
8
REDLINE_B
10
1030000
20
2026000
30
0
70
0
0
SEQEND
8
REDLINE_B
0
TEXT
8
ANNO
10
1033800
20
2012500
30
0
40
420
1
CANDIDATE B / 494 SQ.M
50
0
7
STANDARD
0
POLYLINE
8
MAYBE_BOUNDARY
66
1
70
0
40
70
41
70
0
VERTEX
8
MAYBE_BOUNDARY
10
1005000
20
2030000
30
0
70
0
0
VERTEX
8
MAYBE_BOUNDARY
10
1023000
20
2030000
30
0
70
0
0
VERTEX
8
MAYBE_BOUNDARY
10
1023000
20
2038000
30
0
70
0
0
VERTEX
8
MAYBE_BOUNDARY
10
1005000
20
2038000
30
0
70
0
0
VERTEX
8
MAYBE_BOUNDARY
10
1005000
20
2030600
30
0
70
0
0
SEQEND
8
MAYBE_BOUNDARY
0
TEXT
8
ANNO
10
1008000
20
2034000
30
0
40
320
1
OPEN POLYLINE / GAP 600
50
0
7
STANDARD
0
LINE
8
DLDW
10
998000
20
1996000
30
0
11
1052000
21
1996000
31
0
0
LINE
8
DLDW
10
998000
20
1996000
30
0
11
1052000
21
1996000
31
0
0
TEXT
8
ANNO
10
1017000
20
1995000
30
0
40
300
1
EXACT DUPLICATE LINES
50
0
7
STANDARD
0
LINE
8
BAD_GEOMETRY
10
1026000
20
2032000
30
0
11
1026000
21
2032000
31
0
0
TEXT
8
ANNO
10
1026500
20
2031800
30
0
40
280
1
ZERO LENGTH LINE
50
0
7
STANDARD
0
POLYLINE
8
BAD_GEOMETRY
66
1
70
1
40
70
41
70
0
VERTEX
8
BAD_GEOMETRY
10
1032000
20
2031000
30
0
70
0
0
VERTEX
8
BAD_GEOMETRY
10
1040000
20
2038000
30
0
70
0
0
VERTEX
8
BAD_GEOMETRY
10
1032000
20
2038000
30
0
70
0
0
VERTEX
8
BAD_GEOMETRY
10
1040000
20
2031000
30
0
70
0
0
SEQEND
8
BAD_GEOMETRY
0
TEXT
8
ANNO
10
1032500
20
2039000
30
0
40
300
1
SELF-INTERSECTING POLYLINE
50
0
7
STANDARD
0
POLYLINE
8
BORDER_TITLEBLOCK
66
1
70
1
0
VERTEX
8
BORDER_TITLEBLOCK
10
996000
20
1993000
30
0
70
0
0
VERTEX
8
BORDER_TITLEBLOCK
10
1056000
20
1993000
30
0
70
0
0
VERTEX
8
BORDER_TITLEBLOCK
10
1056000
20
2041000
30
0
70
0
0
VERTEX
8
BORDER_TITLEBLOCK
10
996000
20
2041000
30
0
70
0
0
SEQEND
8
BORDER_TITLEBLOCK
0
POLYLINE
8
BORDER_TITLEBLOCK
66
1
70
1
0
VERTEX
8
BORDER_TITLEBLOCK
10
1036000
20
1993000
30
0
70
0
0
VERTEX
8
BORDER_TITLEBLOCK
10
1056000
20
1993000
30
0
70
0
0
VERTEX
8
BORDER_TITLEBLOCK
10
1056000
20
1999000
30
0
70
0
0
VERTEX
8
BORDER_TITLEBLOCK
10
1036000
20
1999000
30
0
70
0
0
SEQEND
8
BORDER_TITLEBLOCK
0
LINE
8
BORDER_TITLEBLOCK
10
1043000
20
1993000
30
0
11
1043000
21
1999000
31
0
0
LINE
8
BORDER_TITLEBLOCK
10
1050000
20
1993000
30
0
11
1050000
21
1999000
31
0
0
TEXT
8
BORDER_TITLEBLOCK
10
1036500
20
1997000
30
0
40
300
1
TEST DRAWING / NOT SITE
50
0
7
STANDARD
0
TEXT
8
ANNO
10
998000
20
2040000
30
0
40
360
1
NO NORTH ARROW / NO ENTRANCE / NON-STANDARD LAYERS
50
0
7
STANDARD
0
TEXT
8
ANNO
10
998000
20
2039400
30
0
40
300
1
FAR COORDINATES: X=1,000,000 / Y=2,000,000 mm
50
0
7
STANDARD
0
ENDSEC
0
EOF
