  0
SECTION
  2
HEADER
  9
$ACADVER
  1
AC1032
  9
$ACADMAINTVER
 90
      174
  9
$DWGCODEPAGE
  3
ANSI_936
  9
$LASTSAVEDBY
  1
10333
  9
$REQUIREDVERSIONS
160
                 0
  9
$INSBASE
 10
0.0
 20
0.0
 30
0.0
  9
$EXTMIN
 10
37179.06
 20
6806.47
 30
0.0
  9
$EXTMAX
 10
59579.06
 20
26206.47
 30
0.0
  9
$LIMMIN
 10
0.0
 20
0.0
  9
$LIMMAX
 10
50000.0
 20
32000.0
  9
$ORTHOMODE
 70
     1
  9
$REGENMODE
 70
     1
  9
$FILLMODE
 70
     1
  9
$QTEXTMODE
 70
     0
  9
$MIRRTEXT
 70
     0
  9
$LTSCALE
 40
1000.0
  9
$ATTMODE
 70
     1
  9
$TEXTSIZE
 40
350.0
  9
$TRACEWID
 40
0.05
  9
$TEXTSTYLE
  7
Standard
  9
$CLAYER
  8
0
  9
$CELTYPE
  6
ByLayer
  9
$CECOLOR
 62
   256
  9
$CELTSCALE
 40
1.0
  9
$DISPSILH
 70
     0
  9
$DIMSCALE
 40
100.0
  9
$DIMASZ
 40
1.0
  9
$DIMEXO
 40
3.0
  9
$DIMDLI
 40
0.0
  9
$DIMRND
 40
0.0
  9
$DIMDLE
 40
0.0
  9
$DIMEXE
 40
2.5
  9
$DIMTP
 40
0.0
  9
$DIMTM
 40
0.0
  9
$DIMTXT
 40
3.5
  9
$DIMCEN
 40
0.09
  9
$DIMTSZ
 40
0.0
  9
$DIMTOL
 70
     0
  9
$DIMLIM
 70
     0
  9
$DIMTIH
 70
     0
  9
$DIMTOH
 70
     0
  9
$DIMSE1
 70
     0
  9
$DIMSE2
 70
     0
  9
$DIMTAD
 70
     1
  9
$DIMZIN
 70
     0
  9
$DIMBLK
  1
ArchTick
  9
$DIMASO
 70
     1
  9
$DIMSHO
 70
     1
  9
$DIMPOST
  1

  9
$DIMAPOST
  1

  9
$DIMALT
 70
     0
  9
$DIMALTD
 70
     2
  9
$DIMALTF
 40
25.4
  9
$DIMLFAC
 40
1.0
  9
$DIMTOFL
 70
     1
  9
$DIMTVP
 40
0.0
  9
$DIMTIX
 70
     1
  9
$DIMSOXD
 70
     0
  9
$DIMSAH
 70
     0
  9
$DIMBLK1
  1

  9
$DIMBLK2
  1

  9
$DIMSTYLE
  2
STANDARD
  9
$DIMCLRD
 70
     0
  9
$DIMCLRE
 70
     0
  9
$DIMCLRT
 70
     0
  9
$DIMTFAC
 40
1.0
  9
$DIMGAP
 40
1.5
  9
$DIMJUST
 70
     0
  9
$DIMSD1
 70
     0
  9
$DIMSD2
 70
     0
  9
$DIMTOLJ
 70
     1
  9
$DIMTZIN
 70
     0
  9
$DIMALTZ
 70
     0
  9
$DIMALTTZ
 70
     0
  9
$DIMUPT
 70
     0
  9
$DIMDEC
 70
     0
  9
$DIMTDEC
 70
     0
  9
$DIMALTU
 70
     2
  9
$DIMALTTD
 70
     2
  9
$DIMTXSTY
  7
Standard
  9
$DIMAUNIT
 70
     0
  9
$DIMADEC
 70
     0
  9
$DIMALTRND
 40
0.0
  9
$DIMAZIN
 70
     0
  9
$DIMDSEP
 70
    46
  9
$DIMATFIT
 70
     3
  9
$DIMFRAC
 70
     0
  9
$DIMLDRBLK
  1

  9
$DIMLUNIT
 70
     2
  9
$DIMLWD
 70
    -2
  9
$DIMLWE
 70
    -2
  9
$DIMTMOVE
 70
     2
  9
$DIMFXL
 40
100.0
  9
$DIMFXLON
 70
     0
  9
$DIMJOGANG
 40
0.79
  9
$DIMTFILL
 70
     0
  9
$DIMTFILLCLR
 70
     0
  9
$DIMARCSYM
 70
     0
  9
$DIMLTYPE
  6

  9
$DIMLTEX1
  6

  9
$DIMLTEX2
  6

  9
$DIMTXTDIRECTION
 70
     0
  9
$LUNITS
 70
     2
  9
$LUPREC
 70
     0
  9
$SKETCHINC
 40
0.1
  9
$FILLETRAD
 40
0.0
  9
$AUNITS
 70
     0
  9
$AUPREC
 70
     0
  9
$MENU
  1
.
  9
$ELEVATION
 40
0.0
  9
$PELEVATION
 40
0.0
  9
$THICKNESS
 40
0.0
  9
$LIMCHECK
 70
     0
  9
$CHAMFERA
 40
0.0
  9
$CHAMFERB
 40
0.0
  9
$CHAMFERC
 40
0.0
  9
$CHAMFERD
 40
0.0
  9
$SKPOLY
 70
     0
  9
$TDCREATE
 40
2461267.562569445
  9
$TDUCREATE
 40
2461267.229236111
  9
$TDUPDATE
 40
2461267.623657407
  9
$TDUUPDATE
 40
2461267.290324074
  9
$TDINDWG
 40
0.0182523148
  9
$TDUSRTIMER
 40
0.0182523148
  9
$USRTIMER
 70
     1
  9
$ANGBASE
 50
0.0
  9
$ANGDIR
 70
     0
  9
$PDMODE
 70
     0
  9
$PDSIZE
 40
0.0
  9
$PLINEWID
 40
0.0
  9
$SPLFRAME
 70
     0
  9
$SPLINETYPE
 70
     6
  9
$SPLINESEGS
 70
     8
  9
$HANDSEED
  5
3C4
  9
$SURFTAB1
 70
     6
  9
$SURFTAB2
 70
     6
  9
$SURFTYPE
 70
     6
  9
$SURFU
 70
     6
  9
$SURFV
 70
     6
  9
$UCSBASE
  2

  9
$UCSNAME
  2

  9
$UCSORG
 10
0.0
 20
0.0
 30
0.0
  9
$UCSXDIR
 10
1.0
 20
0.0
 30
0.0
  9
$UCSYDIR
 10
0.0
 20
1.0
 30
0.0
  9
$UCSORTHOREF
  2

  9
$UCSORTHOVIEW
 70
     1
  9
$UCSORGTOP
 10
0.0
 20
0.0
 30
0.0
  9
$UCSORGBOTTOM
 10
0.0
 20
0.0
 30
0.0
  9
$UCSORGLEFT
 10
0.0
 20
0.0
 30
0.0
  9
$UCSORGRIGHT
 10
0.0
 20
0.0
 30
0.0
  9
$UCSORGFRONT
 10
0.0
 20
0.0
 30
0.0
  9
$UCSORGBACK
 10
0.0
 20
0.0
 30
0.0
  9
$PUCSBASE
  2

  9
$PUCSNAME
  2

  9
$PUCSORG
 10
0.0
 20
0.0
 30
0.0
  9
$PUCSXDIR
 10
1.0
 20
0.0
 30
0.0
  9
$PUCSYDIR
 10
0.0
 20
1.0
 30
0.0
  9
$PUCSORTHOREF
  2

  9
$PUCSORTHOVIEW
 70
     0
  9
$PUCSORGTOP
 10
0.0
 20
0.0
 30
0.0
  9
$PUCSORGBOTTOM
 10
0.0
 20
0.0
 30
0.0
  9
$PUCSORGLEFT
 10
0.0
 20
0.0
 30
0.0
  9
$PUCSORGRIGHT
 10
0.0
 20
0.0
 30
0.0
  9
$PUCSORGFRONT
 10
0.0
 20
0.0
 30
0.0
  9
$PUCSORGBACK
 10
0.0
 20
0.0
 30
0.0
  9
$USERI1
 70
     0
  9
$USERI2
 70
     0
  9
$USERI3
 70
     0
  9
$USERI4
 70
     0
  9
$USERI5
 70
     0
  9
$USERR1
 40
0.0
  9
$USERR2
 40
0.0
  9
$USERR3
 40
0.0
  9
$USERR4
 40
0.0
  9
$USERR5
 40
0.0
  9
$WORLDVIEW
 70
     1
  9
$SHADEDGE
 70
     3
  9
$SHADEDIF
 70
    70
  9
$TILEMODE
 70
     1
  9
$MAXACTVP
 70
    64
  9
$PINSBASE
 10
0.0
 20
0.0
 30
0.0
  9
$PLIMCHECK
 70
     0
  9
$PEXTMIN
 10
0.0
 20
0.0
 30
0.0
  9
$PEXTMAX
 10
0.0
 20
0.0
 30
0.0
  9
$PLIMMIN
 10
0.0
 20
0.0
  9
$PLIMMAX
 10
12.0
 20
9.0
  9
$UNITMODE
 70
     0
  9
$VISRETAIN
 70
     1
  9
$PLINEGEN
 70
     0
  9
$PSLTSCALE
 70
     1
  9
$TREEDEPTH
 70
  3020
  9
$CMLSTYLE
  2
Standard
  9
$CMLJUST
 70
     0
  9
$CMLSCALE
 40
1.0
  9
$PROXYGRAPHICS
 70
     1
  9
$MEASUREMENT
 70
     0
  9
$CELWEIGHT
370
    -1
  9
$ENDCAPS
280
     0
  9
$JOINSTYLE
280
     0
  9
$LWDISPLAY
290
     0
  9
$INSUNITS
 70
     0
  9
$HYPERLINKBASE
  1

  9
$STYLESHEET
  1

  9
$XEDIT
290
     1
  9
$CEPSNTYPE
380
     0
  9
$PSTYLEMODE
290
     1
  9
$FINGERPRINTGUID
  2
{BDF4E6CD-5CE3-1249-A2BD-9FB946E9E6B6}
  9
$VERSIONGUID
  2
{55FE9EA3-ECAF-7F4F-BAC0-4A1B44280BB9}
  9
$EXTNAMES
290
     1
  9
$PSVPSCALE
 40
0.0
  9
$OLESTARTUP
290
     0
  9
$SORTENTS
280
   127
  9
$INDEXCTL
280
     0
  9
$HIDETEXT
280
     1
  9
$XCLIPFRAME
280
     0
  9
$HALOGAP
280
     0
  9
$OBSCOLOR
 70
   257
  9
$OBSLTYPE
280
     0
  9
$INTERSECTIONDISPLAY
280
     0
  9
$INTERSECTIONCOLOR
 70
   257
  9
$DIMASSOC
280
     2
  9
$PROJECTNAME
  1

  9
$CAMERADISPLAY
290
     0
  9
$LENSLENGTH
 40
50.0
  9
$CAMERAHEIGHT
 40
0.0
  9
$STEPSPERSEC
 40
2.0
  9
$STEPSIZE
 40
6.0
  9
$3DDWFPREC
 40
2.0
  9
$PSOLWIDTH
 40
0.25
  9
$PSOLHEIGHT
 40
4.0
  9
$LOFTANG1
 40
1.57
  9
$LOFTANG2
 40
1.57
  9
$LOFTMAG1
 40
0.0
  9
$LOFTMAG2
 40
0.0
  9
$LOFTPARAM
 70
     7
  9
$LOFTNORMALS
280
     1
  9
$LATITUDE
 40
37.8
  9
$LONGITUDE
 40
-122.39
  9
$NORTHDIRECTION
 40
0.0
  9
$TIMEZONE
 70
 -8000
  9
$LIGHTGLYPHDISPLAY
280
     1
  9
$TILEMODELIGHTSYNCH
280
     1
  9
$CMATERIAL
347
21D
  9
$SOLIDHIST
280
     1
  9
$SHOWHIST
280
     1
  9
$DWFFRAME
280
     2
  9
$DGNFRAME
280
     0
  9
$REALWORLDSCALE
290
     1
  9
$INTERFERECOLOR
 62
     1
  9
$INTERFEREOBJVS
345
233
  9
$INTERFEREVPVS
346
234
  9
$CSHADOW
280
     0
  9
$SHADOWPLANELOCATION
 40
0.0
  0
ENDSEC
  0
SECTION
  2
CLASSES
  0
CLASS
  1
ACDBDICTIONARYWDFLT
  2
AcDbDictionaryWithDefault
  3
ObjectDBX Classes
 90
        0
 91
        1
280
     0
281
     0
  0
CLASS
  1
DICTIONARYVAR
  2
AcDbDictionaryVar
  3
ObjectDBX Classes
 90
        0
 91
       13
280
     0
281
     0
  0
CLASS
  1
TABLESTYLE
  2
AcDbTableStyle
  3
ObjectDBX Classes
 90
     4095
 91
        1
280
     0
281
     0
  0
CLASS
  1
MATERIAL
  2
AcDbMaterial
  3
ObjectDBX Classes
 90
     1153
 91
        3
280
     0
281
     0
  0
CLASS
  1
VISUALSTYLE
  2
AcDbVisualStyle
  3
ObjectDBX Classes
 90
     4095
 91
       25
280
     0
281
     0
  0
CLASS
  1
GROUND_PLANE_BACKGROUND
  2
AcDbGroundPlaneBackground
  3
SCENEOE
 90
     4095
 91
        0
280
     1
281
     0
  0
CLASS
  1
NPOCOLLECTION
  2
AcDbImpNonPersistentObjectsCollection
  3
ObjectDBX Classes
 90
     1153
 91
        0
280
     0
281
     0
  0
CLASS
  1
ACSH_CONE_CLASS
  2
AcDbShCone
  3
ObjectDBX Classes
 90
     1153
 91
        0
280
     0
281
     0
  0
CLASS
  1
ACAD_EVALUATION_GRAPH
  2
AcDbEvalGraph
  3
ObjectDBX Classes
 90
     1153
 91
        0
280
     0
281
     0
  0
CLASS
  1
ACSH_HISTORY_CLASS
  2
AcDbShHistory
  3
ObjectDBX Classes
 90
     1153
 91
        0
280
     0
281
     0
  0
CLASS
  1
SOLID_BACKGROUND
  2
AcDbSolidBackground
  3
SCENEOE
 90
     4095
 91
        0
280
     1
281
     0
  0
CLASS
  1
ACSH_BOX_CLASS
  2
AcDbShBox
  3
ObjectDBX Classes
 90
     1153
 91
        0
280
     0
281
     0
  0
CLASS
  1
SCALE
  2
AcDbScale
  3
ObjectDBX Classes
 90
     1153
 91
       33
280
     0
281
     0
  0
CLASS
  1
MLEADERSTYLE
  2
AcDbMLeaderStyle
  3
ACDB_MLEADERSTYLE_CLASS
 90
     4095
 91
        1
280
     0
281
     0
  0
CLASS
  1
WIPEOUTVARIABLES
  2
AcDbWipeoutVariables
  3
"WipeOut|Product Desc:     WipeOut Dbx Application|Company:          Autodesk, Inc.|WEB Address:      www.autodesk.com"
 90
        0
 91
        0
280
     0
281
     0
  0
CLASS
  1
CELLSTYLEMAP
  2
AcDbCellStyleMap
  3
ObjectDBX Classes
 90
     1152
 91
        2
280
     0
281
     0
  0
CLASS
  1
ACDBSECTIONVIEWSTYLE
  2
AcDbSectionViewStyle
  3
ObjectDBX Classes
 90
     1025
 91
        1
280
     0
281
     0
  0
CLASS
  1
ACDBDETAILVIEWSTYLE
  2
AcDbDetailViewStyle
  3
ObjectDBX Classes
 90
     1025
 91
        1
280
     0
281
     0
  0
CLASS
  1
TCH_DBCONFIG
  2
TDbConfig
  3
"TCH_KERNAL|缺乏解释器天正图形看不见, 请下载天正插件|网址: www.tangent.com.cn"
 90
        1
 91
        1
280
     0
281
     0
  0
CLASS
  1
SORTENTSTABLE
  2
AcDbSortentsTable
  3
ObjectDBX Classes
 90
        0
 91
        2
280
     0
281
     0
  0
CLASS
  1
TCH_WALL
  2
TDbWall
  3
"TCH_KERNAL|缺乏解释器天正图形看不见, 请下载天正插件|网址: www.tangent.com.cn"
 90
        1
 91
        0
280
     0
281
     1
  0
CLASS
  1
TCH_DIMENSION2
  2
TDbDimension2
  3
"TCH_KERNAL|缺乏解释器天正图形看不见, 请下载天正插件|网址: www.tangent.com.cn"
 90
        1
 91
        0
280
     0
281
     1
  0
CLASS
  1
TCH_OPENING
  2
TDbOpening
  3
"TCH_KERNAL|缺乏解释器天正图形看不见, 请下载天正插件|网址: www.tangent.com.cn"
 90
        1
 91
        0
280
     0
281
     1
  0
CLASS
  1
TCH_SPACE
  2
TDbSpace
  3
"TCH_KERNAL|缺乏解释器天正图形看不见, 请下载天正插件|网址: www.tangent.com.cn"
 90
        1
 91
        0
280
     0
281
     1
  0
CLASS
  1
TCH_AXIS_LABEL
  2
TDbAxisLabelSet
  3
"TCH_KERNAL|缺乏解释器天正图形看不见, 请下载天正插件|网址: www.tangent.com.cn"
 90
        1
 91
        0
280
     0
281
     1
  0
ENDSEC
  0
SECTION
  2
TABLES
  0
TABLE
  2
VPORT
  5
211
330
0
100
AcDbSymbolTable
 70
     1
  0
VPORT
  5
212
330
211
100
AcDbSymbolTableRecord
100
AcDbViewportTableRecord
  2
*Active
 70
     0
 10
0.0
 20
0.0
 11
1.0
 21
1.0
 12
47021.41
 22
16271.74
 13
0.0
 23
0.0
 14
0.5
 24
0.5
 15
0.5
 25
0.5
 16
0.0
 26
0.0
 36
1.0
 17
6.0
 27
4.5
 37
-6.89
 40
17174.31
 41
2.25
 42
50.0
 43
0.0
 44
0.0
 50
0.0
 51
0.0
 71
     0
 72
  1000
 73
     1
 74
     3
 75
     0
 76
     0
 77
     0
 78
     0
281
     0
 65
     1
110
0.0
120
0.0
130
0.0
111
1.0
121
0.0
131
0.0
112
0.0
122
1.0
132
0.0
 79
     0
146
0.0
348
213
 60
     3
 61
     5
292
     1
282
     1
141
0.0
142
0.0
 63
   250
421
  3355443
1001
ACAD_NAV_VCDISPLAY
1070
     3
  0
ENDTAB
  0
TABLE
  2
LTYPE
  5
20C
330
0
100
AcDbSymbolTable
 70
     6
  0
LTYPE
  5
20D
330
20C
100
AcDbSymbolTableRecord
100
AcDbLinetypeTableRecord
  2
ByBlock
 70
     0
  3

 72
    65
 73
     0
 40
0.0
  0
LTYPE
  5
20E
330
20C
100
AcDbSymbolTableRecord
100
AcDbLinetypeTableRecord
  2
ByLayer
 70
     0
  3

 72
    65
 73
     0
 40
0.0
  0
LTYPE
  5
C
330
20C
100
AcDbSymbolTableRecord
100
AcDbLinetypeTableRecord
  2
Continuous
 70
     0
  3
Solid line
 72
    65
 73
     0
 40
0.0
  0
LTYPE
  5
26B
330
20C
100
AcDbSymbolTableRecord
100
AcDbLinetypeTableRecord
  2
DASH
 70
     0
  3
__ __ __ __ __ __ __ __ __ __ __ __ __ __ __ __
 72
    65
 73
     2
 40
0.35
 49
0.25
 74
     0
 49
-0.1
 74
     0
  0
LTYPE
  5
26C
330
20C
100
AcDbSymbolTableRecord
100
AcDbLinetypeTableRecord
  2
DOTE
 70
     0
  3
____ . ____ . ____ . ____ . ____ . ____ . ____ 
 72
    65
 73
     4
 40
2.42
 49
2.0
 74
     0
 49
-0.2
 74
     0
 49
0.02
 74
     0
 49
-0.2
 74
     0
  0
LTYPE
  5
26D
330
20C
100
AcDbSymbolTableRecord
100
AcDbLinetypeTableRecord
  2
ACAD_ISO05W100
 70
     0
  3
ISO long-dash double-dot ____ .. ____ .. ____ .
 72
    65
 73
     6
 40
34.0
 49
24.0
 74
     0
 49
-3.0
 74
     0
 49
0.5
 74
     0
 49
-3.0
 74
     0
 49
0.5
 74
     0
 49
-3.0
 74
     0
  0
LTYPE
  5
26E
330
20C
100
AcDbSymbolTableRecord
100
AcDbLinetypeTableRecord
  2
CENTERX2
 70
     0
  3
Center (2x) ________  __  ________  __  _____
 72
    65
 73
     4
 40
4.0
 49
2.5
 74
     0
 49
-0.5
 74
     0
 49
0.5
 74
     0
 49
-0.5
 74
     0
  0
LTYPE
  5
26F
330
20C
100
AcDbSymbolTableRecord
100
AcDbLinetypeTableRecord
  2
DASHED
 70
     0
  3
Dashed __ __ __ __ __ __ __ __ __ __ __ __ __ _
 72
    65
 73
     2
 40
0.75
 49
0.5
 74
     0
 49
-0.25
 74
     0
  0
ENDTAB
  0
TABLE
  2
LAYER
  5
204
102
{ACAD_XDICTIONARY
360
205
102
}
330
0
100
AcDbSymbolTable
 70
    16
  0
LAYER
  5
6
102
{ACAD_XDICTIONARY
360
39B
102
}
330
204
100
AcDbSymbolTableRecord
100
AcDbLayerTableRecord
  2
0
 70
     0
 62
     7
  6
Continuous
370
    -3
390
7
347
A
348
0
1001
_LayerManage
1070
     0
1070
     0
1070
     0
  0
LAYER
  5
131
330
204
100
AcDbSymbolTableRecord
100
AcDbLayerTableRecord
  2
Defpoints
 70
     0
 62
     7
  6
Continuous
290
     0
370
    -3
390
7
347
A
348
0
1001
_LayerManage
1070
     0
1070
     0
1070
     0
  0
LAYER
  5
F
102
{ACAD_XDICTIONARY
360
39D
102
}
330
204
100
AcDbSymbolTableRecord
100
AcDbLayerTableRecord
  2
DOTE
 70
     0
 62
     1
  6
Continuous
370
    -3
390
7
347
A
348
0
1001
AcAecLayerStandard
1000

1000
此图层的直线和弧认为是平面轴线
1001
_LayerManage
1070
     0
1070
     0
1070
     0
  0
LAYER
  5
26
102
{ACAD_XDICTIONARY
360
39F
102
}
330
204
100
AcDbSymbolTableRecord
100
AcDbLayerTableRecord
  2
WINDOW
 70
     0
 62
     4
  6
Continuous
370
    -3
390
7
347
A
348
0
1001
AcAecLayerStandard
1000

1000
存放插入的门图块
1001
_LayerManage
1070
     0
1070
     0
1070
     0
  0
LAYER
  5
11E
102
{ACAD_XDICTIONARY
360
3A1
102
}
330
204
100
AcDbSymbolTableRecord
100
AcDbLayerTableRecord
  2
AXIS
 70
     0
 62
     3
  6
Continuous
370
    -3
390
7
347
A
348
0
1001
AcAecLayerStandard
1000

1000
存放轴号对象
1001
_LayerManage
1070
     0
1070
     0
1070
     0
  0
LAYER
  5
18
102
{ACAD_XDICTIONARY
360
3A3
102
}
330
204
100
AcDbSymbolTableRecord
100
AcDbLayerTableRecord
  2
WALL
 70
     0
 62
     9
  6
Continuous
370
    -3
390
7
347
A
348
0
1001
AcAecLayerStandard
1000

1000
存放各种材质的墙对象
  0
LAYER
  5
24
102
{ACAD_XDICTIONARY
360
3A5
102
}
330
204
100
AcDbSymbolTableRecord
100
AcDbLayerTableRecord
  2
SURFACE
 70
     0
 62
     6
  6
Continuous
370
    -3
390
7
347
A
348
0
1001
AcAecLayerStandard
1000

1000
粉刷层、保温层、详图饰面层
1001
_LayerManage
1070
     0
1070
     0
1070
     0
  0
LAYER
  5
111
102
{ACAD_XDICTIONARY
360
3A7
102
}
330
204
100
AcDbSymbolTableRecord
100
AcDbLayerTableRecord
  2
SPACE
 70
     0
 62
     7
  6
Continuous
370
    -3
390
7
347
A
348
0
1001
AcAecLayerStandard
1000

1000
房间名称、编号
1001
_LayerManage
1070
     0
1070
     0
1070
     0
  0
LAYER
  5
113
102
{ACAD_XDICTIONARY
360
3A9
102
}
330
204
100
AcDbSymbolTableRecord
100
AcDbLayerTableRecord
  2
SPACE_HATCH
 70
     0
 62
     8
  6
Continuous
370
    -3
390
7
347
A
348
0
1001
AcAecLayerStandard
1000

1000
房间面积填充图案
1001
_LayerManage
1070
     0
1070
     0
1070
     0
  0
LAYER
  5
120
102
{ACAD_XDICTIONARY
360
3AB
102
}
330
204
100
AcDbSymbolTableRecord
100
AcDbLayerTableRecord
  2
AXIS_TEXT
 70
     0
 62
     7
  6
Continuous
370
    -3
390
7
347
A
348
0
1001
AcAecLayerStandard
1000

1000
轴号对象的轴号文字
1001
_LayerManage
1070
     0
1070
     0
1070
     0
  0
LAYER
  5
23
102
{ACAD_XDICTIONARY
360
3AD
102
}
330
204
100
AcDbSymbolTableRecord
100
AcDbLayerTableRecord
  2
PUB_HATCH
 70
     0
 62
     8
  6
Continuous
370
    -3
390
7
347
A
348
0
1001
AcAecLayerStandard
1000

1000
填充图案
1001
_LayerManage
1070
     0
1070
     0
1070
     0
  0
LAYER
  5
63
102
{ACAD_XDICTIONARY
360
3AF
102
}
330
204
100
AcDbSymbolTableRecord
100
AcDbLayerTableRecord
  2
WINDOW_TEXT
 70
     0
 62
     7
  6
Continuous
370
    -3
390
7
347
A
348
0
1001
AcAecLayerStandard
1000

1000
门窗编号
1001
_LayerManage
1070
     0
1070
     0
1070
     0
  0
LAYER
  5
33
102
{ACAD_XDICTIONARY
360
3B1
102
}
330
204
100
AcDbSymbolTableRecord
100
AcDbLayerTableRecord
  2
3T_BAR
 70
     0
 62
     7
  6
Continuous
370
    -3
390
7
347
A
348
0
1001
_LayerManage
1070
     0
1070
     0
1070
     0
  0
LAYER
  5
40
102
{ACAD_XDICTIONARY
360
3B3
102
}
330
204
100
AcDbSymbolTableRecord
100
AcDbLayerTableRecord
  2
3T_GLASS
 70
     0
 62
     5
  6
Continuous
370
    -3
390
7
347
A
348
0
1001
_LayerManage
1070
     0
1070
     0
1070
     0
  0
LAYER
  5
7A
102
{ACAD_XDICTIONARY
360
3B5
102
}
330
204
100
AcDbSymbolTableRecord
100
AcDbLayerTableRecord
  2
3T_WOOD
 70
     0
 62
    21
  6
Continuous
370
    -3
390
7
347
A
348
0
1001
_LayerManage
1070
     0
1070
     0
1070
     0
  0
LAYER
  5
271
102
{ACAD_XDICTIONARY
360
3B7
102
}
330
204
100
AcDbSymbolTableRecord
100
AcDbLayerTableRecord
  2
PUB_WALL
 70
     0
 62
     9
  6
Continuous
370
    -3
390
7
347
A
348
0
  0
ENDTAB
  0
TABLE
  2
STYLE
  5
209
330
0
100
AcDbSymbolTable
 70
    11
  0
STYLE
  5
20A
330
209
100
AcDbSymbolTableRecord
100
AcDbTextStyleTableRecord
  2
Standard
 70
     0
 40
0.0
 41
1.0
 50
0.0
 71
     0
 42
350.0
  3
gbenor.shx
  4
gbcbig.shx
  0
STYLE
  5
112
330
209
100
AcDbSymbolTableRecord
100
AcDbTextStyleTableRecord
  2
_TCH_SPACE
 70
     0
 40
0.0
 41
1.0
 50
0.0
 71
     0
 42
350.0
  3
SIMPLEX
  4
GBCBIG
1001
_TCH
1040
0.85
1040
0.6
1070
     7
  0
STYLE
  5
62
330
209
100
AcDbSymbolTableRecord
100
AcDbTextStyleTableRecord
  2
_TCH_WINDOW
 70
     0
 40
0.0
 41
1.0
 50
0.0
 71
     0
 42
350.0
  3
SIMPLEX
  4
GBCBIG
1001
_TCH
1040
0.85
1040
0.6
1070
     7
  0
STYLE
  5
11F
330
209
100
AcDbSymbolTableRecord
100
AcDbTextStyleTableRecord
  2
_TCH_AXIS
 70
     0
 40
0.0
 41
1.0
 50
0.0
 71
     0
 42
350.0
  3
COMPLEX
  4
GBCBIG
1001
_TCH
1040
0.85
1040
0.6
1070
     7
  0
STYLE
  5
12F
330
209
100
AcDbSymbolTableRecord
100
AcDbTextStyleTableRecord
  2
_TCH_DIM_T3
 70
     0
 40
0.0
 41
0.71
 50
0.0
 71
     0
 42
350.0
  3
SIMPLEX
  4
GBCBIG
1001
_TCH
1040
0.85
1040
0.6
1070
     7
  0
STYLE
  5
25D
330
209
100
AcDbSymbolTableRecord
100
AcDbTextStyleTableRecord
  2
COMPLEX
 70
     0
 40
0.0
 41
1.0
 50
0.0
 71
     0
 42
0.6
  3
COMPLEX
  4

1001
AcadAnnotative
1000
AnnotativeData
1002
{
1070
     1
1070
     1
1002
}
  0
STYLE
  5
261
330
209
100
AcDbSymbolTableRecord
100
AcDbTextStyleTableRecord
  2
ASHADE
 70
     0
 40
0.2
 41
1.0
 50
0.0
 71
     0
 42
0.2
  3
txt.shx
  4
chineset.shx
  0
STYLE
  5
262
330
209
100
AcDbSymbolTableRecord
100
AcDbTextStyleTableRecord
  2
_TCH_DIM
 70
     0
 40
0.0
 41
1.0
 50
0.0
 71
     0
 42
350.0
  3
SIMPLEX
  4
GBCBIG
1001
_TCH
1040
0.85
1040
0.6
1070
     7
  0
STYLE
  5
263
330
209
100
AcDbSymbolTableRecord
100
AcDbTextStyleTableRecord
  2
_TCH_LABEL
 70
     0
 40
0.0
 41
1.0
 50
0.0
 71
     0
 42
350.0
  3
COMPLEX
  4
GBCBIG
1001
_TCH
1040
0.85
1040
0.6
1070
     7
  0
STYLE
  5
266
330
209
100
AcDbSymbolTableRecord
100
AcDbTextStyleTableRecord
  2
_TCH_DYN
 70
     0
 40
0.0
 41
1.0
 50
0.0
 71
     0
 42
350.0
  3

  4

1001
ACAD
1000
SimSun
1071
        0
  0
STYLE
  5
268
330
209
100
AcDbSymbolTableRecord
100
AcDbTextStyleTableRecord
  2
DIM_FONT
 70
     0
 40
0.0
 41
0.7
 50
0.0
 71
     0
 42
350.0
  3
SIMPLEX
  4
GBCBIG
1001
_TCH
1040
0.85
1040
0.6
1070
     7
  0
ENDTAB
  0
TABLE
  2
VIEW
  5
20F
330
0
100
AcDbSymbolTable
 70
     1
  0
ENDTAB
  0
TABLE
  2
UCS
  5
210
330
0
100
AcDbSymbolTable
 70
     0
  0
ENDTAB
  0
TABLE
  2
APPID
  5
216
330
0
100
AcDbSymbolTable
 70
     8
  0
APPID
  5
208
330
216
100
AcDbSymbolTableRecord
100
AcDbRegAppTableRecord
  2
ACAD
 70
     0
  0
APPID
  5
61
330
216
100
AcDbSymbolTableRecord
100
AcDbRegAppTableRecord
  2
_TCH
 70
     0
  0
APPID
  5
10
330
216
100
AcDbSymbolTableRecord
100
AcDbRegAppTableRecord
  2
AcAecLayerStandard
 70
     0
  0
APPID
  5
215
330
216
100
AcDbSymbolTableRecord
100
AcDbRegAppTableRecord
  2
ACAD_NAV_VCDISPLAY
 70
     0
  0
APPID
  5
D
330
216
100
AcDbSymbolTableRecord
100
AcDbRegAppTableRecord
  2
_LayerManage
 70
     0
  0
APPID
  5
25E
330
216
100
AcDbSymbolTableRecord
100
AcDbRegAppTableRecord
  2
AcadAnnotative
 70
     0
  0
APPID
  5
272
330
216
100
AcDbSymbolTableRecord
100
AcDbRegAppTableRecord
  2
WTHICK
 70
     0
  0
APPID
  5
369
330
216
100
AcDbSymbolTableRecord
100
AcDbRegAppTableRecord
  2
ACAD_DSTYLE_DIMEXT_LENGTH
 70
     0
  0
ENDTAB
  0
TABLE
  2
DIMSTYLE
  5
217
330
0
100
AcDbSymbolTable
 70
     2
100
AcDbDimStyleTable
 71
     2
340
135
340
218
  0
DIMSTYLE
105
218
330
217
100
AcDbSymbolTableRecord
100
AcDbDimStyleTableRecord
  2
STANDARD
 70
     0
 40
100.0
 41
1.0
 42
3.0
 43
0.0
 44
2.5
 73
     0
 74
     0
 77
     1
140
3.5
147
1.5
172
     1
174
     1
271
     0
272
     0
279
     2
340
20A
342
129
  0
DIMSTYLE
105
135
102
{ACAD_REACTORS
330
122
330
136
330
143
330
150
330
15D
330
16A
330
177
330
184
330
191
330
19E
330
1AB
330
1B8
330
1C5
330
1D2
330
1DF
330
1EC
102
}
330
217
100
AcDbSymbolTableRecord
100
AcDbDimStyleTableRecord
  2
_TCH_ARCH&&100
 70
     0
 41
100.0
 42
300.0
 43
0.0
 44
250.0
 49
100.0
 73
     0
 74
     0
 77
     1
 79
     2
140
297.5
147
126.25
172
     1
174
     1
178
     7
179
     2
271
     0
272
     0
279
     2
340
12F
342
129
  0
ENDTAB
  0
TABLE
  2
BLOCK_RECORD
  5
1
330
0
100
AcDbSymbolTable
 70
    26
  0
BLOCK_RECORD
  5
2
102
{ACAD_XDICTIONARY
360
3
102
}
330
1
100
AcDbSymbolTableRecord
100
AcDbBlockTableRecord
  2
*Model_Space
340
1FA
 70
     0
280
     1
281
     0
  0
BLOCK_RECORD
  5
1FC
330
1
100
AcDbSymbolTableRecord
100
AcDbBlockTableRecord
  2
*Paper_Space
340
1FF
 70
     0
280
     1
281
     0
  0
BLOCK_RECORD
  5
200
330
1
100
AcDbSymbolTableRecord
100
AcDbBlockTableRecord
  2
*Paper_Space0
340
203
 70
     0
280
     1
281
     0
  0
BLOCK_RECORD
  5
129
330
1
100
AcDbSymbolTableRecord
100
AcDbBlockTableRecord
  2
_ArchTick
340
0
102
{BLKREFS
331
128
331
12D
331
13C
331
13D
331
149
331
14A
331
156
331
157
331
163
331
164
331
170
331
171
331
17D
331
17E
331
18A
331
18B
331
197
331
198
331
1A4
331
1A5
331
1B1
331
1B2
331
1BE
331
1BF
331
1CB
331
1CC
331
1D8
331
1D9
331
1E5
331
1E6
331
1F2
331
1F3
102
}
 70
     0
280
     1
281
     0
  0
BLOCK_RECORD
  5
19
102
{ACAD_XDICTIONARY
360
1A
102
}
330
1
100
AcDbSymbolTableRecord
100
AcDbBlockTableRecord
  2
$LinePat$保温层
340
0
 70
     0
280
     1
281
     0
  0
BLOCK_RECORD
  5
DA
330
1
100
AcDbSymbolTableRecord
100
AcDbBlockTableRecord
  2
$DorLib2D$00000131
340
0
102
{BLKREFS
331
300
102
}
 70
     0
280
     1
281
     0
1001
_TCH
1040
1.0
  0
BLOCK_RECORD
  5
77
330
1
100
AcDbSymbolTableRecord
100
AcDbBlockTableRecord
  2
$TCHSYS$DOOR3D
340
0
 70
     0
280
     1
281
     0
1001
_TCH
1040
900.0
1040
2100.0
  0
BLOCK_RECORD
  5
EF
102
{ACAD_XDICTIONARY
360
F0
102
}
330
1
100
AcDbSymbolTableRecord
100
AcDbBlockTableRecord
  2
$DorLib2D$00000001
340
0
102
{BLKREFS
331
2AF
331
2B2
331
2C9
331
2D6
331
2DF
102
}
 70
     0
280
     1
281
     0
  0
BLOCK_RECORD
  5
27
330
1
100
AcDbSymbolTableRecord
100
AcDbBlockTableRecord
  2
$TCHSYS$WIN2D
340
0
102
{BLKREFS
331
309
331
30C
331
30F
331
312
331
315
331
318
331
31B
102
}
 70
     0
280
     1
281
     0
  0
BLOCK_RECORD
  5
30
330
1
100
AcDbSymbolTableRecord
100
AcDbBlockTableRecord
  2
$TCHSYS$WIN3D
340
0
 70
     0
280
     1
281
     0
1001
_TCH
1040
1200.0
1040
1800.0
  0
BLOCK_RECORD
  5
69
102
{ACAD_XDICTIONARY
360
6A
102
}
330
1
100
AcDbSymbolTableRecord
100
AcDbBlockTableRecord
  2
$DorLib2D$00000002
340
0
102
{BLKREFS
331
31E
102
}
 70
     0
280
     1
281
     0
  0
BLOCK_RECORD
  5
123
330
1
100
AcDbSymbolTableRecord
100
AcDbBlockTableRecord
  2
*D9
340
0
 70
     0
280
     1
281
     0
  0
BLOCK_RECORD
  5
137
330
1
100
AcDbSymbolTableRecord
100
AcDbBlockTableRecord
  2
*D10
340
0
 70
     0
280
     1
281
     0
  0
BLOCK_RECORD
  5
144
330
1
100
AcDbSymbolTableRecord
100
AcDbBlockTableRecord
  2
*D11
340
0
 70
     0
280
     1
281
     0
  0
BLOCK_RECORD
  5
151
330
1
100
AcDbSymbolTableRecord
100
AcDbBlockTableRecord
  2
*D12
340
0
 70
     0
280
     1
281
     0
  0
BLOCK_RECORD
  5
15E
330
1
100
AcDbSymbolTableRecord
100
AcDbBlockTableRecord
  2
*D13
340
0
 70
     0
280
     1
281
     0
  0
BLOCK_RECORD
  5
16B
330
1
100
AcDbSymbolTableRecord
100
AcDbBlockTableRecord
  2
*D14
340
0
 70
     0
280
     1
281
     0
  0
BLOCK_RECORD
  5
178
330
1
100
AcDbSymbolTableRecord
100
AcDbBlockTableRecord
  2
*D15
340
0
 70
     0
280
     1
281
     0
  0
BLOCK_RECORD
  5
185
330
1
100
AcDbSymbolTableRecord
100
AcDbBlockTableRecord
  2
*D16
340
0
 70
     0
280
     1
281
     0
  0
BLOCK_RECORD
  5
192
330
1
100
AcDbSymbolTableRecord
100
AcDbBlockTableRecord
  2
*D17
340
0
 70
     0
280
     1
281
     0
  0
BLOCK_RECORD
  5
19F
330
1
100
AcDbSymbolTableRecord
100
AcDbBlockTableRecord
  2
*D18
340
0
 70
     0
280
     1
281
     0
  0
BLOCK_RECORD
  5
1AC
330
1
100
AcDbSymbolTableRecord
100
AcDbBlockTableRecord
  2
*D19
340
0
 70
     0
280
     1
281
     0
  0
BLOCK_RECORD
  5
1B9
330
1
100
AcDbSymbolTableRecord
100
AcDbBlockTableRecord
  2
*D20
340
0
 70
     0
280
     1
281
     0
  0
BLOCK_RECORD
  5
1C6
330
1
100
AcDbSymbolTableRecord
100
AcDbBlockTableRecord
  2
*D21
340
0
 70
     0
280
     1
281
     0
  0
BLOCK_RECORD
  5
1D3
330
1
100
AcDbSymbolTableRecord
100
AcDbBlockTableRecord
  2
*D22
340
0
 70
     0
280
     1
281
     0
  0
BLOCK_RECORD
  5
1E0
330
1
100
AcDbSymbolTableRecord
100
AcDbBlockTableRecord
  2
*D23
340
0
 70
     0
280
     1
281
     0
  0
BLOCK_RECORD
  5
1ED
330
1
100
AcDbSymbolTableRecord
100
AcDbBlockTableRecord
  2
*D24
340
0
 70
     0
280
     1
281
     0
  0
BLOCK_RECORD
  5
259
330
1
100
AcDbSymbolTableRecord
100
AcDbBlockTableRecord
  2
_AXISO
340
0
102
{BLKREFS
331
35A
331
35E
331
322
331
326
331
32A
331
32E
331
332
331
336
331
33A
331
33E
331
342
331
346
331
34A
331
34E
331
352
331
356
102
}
 70
     0
280
     1
281
     0
  0
ENDTAB
  0
ENDSEC
  0
SECTION
  2
BLOCKS
  0
BLOCK
  5
5
330
2
100
AcDbEntity
  8
0
100
AcDbBlockBegin
  2
*Model_Space
 70
     0
 10
0.0
 20
0.0
 30
0.0
  3
*Model_Space
  1

  0
ENDBLK
  5
1F9
330
2
100
AcDbEntity
  8
0
100
AcDbBlockEnd
  0
BLOCK
  5
1FD
330
1FC
100
AcDbEntity
 67
     1
  8
0
100
AcDbBlockBegin
  2
*Paper_Space
 70
     0
 10
0.0
 20
0.0
 30
0.0
  3
*Paper_Space
  1

  0
ENDBLK
  5
1FE
330
1FC
100
AcDbEntity
 67
     1
  8
0
100
AcDbBlockEnd
  0
BLOCK
  5
201
330
200
100
AcDbEntity
 67
     1
  8
0
100
AcDbBlockBegin
  2
*Paper_Space0
 70
     0
 10
0.0
 20
0.0
 30
0.0
  3
*Paper_Space0
  1

  0
ENDBLK
  5
202
330
200
100
AcDbEntity
 67
     1
  8
0
100
AcDbBlockEnd
  0
BLOCK
  5
12A
330
129
100
AcDbEntity
  8
0
100
AcDbBlockBegin
  2
_ArchTick
 70
     0
 10
0.0
 20
0.0
 30
0.0
  3
_ArchTick
  1

  0
LWPOLYLINE
  5
12B
330
129
100
AcDbEntity
  8
0
  6
ByBlock
 62
     0
100
AcDbPolyline
 90
        2
 70
     0
 43
0.4
 10
-0.5
 20
-0.5
 10
0.5
 20
0.5
  0
ENDBLK
  5
12C
330
129
100
AcDbEntity
  8
0
100
AcDbBlockEnd
  0
BLOCK
  5
1C
330
19
100
AcDbEntity
  8
0
100
AcDbBlockBegin
  2
$LinePat$保温层
 70
     0
 10
0.0
 20
0.0
 30
0.0
  3
$LinePat$保温层
  1

  0
LINE
  5
1D
330
19
100
AcDbEntity
  8
0
 62
     0
100
AcDbLine
 10
24.0
 20
-24.0
 30
0.0
 11
24.0
 21
-56.0
 31
0.0
  0
LINE
  5
1E
330
19
100
AcDbEntity
  8
0
 62
     0
100
AcDbLine
 10
72.0
 20
-56.0
 30
0.0
 11
72.0
 21
-24.0
 31
0.0
  0
ARC
  5
1F
330
19
100
AcDbEntity
  8
0
 62
     0
100
AcDbCircle
 10
0.0
 20
-24.0
 30
0.0
 40
23.99999999999855
100
AcDbArc
 50
0.0
 51
90.0
  0
ARC
  5
20
330
19
100
AcDbEntity
  8
0
 62
     0
100
AcDbCircle
 10
96.0
 20
-24.0
 30
0.0
 40
24.00000000000037
100
AcDbArc
 50
90.0
 51
180.0
  0
ARC
  5
21
330
19
100
AcDbEntity
  8
0
 62
     0
100
AcDbCircle
 10
48.0
 20
-56.0
 30
0.0
 40
24.00000000000037
100
AcDbArc
 50
180.0
 51
0.0
  0
ENDBLK
  5
22
330
19
100
AcDbEntity
  8
0
100
AcDbBlockEnd
  0
BLOCK
  5
DB
330
DA
100
AcDbEntity
  8
0
100
AcDbBlockBegin
  2
$DorLib2D$00000131
 70
     0
 10
0.0
 20
0.0
 30
0.0
  3
$DorLib2D$00000131
  1

  0
LINE
  5
DC
330
DA
100
AcDbEntity
  8
0
  6
Continuous
 62
     0
100
AcDbLine
 10
-0.23
 20
-0.2
 30
0.0
 11
-0.23
 21
-0.13
 31
0.0
  0
LINE
  5
DD
330
DA
100
AcDbEntity
  8
0
  6
Continuous
 62
     0
100
AcDbLine
 10
-0.15
 20
-0.13
 30
0.0
 11
-0.23
 21
-0.2
 31
0.0
  0
LINE
  5
DE
330
DA
100
AcDbEntity
  8
0
  6
Continuous
 62
     0
100
AcDbLine
 10
-0.35
 20
-0.13
 30
0.0
 11
-0.15
 21
-0.13
 31
0.0
  0
LINE
  5
DF
330
DA
100
AcDbEntity
  8
0
  6
Continuous
 62
     0
100
AcDbLine
 10
0.23
 20
0.2
 30
0.0
 11
0.23
 21
0.13
 31
0.0
  0
LINE
  5
E0
330
DA
100
AcDbEntity
  8
0
  6
Continuous
 62
     0
100
AcDbLine
 10
0.15
 20
0.13
 30
0.0
 11
0.23
 21
0.2
 31
0.0
  0
LINE
  5
E1
330
DA
100
AcDbEntity
  8
0
  6
Continuous
 62
     0
100
AcDbLine
 10
0.35
 20
0.13
 30
0.0
 11
0.15
 21
0.13
 31
0.0
  0
LINE
  5
E2
330
DA
100
AcDbEntity
  8
0
  6
Continuous
 62
     0
100
AcDbLine
 10
0.5
 20
0.0
 30
0.0
 11
0.5
 21
-0.13
 31
0.0
  0
LINE
  5
E3
330
DA
100
AcDbEntity
  8
0
  6
Continuous
 62
     0
100
AcDbLine
 10
-0.02
 20
0.0
 30
0.0
 11
0.5
 21
0.0
 31
0.0
  0
LINE
  5
E4
330
DA
100
AcDbEntity
  8
0
  6
Continuous
 62
     0
100
AcDbLine
 10
-0.02
 20
-0.13
 30
0.0
 11
-0.02
 21
0.0
 31
0.0
  0
LINE
  5
E5
330
DA
100
AcDbEntity
  8
0
  6
Continuous
 62
     0
100
AcDbLine
 10
0.5
 20
-0.13
 30
0.0
 11
-0.02
 21
-0.13
 31
0.0
  0
LINE
  5
E6
330
DA
100
AcDbEntity
  8
0
  6
Continuous
 62
     0
100
AcDbLine
 10
-0.5
 20
0.13
 30
0.0
 11
-0.5
 21
0.0
 31
0.0
  0
LINE
  5
E7
330
DA
100
AcDbEntity
  8
0
  6
Continuous
 62
     0
100
AcDbLine
 10
0.02
 20
0.13
 30
0.0
 11
-0.5
 21
0.13
 31
0.0
  0
LINE
  5
E8
330
DA
100
AcDbEntity
  8
0
  6
Continuous
 62
     0
100
AcDbLine
 10
0.02
 20
0.0
 30
0.0
 11
0.02
 21
0.13
 31
0.0
  0
LINE
  5
E9
330
DA
100
AcDbEntity
  8
0
  6
Continuous
 62
     0
100
AcDbLine
 10
-0.5
 20
0.0
 30
0.0
 11
0.02
 21
0.0
 31
0.0
  0
ENDBLK
  5
EA
330
DA
100
AcDbEntity
  8
0
100
AcDbBlockEnd
  0
BLOCK
  5
78
330
77
100
AcDbEntity
  8
0
100
AcDbBlockBegin
  2
$TCHSYS$DOOR3D
 70
     0
 10
0.0
 20
0.0
 30
0.0
  3
$TCHSYS$DOOR3D
  1

  0
3DFACE
  5
79
330
77
100
AcDbEntity
  8
3T_WOOD
100
AcDbFace
 10
409.41
 20
-10.0
 30
2055.56
 11
-411.02
 21
-10.0
 31
2055.56
 12
-411.02
 22
-10.0
 32
1.21
 13
409.41
 23
-10.0
 33
1.21
  0
3DFACE
  5
7B
330
77
100
AcDbEntity
  8
3T_WOOD
100
AcDbFace
 10
-450.0
 20
50.0
 30
2100.0
 11
409.09
 21
50.0
 31
2055.58
 12
-409.09
 22
50.0
 32
2055.58
 13
-409.09
 23
50.0
 33
2055.58
 70
    13
  0
3DFACE
  5
7C
330
77
100
AcDbEntity
  8
3T_WOOD
100
AcDbFace
 10
409.09
 20
50.0
 30
2055.58
 11
-450.0
 21
50.0
 31
2100.0
 12
450.0
 22
50.0
 32
2100.0
 13
450.0
 23
50.0
 33
2100.0
 70
    13
  0
3DFACE
  5
7D
330
77
100
AcDbEntity
  8
3T_WOOD
100
AcDbFace
 10
-450.0
 20
-50.0
 30
2100.0
 11
-409.09
 21
-50.0
 31
2055.58
 12
409.09
 22
-50.0
 32
2055.58
 13
409.09
 23
-50.0
 33
2055.58
 70
    13
  0
3DFACE
  5
7E
330
77
100
AcDbEntity
  8
3T_WOOD
100
AcDbFace
 10
409.09
 20
-50.0
 30
2055.58
 11
450.0
 21
-50.0
 31
2100.0
 12
-450.0
 22
-50.0
 32
2100.0
 13
-450.0
 23
-50.0
 33
2100.0
 70
    13
  0
3DFACE
  5
7F
330
77
100
AcDbEntity
  8
3T_WOOD
100
AcDbFace
 10
-409.09
 20
-50.0
 30
2055.58
 11
-409.09
 21
50.0
 31
2055.58
 12
409.09
 22
50.0
 32
2055.58
 13
409.09
 23
-50.0
 33
2055.58
  0
3DFACE
  5
80
330
77
100
AcDbEntity
  8
3T_WOOD
100
AcDbFace
 10
-450.0
 20
50.0
 30
0.0
 11
-409.09
 21
50.0
 31
2055.58
 12
-409.09
 22
50.0
 32
0.0
 13
-409.09
 23
50.0
 33
0.0
 70
     1
  0
3DFACE
  5
81
330
77
100
AcDbEntity
  8
3T_WOOD
100
AcDbFace
 10
409.09
 20
50.0
 30
2055.58
 11
450.0
 21
50.0
 31
0.0
 12
409.09
 22
50.0
 32
0.0
 13
409.09
 23
50.0
 33
0.0
 70
     1
  0
3DFACE
  5
82
330
77
100
AcDbEntity
  8
3T_WOOD
100
AcDbFace
 10
409.09
 20
50.0
 30
2055.58
 11
450.0
 21
50.0
 31
2100.0
 12
450.0
 22
50.0
 32
0.0
 13
450.0
 23
50.0
 33
0.0
 70
    13
  0
3DFACE
  5
83
330
77
100
AcDbEntity
  8
3T_WOOD
100
AcDbFace
 10
-450.0
 20
50.0
 30
2100.0
 11
-409.09
 21
50.0
 31
2055.58
 12
-450.0
 22
50.0
 32
0.0
 13
-450.0
 23
50.0
 33
0.0
 70
     3
  0
3DFACE
  5
84
330
77
100
AcDbEntity
  8
3T_WOOD
100
AcDbFace
 10
-450.0
 20
-50.0
 30
0.0
 11
-409.09
 21
-50.0
 31
0.0
 12
-409.09
 22
-50.0
 32
2055.58
 13
-409.09
 23
-50.0
 33
2055.58
 70
    12
  0
3DFACE
  5
85
330
77
100
AcDbEntity
  8
3T_WOOD
100
AcDbFace
 10
409.09
 20
-50.0
 30
2055.58
 11
409.09
 21
-50.0
 31
0.0
 12
450.0
 22
-50.0
 32
0.0
 13
450.0
 23
-50.0
 33
0.0
 70
    12
  0
3DFACE
  5
86
330
77
100
AcDbEntity
  8
3T_WOOD
100
AcDbFace
 10
409.09
 20
-50.0
 30
2055.58
 11
450.0
 21
-50.0
 31
0.0
 12
450.0
 22
-50.0
 32
2100.0
 13
450.0
 23
-50.0
 33
2100.0
 70
    13
  0
3DFACE
  5
87
330
77
100
AcDbEntity
  8
3T_WOOD
100
AcDbFace
 10
-450.0
 20
-50.0
 30
2100.0
 11
-450.0
 21
-50.0
 31
0.0
 12
-409.09
 22
-50.0
 32
2055.58
 13
-409.09
 23
-50.0
 33
2055.58
 70
    14
  0
3DFACE
  5
88
330
77
100
AcDbEntity
  8
3T_WOOD
100
AcDbFace
 10
450.0
 20
-50.0
 30
0.0
 11
450.0
 21
50.0
 31
0.0
 12
450.0
 22
50.0
 32
2100.0
 13
450.0
 23
50.0
 33
2100.0
 70
    13
  0
3DFACE
  5
89
330
77
100
AcDbEntity
  8
3T_WOOD
100
AcDbFace
 10
450.0
 20
-50.0
 30
2100.0
 11
450.0
 21
-50.0
 31
0.0
 12
450.0
 22
50.0
 32
2100.0
 13
450.0
 23
50.0
 33
2100.0
 70
    14
  0
3DFACE
  5
8A
330
77
100
AcDbEntity
  8
3T_WOOD
100
AcDbFace
 10
-450.0
 20
-50.0
 30
0.0
 11
-450.0
 21
-50.0
 31
2100.0
 12
-450.0
 22
50.0
 32
2100.0
 13
-450.0
 23
50.0
 33
2100.0
 70
    14
  0
3DFACE
  5
8B
330
77
100
AcDbEntity
  8
3T_WOOD
100
AcDbFace
 10
-450.0
 20
-50.0
 30
0.0
 11
-450.0
 21
50.0
 31
2100.0
 12
-450.0
 22
50.0
 32
0.0
 13
-450.0
 23
50.0
 33
0.0
 70
    13
  0
3DFACE
  5
8C
330
77
100
AcDbEntity
  8
3T_WOOD
100
AcDbFace
 10
409.09
 20
-50.0
 30
0.0
 11
409.09
 21
-50.0
 31
2055.58
 12
409.09
 22
50.0
 32
2055.58
 13
409.09
 23
50.0
 33
0.0
  0
3DFACE
  5
8D
330
77
100
AcDbEntity
  8
3T_WOOD
100
AcDbFace
 10
-409.09
 20
50.0
 30
0.0
 11
-409.09
 21
50.0
 31
2055.58
 12
-409.09
 22
-50.0
 32
2055.58
 13
-409.09
 23
-50.0
 33
0.0
  0
3DFACE
  5
8E
330
77
100
AcDbEntity
  8
3T_BAR
100
AcDbFace
 10
-330.18
 20
80.44
 30
907.28
 11
-341.34
 21
80.44
 31
920.52
 12
-341.34
 22
-63.56
 32
920.52
 13
-330.18
 23
-63.56
 33
907.28
  0
3DFACE
  5
8F
330
77
100
AcDbEntity
  8
3T_BAR
100
AcDbFace
 10
-341.34
 20
80.44
 30
920.52
 11
-352.49
 21
80.44
 31
907.28
 12
-352.49
 22
-63.56
 32
907.28
 13
-341.34
 23
-63.56
 33
920.52
  0
3DFACE
  5
90
330
77
100
AcDbEntity
  8
3T_BAR
100
AcDbFace
 10
-352.49
 20
80.44
 30
907.28
 11
-341.34
 21
80.44
 31
894.03
 12
-341.34
 22
-63.56
 32
894.03
 13
-352.49
 23
-63.56
 33
907.28
  0
3DFACE
  5
91
330
77
100
AcDbEntity
  8
3T_BAR
100
AcDbFace
 10
-341.34
 20
80.44
 30
894.03
 11
-330.18
 21
80.44
 31
907.28
 12
-330.18
 22
-63.56
 32
907.28
 13
-341.34
 23
-63.56
 33
894.03
  0
3DFACE
  5
92
330
77
100
AcDbEntity
  8
3T_BAR
100
AcDbFace
 10
-351.72
 20
-63.56
 30
907.27
 11
-351.72
 21
-87.56
 31
907.27
 12
-350.12
 22
-87.56
 32
913.54
 13
-351.72
 23
-63.56
 33
907.27
 70
     4
  0
3DFACE
  5
93
330
77
100
AcDbEntity
  8
3T_BAR
100
AcDbFace
 10
-351.72
 20
-63.56
 30
907.27
 11
-350.12
 21
-87.56
 31
913.54
 12
-350.12
 22
-63.56
 32
913.54
 13
-351.72
 23
-63.56
 33
907.27
 70
     3
  0
3DFACE
  5
94
330
77
100
AcDbEntity
  8
3T_BAR
100
AcDbFace
 10
-350.12
 20
-63.56
 30
913.54
 11
-350.12
 21
-87.56
 31
913.54
 12
-346.14
 22
-87.56
 32
918.08
 13
-350.12
 23
-63.56
 33
913.54
 70
     5
  0
3DFACE
  5
95
330
77
100
AcDbEntity
  8
3T_BAR
100
AcDbFace
 10
-350.12
 20
-63.56
 30
913.54
 11
-346.14
 21
-87.56
 31
918.08
 12
-346.14
 22
-63.56
 32
918.08
 13
-350.12
 23
-63.56
 33
913.54
 70
     3
  0
3DFACE
  5
96
330
77
100
AcDbEntity
  8
3T_BAR
100
AcDbFace
 10
-346.14
 20
-87.56
 30
918.08
 11
-340.81
 21
-87.56
 31
919.73
 12
-340.81
 22
-63.56
 32
919.73
 13
-346.14
 23
-87.56
 33
918.08
 70
     6
  0
3DFACE
  5
97
330
77
100
AcDbEntity
  8
3T_BAR
100
AcDbFace
 10
-346.14
 20
-87.56
 30
918.08
 11
-340.81
 21
-63.56
 31
919.73
 12
-346.14
 22
-63.56
 32
918.08
 13
-346.14
 23
-87.56
 33
918.08
 70
     5
  0
3DFACE
  5
98
330
77
100
AcDbEntity
  8
3T_BAR
100
AcDbFace
 10
-340.81
 20
-87.56
 30
919.73
 11
-335.47
 21
-87.56
 31
918.08
 12
-335.47
 22
-63.56
 32
918.08
 13
-340.81
 23
-87.56
 33
919.73
 70
     6
  0
3DFACE
  5
99
330
77
100
AcDbEntity
  8
3T_BAR
100
AcDbFace
 10
-340.81
 20
-87.56
 30
919.73
 11
-335.47
 21
-63.56
 31
918.08
 12
-340.81
 22
-63.56
 32
919.73
 13
-340.81
 23
-87.56
 33
919.73
 70
     5
  0
3DFACE
  5
9A
330
77
100
AcDbEntity
  8
3T_BAR
100
AcDbFace
 10
-335.47
 20
-63.56
 30
918.08
 11
-335.47
 21
-87.56
 31
918.08
 12
-331.49
 22
-87.56
 32
913.54
 13
-335.47
 23
-63.56
 33
918.08
 70
     5
  0
3DFACE
  5
9B
330
77
100
AcDbEntity
  8
3T_BAR
100
AcDbFace
 10
-335.47
 20
-63.56
 30
918.08
 11
-331.49
 21
-87.56
 31
913.54
 12
-331.49
 22
-63.56
 32
913.54
 13
-335.47
 23
-63.56
 33
918.08
 70
     3
  0
3DFACE
  5
9C
330
77
100
AcDbEntity
  8
3T_BAR
100
AcDbFace
 10
-331.49
 20
-63.56
 30
913.54
 11
-331.49
 21
-87.56
 31
913.54
 12
-329.89
 22
-87.56
 32
907.27
 13
-331.49
 23
-63.56
 33
913.54
 70
     5
  0
3DFACE
  5
9D
330
77
100
AcDbEntity
  8
3T_BAR
100
AcDbFace
 10
-331.49
 20
-63.56
 30
913.54
 11
-329.89
 21
-87.56
 31
907.27
 12
-329.89
 22
-63.56
 32
907.27
 13
-331.49
 23
-63.56
 33
913.54
 70
     1
  0
3DFACE
  5
9E
330
77
100
AcDbEntity
  8
3T_BAR
100
AcDbFace
 10
-329.89
 20
-87.56
 30
907.27
 11
-333.71
 21
-87.56
 31
812.63
 12
-333.71
 22
-63.56
 32
812.63
 13
-329.89
 23
-87.56
 33
907.27
 70
     4
  0
3DFACE
  5
9F
330
77
100
AcDbEntity
  8
3T_BAR
100
AcDbFace
 10
-329.89
 20
-87.56
 30
907.27
 11
-333.71
 21
-63.56
 31
812.63
 12
-329.89
 22
-63.56
 32
907.27
 13
-329.89
 23
-87.56
 33
907.27
 70
     1
  0
3DFACE
  5
A0
330
77
100
AcDbEntity
  8
3T_BAR
100
AcDbFace
 10
-333.71
 20
-63.56
 30
812.63
 11
-333.71
 21
-87.56
 31
812.63
 12
-348.45
 22
-87.56
 32
812.63
 13
-333.71
 23
-63.56
 33
812.63
 70
     4
  0
3DFACE
  5
A1
330
77
100
AcDbEntity
  8
3T_BAR
100
AcDbFace
 10
-333.71
 20
-63.56
 30
812.63
 11
-348.45
 21
-87.56
 31
812.63
 12
-348.45
 22
-63.56
 32
812.63
 13
-333.71
 23
-63.56
 33
812.63
 70
     1
  0
3DFACE
  5
A2
330
77
100
AcDbEntity
  8
3T_BAR
100
AcDbFace
 10
-348.45
 20
-63.56
 30
812.63
 11
-348.45
 21
-87.56
 31
812.63
 12
-351.72
 22
-87.56
 32
907.27
 13
-348.45
 23
-63.56
 33
812.63
 70
     4
  0
3DFACE
  5
A3
330
77
100
AcDbEntity
  8
3T_BAR
100
AcDbFace
 10
-348.45
 20
-63.56
 30
812.63
 11
-351.72
 21
-87.56
 31
907.27
 12
-351.72
 22
-63.56
 32
907.27
 13
-348.45
 23
-63.56
 33
812.63
 70
     1
  0
3DFACE
  5
A4
330
77
100
AcDbEntity
  8
3T_BAR
100
AcDbFace
 10
-348.45
 20
-63.56
 30
812.63
 11
-351.72
 21
-63.56
 31
907.27
 12
-346.14
 22
-63.56
 32
918.08
 13
-348.45
 23
-63.56
 33
812.63
 70
     6
  0
3DFACE
  5
A5
330
77
100
AcDbEntity
  8
3T_BAR
100
AcDbFace
 10
-348.45
 20
-63.56
 30
812.63
 11
-346.14
 21
-63.56
 31
918.08
 12
-340.81
 22
-63.56
 32
919.73
 13
-348.45
 23
-63.56
 33
812.63
 70
     5
  0
3DFACE
  5
A6
330
77
100
AcDbEntity
  8
3T_BAR
100
AcDbFace
 10
-348.45
 20
-63.56
 30
812.63
 11
-340.81
 21
-63.56
 31
919.73
 12
-333.71
 22
-63.56
 32
812.63
 13
-348.45
 23
-63.56
 33
812.63
 70
     3
  0
3DFACE
  5
A7
330
77
100
AcDbEntity
  8
3T_BAR
100
AcDbFace
 10
-351.72
 20
-63.56
 30
907.27
 11
-350.12
 21
-63.56
 31
913.54
 12
-346.14
 22
-63.56
 32
918.08
 13
-351.72
 23
-63.56
 33
907.27
 70
     4
  0
3DFACE
  5
A8
330
77
100
AcDbEntity
  8
3T_BAR
100
AcDbFace
 10
-340.81
 20
-63.56
 30
919.73
 11
-335.47
 21
-63.56
 31
918.08
 12
-333.71
 22
-63.56
 32
812.63
 13
-340.81
 23
-63.56
 33
919.73
 70
     6
  0
3DFACE
  5
A9
330
77
100
AcDbEntity
  8
3T_BAR
100
AcDbFace
 10
-335.47
 20
-63.56
 30
918.08
 11
-331.49
 21
-63.56
 31
913.54
 12
-329.89
 22
-63.56
 32
907.27
 13
-335.47
 23
-63.56
 33
918.08
 70
     4
  0
3DFACE
  5
AA
330
77
100
AcDbEntity
  8
3T_BAR
100
AcDbFace
 10
-335.47
 20
-63.56
 30
918.08
 11
-329.89
 21
-63.56
 31
907.27
 12
-333.71
 22
-63.56
 32
812.63
 13
-335.47
 23
-63.56
 33
918.08
 70
     5
  0
3DFACE
  5
AB
330
77
100
AcDbEntity
  8
3T_BAR
100
AcDbFace
 10
-329.89
 20
-87.56
 30
907.27
 11
-331.49
 21
-87.56
 31
913.54
 12
-335.47
 22
-87.56
 32
918.08
 13
-329.89
 23
-87.56
 33
907.27
 70
     4
  0
3DFACE
  5
AC
330
77
100
AcDbEntity
  8
3T_BAR
100
AcDbFace
 10
-329.89
 20
-87.56
 30
907.27
 11
-335.47
 21
-87.56
 31
918.08
 12
-333.71
 22
-87.56
 32
812.63
 13
-329.89
 23
-87.56
 33
907.27
 70
     3
  0
3DFACE
  5
AD
330
77
100
AcDbEntity
  8
3T_BAR
100
AcDbFace
 10
-333.71
 20
-87.56
 30
812.63
 11
-335.47
 21
-87.56
 31
918.08
 12
-340.81
 22
-87.56
 32
919.73
 13
-333.71
 23
-87.56
 33
812.63
 70
     5
  0
3DFACE
  5
AE
330
77
100
AcDbEntity
  8
3T_BAR
100
AcDbFace
 10
-333.71
 20
-87.56
 30
812.63
 11
-340.81
 21
-87.56
 31
919.73
 12
-348.45
 22
-87.56
 32
812.63
 13
-333.71
 23
-87.56
 33
812.63
 70
     3
  0
3DFACE
  5
AF
330
77
100
AcDbEntity
  8
3T_BAR
100
AcDbFace
 10
-340.81
 20
-87.56
 30
919.73
 11
-346.14
 21
-87.56
 31
918.08
 12
-348.45
 22
-87.56
 32
812.63
 13
-340.81
 23
-87.56
 33
919.73
 70
     6
  0
3DFACE
  5
B0
330
77
100
AcDbEntity
  8
3T_BAR
100
AcDbFace
 10
-346.14
 20
-87.56
 30
918.08
 11
-350.12
 21
-87.56
 31
913.54
 12
-351.72
 22
-87.56
 32
907.27
 13
-346.14
 23
-87.56
 33
918.08
 70
     4
  0
3DFACE
  5
B1
330
77
100
AcDbEntity
  8
3T_BAR
100
AcDbFace
 10
-346.14
 20
-87.56
 30
918.08
 11
-351.72
 21
-87.56
 31
907.27
 12
-348.45
 22
-87.56
 32
812.63
 13
-346.14
 23
-87.56
 33
918.08
 70
     5
  0
3DFACE
  5
B2
330
77
100
AcDbEntity
  8
3T_BAR
100
AcDbFace
 10
-351.72
 20
80.44
 30
907.27
 11
-351.72
 21
56.44
 31
907.27
 12
-350.12
 22
56.44
 32
913.54
 13
-351.72
 23
80.44
 33
907.27
 70
     4
  0
3DFACE
  5
B3
330
77
100
AcDbEntity
  8
3T_BAR
100
AcDbFace
 10
-351.72
 20
80.44
 30
907.27
 11
-350.12
 21
56.44
 31
913.54
 12
-350.12
 22
80.44
 32
913.54
 13
-351.72
 23
80.44
 33
907.27
 70
     3
  0
3DFACE
  5
B4
330
77
100
AcDbEntity
  8
3T_BAR
100
AcDbFace
 10
-350.12
 20
80.44
 30
913.54
 11
-350.12
 21
56.44
 31
913.54
 12
-346.14
 22
56.44
 32
918.08
 13
-350.12
 23
80.44
 33
913.54
 70
     5
  0
3DFACE
  5
B5
330
77
100
AcDbEntity
  8
3T_BAR
100
AcDbFace
 10
-350.12
 20
80.44
 30
913.54
 11
-346.14
 21
56.44
 31
918.08
 12
-346.14
 22
80.44
 32
918.08
 13
-350.12
 23
80.44
 33
913.54
 70
     3
  0
3DFACE
  5
B6
330
77
100
AcDbEntity
  8
3T_BAR
100
AcDbFace
 10
-346.14
 20
56.44
 30
918.08
 11
-340.81
 21
56.44
 31
919.73
 12
-340.81
 22
80.44
 32
919.73
 13
-346.14
 23
56.44
 33
918.08
 70
     6
  0
3DFACE
  5
B7
330
77
100
AcDbEntity
  8
3T_BAR
100
AcDbFace
 10
-346.14
 20
56.44
 30
918.08
 11
-340.81
 21
80.44
 31
919.73
 12
-346.14
 22
80.44
 32
918.08
 13
-346.14
 23
56.44
 33
918.08
 70
     5
  0
3DFACE
  5
B8
330
77
100
AcDbEntity
  8
3T_BAR
100
AcDbFace
 10
-340.81
 20
56.44
 30
919.73
 11
-335.47
 21
56.44
 31
918.08
 12
-335.47
 22
80.44
 32
918.08
 13
-340.81
 23
56.44
 33
919.73
 70
     6
  0
3DFACE
  5
B9
330
77
100
AcDbEntity
  8
3T_BAR
100
AcDbFace
 10
-340.81
 20
56.44
 30
919.73
 11
-335.47
 21
80.44
 31
918.08
 12
-340.81
 22
80.44
 32
919.73
 13
-340.81
 23
56.44
 33
919.73
 70
     5
  0
3DFACE
  5
BA
330
77
100
AcDbEntity
  8
3T_BAR
100
AcDbFace
 10
-335.47
 20
80.44
 30
918.08
 11
-335.47
 21
56.44
 31
918.08
 12
-331.49
 22
56.44
 32
913.54
 13
-335.47
 23
80.44
 33
918.08
 70
     5
  0
3DFACE
  5
BB
330
77
100
AcDbEntity
  8
3T_BAR
100
AcDbFace
 10
-335.47
 20
80.44
 30
918.08
 11
-331.49
 21
56.44
 31
913.54
 12
-331.49
 22
80.44
 32
913.54
 13
-335.47
 23
80.44
 33
918.08
 70
     3
  0
3DFACE
  5
BC
330
77
100
AcDbEntity
  8
3T_BAR
100
AcDbFace
 10
-331.49
 20
80.44
 30
913.54
 11
-331.49
 21
56.44
 31
913.54
 12
-329.89
 22
56.44
 32
907.27
 13
-331.49
 23
80.44
 33
913.54
 70
     5
  0
3DFACE
  5
BD
330
77
100
AcDbEntity
  8
3T_BAR
100
AcDbFace
 10
-331.49
 20
80.44
 30
913.54
 11
-329.89
 21
56.44
 31
907.27
 12
-329.89
 22
80.44
 32
907.27
 13
-331.49
 23
80.44
 33
913.54
 70
     1
  0
3DFACE
  5
BE
330
77
100
AcDbEntity
  8
3T_BAR
100
AcDbFace
 10
-329.89
 20
56.44
 30
907.27
 11
-333.71
 21
56.44
 31
812.63
 12
-333.71
 22
80.44
 32
812.63
 13
-329.89
 23
56.44
 33
907.27
 70
     4
  0
3DFACE
  5
BF
330
77
100
AcDbEntity
  8
3T_BAR
100
AcDbFace
 10
-329.89
 20
56.44
 30
907.27
 11
-333.71
 21
80.44
 31
812.63
 12
-329.89
 22
80.44
 32
907.27
 13
-329.89
 23
56.44
 33
907.27
 70
     1
  0
3DFACE
  5
C0
330
77
100
AcDbEntity
  8
3T_BAR
100
AcDbFace
 10
-333.71
 20
80.44
 30
812.63
 11
-333.71
 21
56.44
 31
812.63
 12
-348.45
 22
56.44
 32
812.63
 13
-333.71
 23
80.44
 33
812.63
 70
     4
  0
3DFACE
  5
C1
330
77
100
AcDbEntity
  8
3T_BAR
100
AcDbFace
 10
-333.71
 20
80.44
 30
812.63
 11
-348.45
 21
56.44
 31
812.63
 12
-348.45
 22
80.44
 32
812.63
 13
-333.71
 23
80.44
 33
812.63
 70
     1
  0
3DFACE
  5
C2
330
77
100
AcDbEntity
  8
3T_BAR
100
AcDbFace
 10
-348.45
 20
80.44
 30
812.63
 11
-348.45
 21
56.44
 31
812.63
 12
-351.72
 22
56.44
 32
907.27
 13
-348.45
 23
80.44
 33
812.63
 70
     4
  0
3DFACE
  5
C3
330
77
100
AcDbEntity
  8
3T_BAR
100
AcDbFace
 10
-348.45
 20
80.44
 30
812.63
 11
-351.72
 21
56.44
 31
907.27
 12
-351.72
 22
80.44
 32
907.27
 13
-348.45
 23
80.44
 33
812.63
 70
     1
  0
3DFACE
  5
C4
330
77
100
AcDbEntity
  8
3T_BAR
100
AcDbFace
 10
-348.45
 20
80.44
 30
812.63
 11
-351.72
 21
80.44
 31
907.27
 12
-346.14
 22
80.44
 32
918.08
 13
-348.45
 23
80.44
 33
812.63
 70
     6
  0
3DFACE
  5
C5
330
77
100
AcDbEntity
  8
3T_BAR
100
AcDbFace
 10
-348.45
 20
80.44
 30
812.63
 11
-346.14
 21
80.44
 31
918.08
 12
-340.81
 22
80.44
 32
919.73
 13
-348.45
 23
80.44
 33
812.63
 70
     5
  0
3DFACE
  5
C6
330
77
100
AcDbEntity
  8
3T_BAR
100
AcDbFace
 10
-348.45
 20
80.44
 30
812.63
 11
-340.81
 21
80.44
 31
919.73
 12
-333.71
 22
80.44
 32
812.63
 13
-348.45
 23
80.44
 33
812.63
 70
     3
  0
3DFACE
  5
C7
330
77
100
AcDbEntity
  8
3T_BAR
100
AcDbFace
 10
-351.72
 20
80.44
 30
907.27
 11
-350.12
 21
80.44
 31
913.54
 12
-346.14
 22
80.44
 32
918.08
 13
-351.72
 23
80.44
 33
907.27
 70
     4
  0
3DFACE
  5
C8
330
77
100
AcDbEntity
  8
3T_BAR
100
AcDbFace
 10
-340.81
 20
80.44
 30
919.73
 11
-335.47
 21
80.44
 31
918.08
 12
-333.71
 22
80.44
 32
812.63
 13
-340.81
 23
80.44
 33
919.73
 70
     6
  0
3DFACE
  5
C9
330
77
100
AcDbEntity
  8
3T_BAR
100
AcDbFace
 10
-335.47
 20
80.44
 30
918.08
 11
-331.49
 21
80.44
 31
913.54
 12
-329.89
 22
80.44
 32
907.27
 13
-335.47
 23
80.44
 33
918.08
 70
     4
  0
3DFACE
  5
CA
330
77
100
AcDbEntity
  8
3T_BAR
100
AcDbFace
 10
-335.47
 20
80.44
 30
918.08
 11
-329.89
 21
80.44
 31
907.27
 12
-333.71
 22
80.44
 32
812.63
 13
-335.47
 23
80.44
 33
918.08
 70
     5
  0
3DFACE
  5
CB
330
77
100
AcDbEntity
  8
3T_BAR
100
AcDbFace
 10
-329.89
 20
56.44
 30
907.27
 11
-331.49
 21
56.44
 31
913.54
 12
-335.47
 22
56.44
 32
918.08
 13
-329.89
 23
56.44
 33
907.27
 70
     4
  0
3DFACE
  5
CC
330
77
100
AcDbEntity
  8
3T_BAR
100
AcDbFace
 10
-329.89
 20
56.44
 30
907.27
 11
-335.47
 21
56.44
 31
918.08
 12
-333.71
 22
56.44
 32
812.63
 13
-329.89
 23
56.44
 33
907.27
 70
     3
  0
3DFACE
  5
CD
330
77
100
AcDbEntity
  8
3T_BAR
100
AcDbFace
 10
-333.71
 20
56.44
 30
812.63
 11
-335.47
 21
56.44
 31
918.08
 12
-340.81
 22
56.44
 32
919.73
 13
-333.71
 23
56.44
 33
812.63
 70
     5
  0
3DFACE
  5
CE
330
77
100
AcDbEntity
  8
3T_BAR
100
AcDbFace
 10
-333.71
 20
56.44
 30
812.63
 11
-340.81
 21
56.44
 31
919.73
 12
-348.45
 22
56.44
 32
812.63
 13
-333.71
 23
56.44
 33
812.63
 70
     3
  0
3DFACE
  5
CF
330
77
100
AcDbEntity
  8
3T_BAR
100
AcDbFace
 10
-340.81
 20
56.44
 30
919.73
 11
-346.14
 21
56.44
 31
918.08
 12
-348.45
 22
56.44
 32
812.63
 13
-340.81
 23
56.44
 33
919.73
 70
     6
  0
3DFACE
  5
D0
330
77
100
AcDbEntity
  8
3T_BAR
100
AcDbFace
 10
-346.14
 20
56.44
 30
918.08
 11
-350.12
 21
56.44
 31
913.54
 12
-351.72
 22
56.44
 32
907.27
 13
-346.14
 23
56.44
 33
918.08
 70
     4
  0
3DFACE
  5
D1
330
77
100
AcDbEntity
  8
3T_BAR
100
AcDbFace
 10
-346.14
 20
56.44
 30
918.08
 11
-351.72
 21
56.44
 31
907.27
 12
-348.45
 22
56.44
 32
812.63
 13
-346.14
 23
56.44
 33
918.08
 70
     5
  0
3DFACE
  5
D2
330
77
100
AcDbEntity
  8
3T_WOOD
100
AcDbFace
 10
409.41
 20
10.0
 30
2055.56
 11
-411.02
 21
10.0
 31
2055.56
 12
-411.02
 22
10.0
 32
1.21
 13
409.41
 23
10.0
 33
1.21
  0
ENDBLK
  5
D3
330
77
100
AcDbEntity
  8
0
100
AcDbBlockEnd
  0
BLOCK
  5
F1
330
EF
100
AcDbEntity
  8
0
100
AcDbBlockBegin
  2
$DorLib2D$00000001
 70
     0
 10
0.0
 20
0.0
 30
0.0
  3
$DorLib2D$00000001
  1

  0
LINE
  5
F2
330
EF
100
AcDbEntity
  8
0
100
AcDbLine
 10
0.45
 20
0.98
 30
0.0
 11
0.5
 21
0.98
 31
0.0
  0
LINE
  5
F3
330
EF
100
AcDbEntity
  8
0
100
AcDbLine
 10
0.5
 20
0.0
 30
0.0
 11
0.45
 21
0.0
 31
0.0
  0
ARC
  5
F4
330
EF
100
AcDbEntity
  8
0
370
    13
100
AcDbCircle
 10
0.48
 20
0.0
 30
0.0
 40
0.975
100
AcDbArc
 50
91.47
 51
180.0
  0
LINE
  5
F5
330
EF
100
AcDbEntity
  8
0
100
AcDbLine
 10
0.5
 20
0.0
 30
0.0
 11
0.5
 21
0.98
 31
0.0
  0
LINE
  5
F6
330
EF
100
AcDbEntity
  8
0
100
AcDbLine
 10
0.45
 20
0.0
 30
0.0
 11
0.45
 21
0.98
 31
0.0
  0
ENDBLK
  5
F7
330
EF
100
AcDbEntity
  8
0
100
AcDbBlockEnd
  0
BLOCK
  5
28
330
27
100
AcDbEntity
  8
0
100
AcDbBlockBegin
  2
$TCHSYS$WIN2D
 70
     0
 10
0.0
 20
0.0
 30
0.0
  3
$TCHSYS$WIN2D
  1

  0
LINE
  5
29
330
27
100
AcDbEntity
  8
0
100
AcDbLine
 10
-0.5
 20
0.5
 30
0.0
 11
0.5
 21
0.5
 31
0.0
  0
LINE
  5
2A
330
27
100
AcDbEntity
  8
0
100
AcDbLine
 10
-0.5
 20
-0.5
 30
0.0
 11
0.5
 21
-0.5
 31
0.0
  0
LINE
  5
2B
330
27
100
AcDbEntity
  8
0
100
AcDbLine
 10
0.5
 20
-0.17
 30
0.0
 11
-0.5
 21
-0.17
 31
0.0
  0
LINE
  5
2C
330
27
100
AcDbEntity
  8
0
100
AcDbLine
 10
0.5
 20
0.17
 30
0.0
 11
-0.5
 21
0.17
 31
0.0
  0
LINE
  5
2D
330
27
100
AcDbEntity
  8
0
100
AcDbLine
 10
-0.5
 20
0.5
 30
0.0
 11
-0.5
 21
-0.5
 31
0.0
  0
LINE
  5
2E
330
27
100
AcDbEntity
  8
0
100
AcDbLine
 10
0.5
 20
0.5
 30
0.0
 11
0.5
 21
-0.5
 31
0.0
  0
ENDBLK
  5
2F
330
27
100
AcDbEntity
  8
0
100
AcDbBlockEnd
  0
BLOCK
  5
31
330
30
100
AcDbEntity
  8
0
100
AcDbBlockBegin
  2
$TCHSYS$WIN3D
 70
     0
 10
0.0
 20
0.0
 30
0.0
  3
$TCHSYS$WIN3D
  1

  0
3DFACE
  5
32
330
30
100
AcDbEntity
  8
3T_BAR
100
AcDbFace
 10
580.0
 20
25.0
 30
1780.0
 11
530.0
 21
25.0
 31
1720.0
 12
50.0
 22
25.0
 32
1720.0
 13
0.0
 23
25.0
 33
1780.0
 70
     5
  0
3DFACE
  5
34
330
30
100
AcDbEntity
  8
3T_BAR
100
AcDbFace
 10
50.0
 20
-25.0
 30
1720.0
 11
530.0
 21
-25.0
 31
1720.0
 12
580.0
 22
-25.0
 32
1780.0
 13
0.0
 23
-25.0
 33
1780.0
 70
    10
  0
3DFACE
  5
35
330
30
100
AcDbEntity
  8
3T_BAR
100
AcDbFace
 10
600.0
 20
25.0
 30
1800.0
 11
580.0
 21
25.0
 31
1780.0
 12
-580.0
 22
25.0
 32
1780.0
 13
-600.0
 23
25.0
 33
1800.0
 70
     5
  0
3DFACE
  5
36
330
30
100
AcDbEntity
  8
3T_BAR
100
AcDbFace
 10
-580.0
 20
-25.0
 30
1780.0
 11
580.0
 21
-25.0
 31
1780.0
 12
600.0
 22
-25.0
 32
1800.0
 13
-600.0
 23
-25.0
 33
1800.0
 70
    10
  0
3DFACE
  5
37
330
30
100
AcDbEntity
  8
3T_BAR
100
AcDbFace
 10
-580.0
 20
-25.0
 30
1780.0
 11
-580.0
 21
25.0
 31
1780.0
 12
580.0
 22
25.0
 32
1780.0
 13
580.0
 23
-25.0
 33
1780.0
  0
3DFACE
  5
38
330
30
100
AcDbEntity
  8
3T_BAR
100
AcDbFace
 10
0.0
 20
25.0
 30
20.0
 11
50.0
 21
25.0
 31
80.0
 12
530.0
 22
25.0
 32
80.0
 13
580.0
 23
25.0
 33
20.0
 70
     5
  0
3DFACE
  5
39
330
30
100
AcDbEntity
  8
3T_BAR
100
AcDbFace
 10
0.0
 20
-25.0
 30
20.0
 11
580.0
 21
-25.0
 31
20.0
 12
530.0
 22
-25.0
 32
80.0
 13
50.0
 23
-25.0
 33
80.0
 70
    10
  0
3DFACE
  5
3A
330
30
100
AcDbEntity
  8
3T_BAR
100
AcDbFace
 10
-600.0
 20
25.0
 30
0.0
 11
-580.0
 21
25.0
 31
20.0
 12
580.0
 22
25.0
 32
20.0
 13
600.0
 23
25.0
 33
0.0
 70
     5
  0
3DFACE
  5
3B
330
30
100
AcDbEntity
  8
3T_BAR
100
AcDbFace
 10
-600.0
 20
-25.0
 30
0.0
 11
600.0
 21
-25.0
 31
0.0
 12
580.0
 22
-25.0
 32
20.0
 13
-580.0
 23
-25.0
 33
20.0
 70
    10
  0
3DFACE
  5
3C
330
30
100
AcDbEntity
  8
3T_BAR
100
AcDbFace
 10
-580.0
 20
-25.0
 30
20.0
 11
580.0
 21
-25.0
 31
20.0
 12
580.0
 22
25.0
 32
20.0
 13
-580.0
 23
25.0
 33
20.0
  0
3DFACE
  5
3D
330
30
100
AcDbEntity
  8
3T_BAR
100
AcDbFace
 10
0.0
 20
25.0
 30
1780.0
 11
50.0
 21
25.0
 31
1720.0
 12
50.0
 22
25.0
 32
80.0
 13
0.0
 23
25.0
 33
20.0
 70
     5
  0
3DFACE
  5
3E
330
30
100
AcDbEntity
  8
3T_BAR
100
AcDbFace
 10
50.0
 20
-25.0
 30
80.0
 11
50.0
 21
-25.0
 31
1720.0
 12
0.0
 22
-25.0
 32
1780.0
 13
0.0
 23
-25.0
 33
20.0
 70
    10
  0
3DFACE
  5
3F
330
30
100
AcDbEntity
  8
3T_GLASS
100
AcDbFace
 10
-529.34
 20
-15.0
 30
39.86
 11
-529.34
 21
-15.0
 31
1701.4
 12
530.7
 22
-15.0
 32
1701.4
 13
530.7
 23
-15.0
 33
39.86
  0
3DFACE
  5
41
330
30
100
AcDbEntity
  8
3T_BAR
100
AcDbFace
 10
-530.0
 20
-25.0
 30
1720.0
 11
-530.0
 21
25.0
 31
1720.0
 12
-50.0
 22
25.0
 32
1720.0
 13
-50.0
 23
-25.0
 33
1720.0
  0
3DFACE
  5
42
330
30
100
AcDbEntity
  8
3T_BAR
100
AcDbFace
 10
-530.0
 20
-25.0
 30
80.0
 11
-50.0
 21
-25.0
 31
80.0
 12
-50.0
 22
25.0
 32
80.0
 13
-530.0
 23
25.0
 33
80.0
  0
LINE
  5
43
330
30
100
AcDbEntity
  8
3T_BAR
100
AcDbLine
 10
-600.0
 20
0.5
 30
0.0
 11
-600.0
 21
-0.5
 31
0.0
  0
3DFACE
  5
44
330
30
100
AcDbEntity
  8
3T_BAR
100
AcDbFace
 10
0.0
 20
25.0
 30
20.0
 11
0.0
 21
-25.0
 31
20.0
 12
0.0
 22
-25.0
 32
1780.0
 13
0.0
 23
25.0
 33
1780.0
  0
3DFACE
  5
45
330
30
100
AcDbEntity
  8
3T_BAR
100
AcDbFace
 10
0.0
 20
-25.0
 30
20.0
 11
0.0
 21
25.0
 31
20.0
 12
0.0
 22
25.0
 32
1780.0
 13
0.0
 23
-25.0
 33
1780.0
  0
3DFACE
  5
46
330
30
100
AcDbEntity
  8
3T_BAR
100
AcDbFace
 10
-580.0
 20
25.0
 30
20.0
 11
-580.0
 21
-25.0
 31
20.0
 12
-580.0
 22
-25.0
 32
1780.0
 13
-580.0
 23
25.0
 33
1780.0
  0
3DFACE
  5
47
330
30
100
AcDbEntity
  8
3T_BAR
100
AcDbFace
 10
-50.0
 20
-25.0
 30
80.0
 11
-50.0
 21
-25.0
 31
1720.0
 12
-50.0
 22
25.0
 32
1720.0
 13
-50.0
 23
25.0
 33
80.0
  0
3DFACE
  5
48
330
30
100
AcDbEntity
  8
3T_BAR
100
AcDbFace
 10
-530.0
 20
-25.0
 30
80.0
 11
-530.0
 21
25.0
 31
80.0
 12
-530.0
 22
25.0
 32
1720.0
 13
-530.0
 23
-25.0
 33
1720.0
  0
3DFACE
  5
49
330
30
100
AcDbEntity
  8
3T_BAR
100
AcDbFace
 10
-600.0
 20
25.0
 30
0.0
 11
-600.0
 21
-25.0
 31
0.0
 12
-600.0
 22
-25.0
 32
1800.0
 13
-600.0
 23
25.0
 33
1800.0
  0
3DFACE
  5
4A
330
30
100
AcDbEntity
  8
3T_BAR
100
AcDbFace
 10
-580.0
 20
-25.0
 30
20.0
 11
-580.0
 21
25.0
 31
20.0
 12
-580.0
 22
25.0
 32
1780.0
 13
-580.0
 23
-25.0
 33
1780.0
  0
3DFACE
  5
4B
330
30
100
AcDbEntity
  8
3T_BAR
100
AcDbFace
 10
-530.0
 20
-25.0
 30
80.0
 11
-530.0
 21
-25.0
 31
1720.0
 12
-580.0
 22
-25.0
 32
1780.0
 13
-580.0
 23
-25.0
 33
20.0
 70
    10
  0
3DFACE
  5
4C
330
30
100
AcDbEntity
  8
3T_BAR
100
AcDbFace
 10
0.0
 20
-25.0
 30
20.0
 11
0.0
 21
-25.0
 31
1780.0
 12
-50.0
 22
-25.0
 32
1720.0
 13
-50.0
 23
-25.0
 33
80.0
 70
    10
  0
3DFACE
  5
4D
330
30
100
AcDbEntity
  8
3T_BAR
100
AcDbFace
 10
-580.0
 20
-25.0
 30
20.0
 11
-580.0
 21
-25.0
 31
1780.0
 12
-600.0
 22
-25.0
 32
1800.0
 13
-600.0
 23
-25.0
 33
0.0
 70
    10
  0
3DFACE
  5
4E
330
30
100
AcDbEntity
  8
3T_BAR
100
AcDbFace
 10
-580.0
 20
-25.0
 30
20.0
 11
0.0
 21
-25.0
 31
20.0
 12
-50.0
 22
-25.0
 32
80.0
 13
-530.0
 23
-25.0
 33
80.0
 70
    10
  0
3DFACE
  5
4F
330
30
100
AcDbEntity
  8
3T_BAR
100
AcDbFace
 10
-530.0
 20
-25.0
 30
1720.0
 11
-50.0
 21
-25.0
 31
1720.0
 12
0.0
 22
-25.0
 32
1780.0
 13
-580.0
 23
-25.0
 33
1780.0
 70
    10
  0
3DFACE
  5
50
330
30
100
AcDbEntity
  8
3T_BAR
100
AcDbFace
 10
-580.0
 20
25.0
 30
1780.0
 11
-530.0
 21
25.0
 31
1720.0
 12
-530.0
 22
25.0
 32
80.0
 13
-580.0
 23
25.0
 33
20.0
 70
     5
  0
3DFACE
  5
51
330
30
100
AcDbEntity
  8
3T_BAR
100
AcDbFace
 10
0.0
 20
25.0
 30
20.0
 11
-50.0
 21
25.0
 31
80.0
 12
-50.0
 22
25.0
 32
1720.0
 13
0.0
 23
25.0
 33
1780.0
 70
     5
  0
3DFACE
  5
52
330
30
100
AcDbEntity
  8
3T_BAR
100
AcDbFace
 10
-600.0
 20
25.0
 30
1800.0
 11
-580.0
 21
25.0
 31
1780.0
 12
-580.0
 22
25.0
 32
20.0
 13
-600.0
 23
25.0
 33
0.0
 70
     5
  0
3DFACE
  5
53
330
30
100
AcDbEntity
  8
3T_BAR
100
AcDbFace
 10
-580.0
 20
25.0
 30
20.0
 11
-530.0
 21
25.0
 31
80.0
 12
-50.0
 22
25.0
 32
80.0
 13
0.0
 23
25.0
 33
20.0
 70
     5
  0
3DFACE
  5
54
330
30
100
AcDbEntity
  8
3T_BAR
100
AcDbFace
 10
0.0
 20
25.0
 30
1780.0
 11
-50.0
 21
25.0
 31
1720.0
 12
-530.0
 22
25.0
 32
1720.0
 13
-580.0
 23
25.0
 33
1780.0
 70
     5
  0
3DFACE
  5
55
330
30
100
AcDbEntity
  8
3T_BAR
100
AcDbFace
 10
50.0
 20
-25.0
 30
1720.0
 11
50.0
 21
25.0
 31
1720.0
 12
530.0
 22
25.0
 32
1720.0
 13
530.0
 23
-25.0
 33
1720.0
  0
3DFACE
  5
56
330
30
100
AcDbEntity
  8
3T_BAR
100
AcDbFace
 10
50.0
 20
-25.0
 30
80.0
 11
530.0
 21
-25.0
 31
80.0
 12
530.0
 22
25.0
 32
80.0
 13
50.0
 23
25.0
 33
80.0
  0
3DFACE
  5
57
330
30
100
AcDbEntity
  8
3T_BAR
100
AcDbFace
 10
580.0
 20
-25.0
 30
20.0
 11
580.0
 21
25.0
 31
20.0
 12
580.0
 22
25.0
 32
1780.0
 13
580.0
 23
-25.0
 33
1780.0
  0
3DFACE
  5
58
330
30
100
AcDbEntity
  8
3T_BAR
100
AcDbFace
 10
530.0
 20
-25.0
 30
80.0
 11
530.0
 21
-25.0
 31
1720.0
 12
530.0
 22
25.0
 32
1720.0
 13
530.0
 23
25.0
 33
80.0
  0
3DFACE
  5
59
330
30
100
AcDbEntity
  8
3T_BAR
100
AcDbFace
 10
50.0
 20
-25.0
 30
80.0
 11
50.0
 21
25.0
 31
80.0
 12
50.0
 22
25.0
 32
1720.0
 13
50.0
 23
-25.0
 33
1720.0
  0
3DFACE
  5
5A
330
30
100
AcDbEntity
  8
3T_BAR
100
AcDbFace
 10
600.0
 20
-25.0
 30
0.0
 11
600.0
 21
25.0
 31
0.0
 12
600.0
 22
25.0
 32
1800.0
 13
600.0
 23
-25.0
 33
1800.0
  0
3DFACE
  5
5B
330
30
100
AcDbEntity
  8
3T_BAR
100
AcDbFace
 10
580.0
 20
-25.0
 30
20.0
 11
580.0
 21
-25.0
 31
1780.0
 12
580.0
 22
25.0
 32
1780.0
 13
580.0
 23
25.0
 33
20.0
  0
3DFACE
  5
5C
330
30
100
AcDbEntity
  8
3T_BAR
100
AcDbFace
 10
580.0
 20
-25.0
 30
20.0
 11
580.0
 21
-25.0
 31
1780.0
 12
530.0
 22
-25.0
 32
1720.0
 13
530.0
 23
-25.0
 33
80.0
 70
    10
  0
3DFACE
  5
5D
330
30
100
AcDbEntity
  8
3T_BAR
100
AcDbFace
 10
600.0
 20
-25.0
 30
0.0
 11
600.0
 21
-25.0
 31
1800.0
 12
580.0
 22
-25.0
 32
1780.0
 13
580.0
 23
-25.0
 33
20.0
 70
    10
  0
3DFACE
  5
5E
330
30
100
AcDbEntity
  8
3T_BAR
100
AcDbFace
 10
580.0
 20
25.0
 30
20.0
 11
530.0
 21
25.0
 31
80.0
 12
530.0
 22
25.0
 32
1720.0
 13
580.0
 23
25.0
 33
1780.0
 70
     5
  0
3DFACE
  5
5F
330
30
100
AcDbEntity
  8
3T_BAR
100
AcDbFace
 10
600.0
 20
25.0
 30
0.0
 11
580.0
 21
25.0
 31
20.0
 12
580.0
 22
25.0
 32
1780.0
 13
600.0
 23
25.0
 33
1800.0
 70
     5
  0
ENDBLK
  5
60
330
30
100
AcDbEntity
  8
0
100
AcDbBlockEnd
  0
BLOCK
  5
6B
330
69
100
AcDbEntity
  8
0
100
AcDbBlockBegin
  2
$DorLib2D$00000002
 70
     0
 10
0.0
 20
0.0
 30
0.0
  3
$DorLib2D$00000002
  1

  0
LINE
  5
6C
330
69
100
AcDbEntity
  8
0
100
AcDbLine
 10
-0.5
 20
0.0
 30
0.0
 11
-0.5
 21
0.49
 31
0.0
  0
LINE
  5
6D
330
69
100
AcDbEntity
  8
0
100
AcDbLine
 10
-0.48
 20
0.0
 30
0.0
 11
-0.48
 21
0.49
 31
0.0
  0
LINE
  5
6E
330
69
100
AcDbEntity
  8
0
100
AcDbLine
 10
-0.5
 20
0.0
 30
0.0
 11
-0.48
 21
0.0
 31
0.0
  0
LINE
  5
6F
330
69
100
AcDbEntity
  8
0
100
AcDbLine
 10
-0.48
 20
0.49
 30
0.0
 11
-0.5
 21
0.49
 31
0.0
  0
ARC
  5
70
330
69
100
AcDbEntity
  8
0
370
    13
100
AcDbCircle
 10
-0.49
 20
0.0
 30
0.0
 40
0.4875
100
AcDbArc
 50
0.0
 51
88.53
  0
ARC
  5
71
330
69
100
AcDbEntity
  8
0
370
    13
100
AcDbCircle
 10
0.49
 20
0.0
 30
0.0
 40
0.4875
100
AcDbArc
 50
91.47
 51
180.0
  0
LINE
  5
72
330
69
100
AcDbEntity
  8
0
100
AcDbLine
 10
0.48
 20
0.0
 30
0.0
 11
0.48
 21
0.49
 31
0.0
  0
LINE
  5
73
330
69
100
AcDbEntity
  8
0
100
AcDbLine
 10
0.5
 20
0.0
 30
0.0
 11
0.5
 21
0.49
 31
0.0
  0
LINE
  5
74
330
69
100
AcDbEntity
  8
0
100
AcDbLine
 10
0.48
 20
0.49
 30
0.0
 11
0.5
 21
0.49
 31
0.0
  0
LINE
  5
75
330
69
100
AcDbEntity
  8
0
100
AcDbLine
 10
0.5
 20
0.0
 30
0.0
 11
0.48
 21
0.0
 31
0.0
  0
ENDBLK
  5
76
330
69
100
AcDbEntity
  8
0
100
AcDbBlockEnd
  0
BLOCK
  5
124
330
123
100
AcDbEntity
  8
0
100
AcDbBlockBegin
  2
*D9
 70
     1
 10
0.0
 20
0.0
 30
0.0
  3
*D9
  1

  0
LINE
  5
125
330
123
100
AcDbEntity
  8
AXIS
 62
     0
440
 16777216
370
    -2
100
AcDbLine
 10
55079.06
 20
12606.47
 30
0.0
 11
57529.06
 21
12606.47
 31
0.0
  0
LINE
  5
126
330
123
100
AcDbEntity
  8
AXIS
 62
     0
440
 16777216
370
    -2
100
AcDbLine
 10
55079.06
 20
15606.47
 30
0.0
 11
57529.06
 21
15606.47
 31
0.0
  0
LINE
  5
127
330
123
100
AcDbEntity
  8
AXIS
 62
     0
440
 16777216
370
    -2
100
AcDbLine
 10
57279.06
 20
12606.47
 30
0.0
 11
57279.06
 21
15606.47
 31
0.0
  0
INSERT
  5
128
330
123
100
AcDbEntity
  8
AXIS
 62
     0
440
 16777216
370
    -2
100
AcDbBlockReference
  2
_ArchTick
 10
57279.06
 20
12606.47
 30
0.0
 41
100.0
 42
100.0
 43
100.0
 50
270.0
  0
INSERT
  5
12D
330
123
100
AcDbEntity
  8
AXIS
 62
     0
440
 16777216
370
    -2
100
AcDbBlockReference
  2
_ArchTick
 10
57279.06
 20
15606.47
 30
0.0
 41
100.0
 42
100.0
 43
100.0
 50
90.0
  0
MTEXT
  5
12E
330
123
100
AcDbEntity
  8
AXIS
 62
     7
440
 16777216
100
AcDbMText
 10
57004.06
 20
14106.47
 30
0.0
 40
297.5
 41
0.0
 46
0.0
 71
     5
 72
     1
  1
\A1;3000
  7
_TCH_DIM_T3
 11
0.0
 21
1.0
 31
0.0
 73
     1
 44
1.0
  0
POINT
  5
130
330
123
100
AcDbEntity
  8
Defpoints
 62
     0
440
 16777216
100
AcDbPoint
 10
54779.06
 20
12606.47
 30
0.0
  0
POINT
  5
132
330
123
100
AcDbEntity
  8
Defpoints
 62
     0
440
 16777216
100
AcDbPoint
 10
54779.06
 20
15606.47
 30
0.0
  0
POINT
  5
133
330
123
100
AcDbEntity
  8
Defpoints
 62
     0
440
 16777216
100
AcDbPoint
 10
57279.06
 20
15606.47
 30
0.0
  0
ENDBLK
  5
134
330
123
100
AcDbEntity
  8
0
100
AcDbBlockEnd
  0
BLOCK
  5
138
330
137
100
AcDbEntity
  8
0
100
AcDbBlockBegin
  2
*D10
 70
     1
 10
0.0
 20
0.0
 30
0.0
  3
*D10
  1

  0
LINE
  5
139
330
137
100
AcDbEntity
  8
AXIS
 62
     0
440
 16777216
370
    -2
100
AcDbLine
 10
55079.06
 20
15606.47
 30
0.0
 11
57529.06
 21
15606.47
 31
0.0
  0
LINE
  5
13A
330
137
100
AcDbEntity
  8
AXIS
 62
     0
440
 16777216
370
    -2
100
AcDbLine
 10
55079.06
 20
17406.47
 30
0.0
 11
57529.06
 21
17406.47
 31
0.0
  0
LINE
  5
13B
330
137
100
AcDbEntity
  8
AXIS
 62
     0
440
 16777216
370
    -2
100
AcDbLine
 10
57279.06
 20
15606.47
 30
0.0
 11
57279.06
 21
17406.47
 31
0.0
  0
INSERT
  5
13C
330
137
100
AcDbEntity
  8
AXIS
 62
     0
440
 16777216
370
    -2
100
AcDbBlockReference
  2
_ArchTick
 10
57279.06
 20
15606.47
 30
0.0
 41
100.0
 42
100.0
 43
100.0
 50
270.0
  0
INSERT
  5
13D
330
137
100
AcDbEntity
  8
AXIS
 62
     0
440
 16777216
370
    -2
100
AcDbBlockReference
  2
_ArchTick
 10
57279.06
 20
17406.47
 30
0.0
 41
100.0
 42
100.0
 43
100.0
 50
90.0
  0
MTEXT
  5
13E
330
137
100
AcDbEntity
  8
AXIS
 62
     7
440
 16777216
100
AcDbMText
 10
57004.06
 20
16506.47
 30
0.0
 40
297.5
 41
0.0
 46
0.0
 71
     5
 72
     1
  1
\A1;1800
  7
_TCH_DIM_T3
 11
0.0
 21
1.0
 31
0.0
 73
     1
 44
1.0
  0
POINT
  5
13F
330
137
100
AcDbEntity
  8
Defpoints
 62
     0
440
 16777216
100
AcDbPoint
 10
54779.06
 20
15606.47
 30
0.0
  0
POINT
  5
140
330
137
100
AcDbEntity
  8
Defpoints
 62
     0
440
 16777216
100
AcDbPoint
 10
54779.06
 20
17406.47
 30
0.0
  0
POINT
  5
141
330
137
100
AcDbEntity
  8
Defpoints
 62
     0
440
 16777216
100
AcDbPoint
 10
57279.06
 20
17406.47
 30
0.0
  0
ENDBLK
  5
142
330
137
100
AcDbEntity
  8
0
100
AcDbBlockEnd
  0
BLOCK
  5
145
330
144
100
AcDbEntity
  8
0
100
AcDbBlockBegin
  2
*D11
 70
     1
 10
0.0
 20
0.0
 30
0.0
  3
*D11
  1

  0
LINE
  5
146
330
144
100
AcDbEntity
  8
AXIS
 62
     0
440
 16777216
370
    -2
100
AcDbLine
 10
55079.06
 20
17406.47
 30
0.0
 11
57529.06
 21
17406.47
 31
0.0
  0
LINE
  5
147
330
144
100
AcDbEntity
  8
AXIS
 62
     0
440
 16777216
370
    -2
100
AcDbLine
 10
55079.06
 20
20406.47
 30
0.0
 11
57529.06
 21
20406.47
 31
0.0
  0
LINE
  5
148
330
144
100
AcDbEntity
  8
AXIS
 62
     0
440
 16777216
370
    -2
100
AcDbLine
 10
57279.06
 20
17406.47
 30
0.0
 11
57279.06
 21
20406.47
 31
0.0
  0
INSERT
  5
149
330
144
100
AcDbEntity
  8
AXIS
 62
     0
440
 16777216
370
    -2
100
AcDbBlockReference
  2
_ArchTick
 10
57279.06
 20
17406.47
 30
0.0
 41
100.0
 42
100.0
 43
100.0
 50
270.0
  0
INSERT
  5
14A
330
144
100
AcDbEntity
  8
AXIS
 62
     0
440
 16777216
370
    -2
100
AcDbBlockReference
  2
_ArchTick
 10
57279.06
 20
20406.47
 30
0.0
 41
100.0
 42
100.0
 43
100.0
 50
90.0
  0
MTEXT
  5
14B
330
144
100
AcDbEntity
  8
AXIS
 62
     7
440
 16777216
100
AcDbMText
 10
57004.06
 20
18906.47
 30
0.0
 40
297.5
 41
0.0
 46
0.0
 71
     5
 72
     1
  1
\A1;3000
  7
_TCH_DIM_T3
 11
0.0
 21
1.0
 31
0.0
 73
     1
 44
1.0
  0
POINT
  5
14C
330
144
100
AcDbEntity
  8
Defpoints
 62
     0
440
 16777216
100
AcDbPoint
 10
54779.06
 20
17406.47
 30
0.0
  0
POINT
  5
14D
330
144
100
AcDbEntity
  8
Defpoints
 62
     0
440
 16777216
100
AcDbPoint
 10
54779.06
 20
20406.47
 30
0.0
  0
POINT
  5
14E
330
144
100
AcDbEntity
  8
Defpoints
 62
     0
440
 16777216
100
AcDbPoint
 10
57279.06
 20
20406.47
 30
0.0
  0
ENDBLK
  5
14F
330
144
100
AcDbEntity
  8
0
100
AcDbBlockEnd
  0
BLOCK
  5
152
330
151
100
AcDbEntity
  8
0
100
AcDbBlockBegin
  2
*D12
 70
     1
 10
0.0
 20
0.0
 30
0.0
  3
*D12
  1

  0
LINE
  5
153
330
151
100
AcDbEntity
  8
AXIS
 62
     0
440
 16777216
370
    -2
100
AcDbLine
 10
55079.06
 20
12606.47
 30
0.0
 11
58329.06
 21
12606.47
 31
0.0
  0
LINE
  5
154
330
151
100
AcDbEntity
  8
AXIS
 62
     0
440
 16777216
370
    -2
100
AcDbLine
 10
55079.06
 20
20406.47
 30
0.0
 11
58329.06
 21
20406.47
 31
0.0
  0
LINE
  5
155
330
151
100
AcDbEntity
  8
AXIS
 62
     0
440
 16777216
370
    -2
100
AcDbLine
 10
58079.06
 20
12606.47
 30
0.0
 11
58079.06
 21
20406.47
 31
0.0
  0
INSERT
  5
156
330
151
100
AcDbEntity
  8
AXIS
 62
     0
440
 16777216
370
    -2
100
AcDbBlockReference
  2
_ArchTick
 10
58079.06
 20
12606.47
 30
0.0
 41
100.0
 42
100.0
 43
100.0
 50
270.0
  0
INSERT
  5
157
330
151
100
AcDbEntity
  8
AXIS
 62
     0
440
 16777216
370
    -2
100
AcDbBlockReference
  2
_ArchTick
 10
58079.06
 20
20406.47
 30
0.0
 41
100.0
 42
100.0
 43
100.0
 50
90.0
  0
MTEXT
  5
158
330
151
100
AcDbEntity
  8
AXIS
 62
     7
440
 16777216
100
AcDbMText
 10
57804.06
 20
16506.47
 30
0.0
 40
297.5
 41
0.0
 46
0.0
 71
     5
 72
     1
  1
\A1;7800
  7
_TCH_DIM_T3
 11
0.0
 21
1.0
 31
0.0
 73
     1
 44
1.0
  0
POINT
  5
159
330
151
100
AcDbEntity
  8
Defpoints
 62
     0
440
 16777216
100
AcDbPoint
 10
54779.06
 20
12606.47
 30
0.0
  0
POINT
  5
15A
330
151
100
AcDbEntity
  8
Defpoints
 62
     0
440
 16777216
100
AcDbPoint
 10
54779.06
 20
20406.47
 30
0.0
  0
POINT
  5
15B
330
151
100
AcDbEntity
  8
Defpoints
 62
     0
440
 16777216
100
AcDbPoint
 10
58079.06
 20
20406.47
 30
0.0
  0
ENDBLK
  5
15C
330
151
100
AcDbEntity
  8
0
100
AcDbBlockEnd
  0
BLOCK
  5
15F
330
15E
100
AcDbEntity
  8
0
100
AcDbBlockBegin
  2
*D13
 70
     1
 10
0.0
 20
0.0
 30
0.0
  3
*D13
  1

  0
LINE
  5
160
330
15E
100
AcDbEntity
  8
AXIS
 62
     0
440
 16777216
370
    -2
100
AcDbLine
 10
41679.06
 20
12606.47
 30
0.0
 11
39229.06
 21
12606.47
 31
0.0
  0
LINE
  5
161
330
15E
100
AcDbEntity
  8
AXIS
 62
     0
440
 16777216
370
    -2
100
AcDbLine
 10
41679.06
 20
15606.47
 30
0.0
 11
39229.06
 21
15606.47
 31
0.0
  0
LINE
  5
162
330
15E
100
AcDbEntity
  8
AXIS
 62
     0
440
 16777216
370
    -2
100
AcDbLine
 10
39479.06
 20
12606.47
 30
0.0
 11
39479.06
 21
15606.47
 31
0.0
  0
INSERT
  5
163
330
15E
100
AcDbEntity
  8
AXIS
 62
     0
440
 16777216
370
    -2
100
AcDbBlockReference
  2
_ArchTick
 10
39479.06
 20
12606.47
 30
0.0
 41
100.0
 42
100.0
 43
100.0
 50
270.0
  0
INSERT
  5
164
330
15E
100
AcDbEntity
  8
AXIS
 62
     0
440
 16777216
370
    -2
100
AcDbBlockReference
  2
_ArchTick
 10
39479.06
 20
15606.47
 30
0.0
 41
100.0
 42
100.0
 43
100.0
 50
90.0
  0
MTEXT
  5
165
330
15E
100
AcDbEntity
  8
AXIS
 62
     7
440
 16777216
100
AcDbMText
 10
39204.06
 20
14106.47
 30
0.0
 40
297.5
 41
0.0
 46
0.0
 71
     5
 72
     1
  1
\A1;3000
  7
_TCH_DIM_T3
 11
0.0
 21
1.0
 31
0.0
 73
     1
 44
1.0
  0
POINT
  5
166
330
15E
100
AcDbEntity
  8
Defpoints
 62
     0
440
 16777216
100
AcDbPoint
 10
41979.06
 20
12606.47
 30
0.0
  0
POINT
  5
167
330
15E
100
AcDbEntity
  8
Defpoints
 62
     0
440
 16777216
100
AcDbPoint
 10
41979.06
 20
15606.47
 30
0.0
  0
POINT
  5
168
330
15E
100
AcDbEntity
  8
Defpoints
 62
     0
440
 16777216
100
AcDbPoint
 10
39479.06
 20
15606.47
 30
0.0
  0
ENDBLK
  5
169
330
15E
100
AcDbEntity
  8
0
100
AcDbBlockEnd
  0
BLOCK
  5
16C
330
16B
100
AcDbEntity
  8
0
100
AcDbBlockBegin
  2
*D14
 70
     1
 10
0.0
 20
0.0
 30
0.0
  3
*D14
  1

  0
LINE
  5
16D
330
16B
100
AcDbEntity
  8
AXIS
 62
     0
440
 16777216
370
    -2
100
AcDbLine
 10
41679.06
 20
15606.47
 30
0.0
 11
39229.06
 21
15606.47
 31
0.0
  0
LINE
  5
16E
330
16B
100
AcDbEntity
  8
AXIS
 62
     0
440
 16777216
370
    -2
100
AcDbLine
 10
41679.06
 20
17406.47
 30
0.0
 11
39229.06
 21
17406.47
 31
0.0
  0
LINE
  5
16F
330
16B
100
AcDbEntity
  8
AXIS
 62
     0
440
 16777216
370
    -2
100
AcDbLine
 10
39479.06
 20
15606.47
 30
0.0
 11
39479.06
 21
17406.47
 31
0.0
  0
INSERT
  5
170
330
16B
100
AcDbEntity
  8
AXIS
 62
     0
440
 16777216
370
    -2
100
AcDbBlockReference
  2
_ArchTick
 10
39479.06
 20
15606.47
 30
0.0
 41
100.0
 42
100.0
 43
100.0
 50
270.0
  0
INSERT
  5
171
330
16B
100
AcDbEntity
  8
AXIS
 62
     0
440
 16777216
370
    -2
100
AcDbBlockReference
  2
_ArchTick
 10
39479.06
 20
17406.47
 30
0.0
 41
100.0
 42
100.0
 43
100.0
 50
90.0
  0
MTEXT
  5
172
330
16B
100
AcDbEntity
  8
AXIS
 62
     7
440
 16777216
100
AcDbMText
 10
39204.06
 20
16506.47
 30
0.0
 40
297.5
 41
0.0
 46
0.0
 71
     5
 72
     1
  1
\A1;1800
  7
_TCH_DIM_T3
 11
0.0
 21
1.0
 31
0.0
 73
     1
 44
1.0
  0
POINT
  5
173
330
16B
100
AcDbEntity
  8
Defpoints
 62
     0
440
 16777216
100
AcDbPoint
 10
41979.06
 20
15606.47
 30
0.0
  0
POINT
  5
174
330
16B
100
AcDbEntity
  8
Defpoints
 62
     0
440
 16777216
100
AcDbPoint
 10
41979.06
 20
17406.47
 30
0.0
  0
POINT
  5
175
330
16B
100
AcDbEntity
  8
Defpoints
 62
     0
440
 16777216
100
AcDbPoint
 10
39479.06
 20
17406.47
 30
0.0
  0
ENDBLK
  5
176
330
16B
100
AcDbEntity
  8
0
100
AcDbBlockEnd
  0
BLOCK
  5
179
330
178
100
AcDbEntity
  8
0
100
AcDbBlockBegin
  2
*D15
 70
     1
 10
0.0
 20
0.0
 30
0.0
  3
*D15
  1

  0
LINE
  5
17A
330
178
100
AcDbEntity
  8
AXIS
 62
     0
440
 16777216
370
    -2
100
AcDbLine
 10
41679.06
 20
17406.47
 30
0.0
 11
39229.06
 21
17406.47
 31
0.0
  0
LINE
  5
17B
330
178
100
AcDbEntity
  8
AXIS
 62
     0
440
 16777216
370
    -2
100
AcDbLine
 10
41679.06
 20
20406.47
 30
0.0
 11
39229.06
 21
20406.47
 31
0.0
  0
LINE
  5
17C
330
178
100
AcDbEntity
  8
AXIS
 62
     0
440
 16777216
370
    -2
100
AcDbLine
 10
39479.06
 20
17406.47
 30
0.0
 11
39479.06
 21
20406.47
 31
0.0
  0
INSERT
  5
17D
330
178
100
AcDbEntity
  8
AXIS
 62
     0
440
 16777216
370
    -2
100
AcDbBlockReference
  2
_ArchTick
 10
39479.06
 20
17406.47
 30
0.0
 41
100.0
 42
100.0
 43
100.0
 50
270.0
  0
INSERT
  5
17E
330
178
100
AcDbEntity
  8
AXIS
 62
     0
440
 16777216
370
    -2
100
AcDbBlockReference
  2
_ArchTick
 10
39479.06
 20
20406.47
 30
0.0
 41
100.0
 42
100.0
 43
100.0
 50
90.0
  0
MTEXT
  5
17F
330
178
100
AcDbEntity
  8
AXIS
 62
     7
440
 16777216
100
AcDbMText
 10
39204.06
 20
18906.47
 30
0.0
 40
297.5
 41
0.0
 46
0.0
 71
     5
 72
     1
  1
\A1;3000
  7
_TCH_DIM_T3
 11
0.0
 21
1.0
 31
0.0
 73
     1
 44
1.0
  0
POINT
  5
180
330
178
100
AcDbEntity
  8
Defpoints
 62
     0
440
 16777216
100
AcDbPoint
 10
41979.06
 20
17406.47
 30
0.0
  0
POINT
  5
181
330
178
100
AcDbEntity
  8
Defpoints
 62
     0
440
 16777216
100
AcDbPoint
 10
41979.06
 20
20406.47
 30
0.0
  0
POINT
  5
182
330
178
100
AcDbEntity
  8
Defpoints
 62
     0
440
 16777216
100
AcDbPoint
 10
39479.06
 20
20406.47
 30
0.0
  0
ENDBLK
  5
183
330
178
100
AcDbEntity
  8
0
100
AcDbBlockEnd
  0
BLOCK
  5
186
330
185
100
AcDbEntity
  8
0
100
AcDbBlockBegin
  2
*D16
 70
     1
 10
0.0
 20
0.0
 30
0.0
  3
*D16
  1

  0
LINE
  5
187
330
185
100
AcDbEntity
  8
AXIS
 62
     0
440
 16777216
370
    -2
100
AcDbLine
 10
41679.06
 20
12606.47
 30
0.0
 11
38429.06
 21
12606.47
 31
0.0
  0
LINE
  5
188
330
185
100
AcDbEntity
  8
AXIS
 62
     0
440
 16777216
370
    -2
100
AcDbLine
 10
41679.06
 20
20406.47
 30
0.0
 11
38429.06
 21
20406.47
 31
0.0
  0
LINE
  5
189
330
185
100
AcDbEntity
  8
AXIS
 62
     0
440
 16777216
370
    -2
100
AcDbLine
 10
38679.06
 20
12606.47
 30
0.0
 11
38679.06
 21
20406.47
 31
0.0
  0
INSERT
  5
18A
330
185
100
AcDbEntity
  8
AXIS
 62
     0
440
 16777216
370
    -2
100
AcDbBlockReference
  2
_ArchTick
 10
38679.06
 20
12606.47
 30
0.0
 41
100.0
 42
100.0
 43
100.0
 50
270.0
  0
INSERT
  5
18B
330
185
100
AcDbEntity
  8
AXIS
 62
     0
440
 16777216
370
    -2
100
AcDbBlockReference
  2
_ArchTick
 10
38679.06
 20
20406.47
 30
0.0
 41
100.0
 42
100.0
 43
100.0
 50
90.0
  0
MTEXT
  5
18C
330
185
100
AcDbEntity
  8
AXIS
 62
     7
440
 16777216
100
AcDbMText
 10
38404.06
 20
16506.47
 30
0.0
 40
297.5
 41
0.0
 46
0.0
 71
     5
 72
     1
  1
\A1;7800
  7
_TCH_DIM_T3
 11
0.0
 21
1.0
 31
0.0
 73
     1
 44
1.0
  0
POINT
  5
18D
330
185
100
AcDbEntity
  8
Defpoints
 62
     0
440
 16777216
100
AcDbPoint
 10
41979.06
 20
12606.47
 30
0.0
  0
POINT
  5
18E
330
185
100
AcDbEntity
  8
Defpoints
 62
     0
440
 16777216
100
AcDbPoint
 10
41979.06
 20
20406.47
 30
0.0
  0
POINT
  5
18F
330
185
100
AcDbEntity
  8
Defpoints
 62
     0
440
 16777216
100
AcDbPoint
 10
38679.06
 20
20406.47
 30
0.0
  0
ENDBLK
  5
190
330
185
100
AcDbEntity
  8
0
100
AcDbBlockEnd
  0
BLOCK
  5
193
330
192
100
AcDbEntity
  8
0
100
AcDbBlockBegin
  2
*D17
 70
     1
 10
0.0
 20
0.0
 30
0.0
  3
*D17
  1

  0
LINE
  5
194
330
192
100
AcDbEntity
  8
AXIS
 62
     0
440
 16777216
370
    -2
100
AcDbLine
 10
42979.06
 20
21706.47
 30
0.0
 11
42979.06
 21
24156.47
 31
0.0
  0
LINE
  5
195
330
192
100
AcDbEntity
  8
AXIS
 62
     0
440
 16777216
370
    -2
100
AcDbLine
 10
46779.06
 20
21706.47
 30
0.0
 11
46779.06
 21
24156.47
 31
0.0
  0
LINE
  5
196
330
192
100
AcDbEntity
  8
AXIS
 62
     0
440
 16777216
370
    -2
100
AcDbLine
 10
42979.06
 20
23906.47
 30
0.0
 11
46779.06
 21
23906.47
 31
0.0
  0
INSERT
  5
197
330
192
100
AcDbEntity
  8
AXIS
 62
     0
440
 16777216
370
    -2
100
AcDbBlockReference
  2
_ArchTick
 10
42979.06
 20
23906.47
 30
0.0
 41
100.0
 42
100.0
 43
100.0
 50
180.0
  0
INSERT
  5
198
330
192
100
AcDbEntity
  8
AXIS
 62
     0
440
 16777216
370
    -2
100
AcDbBlockReference
  2
_ArchTick
 10
46779.06
 20
23906.47
 30
0.0
 41
100.0
 42
100.0
 43
100.0
  0
MTEXT
  5
199
330
192
100
AcDbEntity
  8
AXIS
 62
     7
440
 16777216
100
AcDbMText
 10
44879.06
 20
24181.47
 30
0.0
 40
297.5
 41
0.0
 46
0.0
 71
     5
 72
     1
  1
\A1;3800
  7
_TCH_DIM_T3
 73
     1
 44
1.0
  0
POINT
  5
19A
330
192
100
AcDbEntity
  8
Defpoints
 62
     0
440
 16777216
100
AcDbPoint
 10
42979.06
 20
21406.47
 30
0.0
  0
POINT
  5
19B
330
192
100
AcDbEntity
  8
Defpoints
 62
     0
440
 16777216
100
AcDbPoint
 10
46779.06
 20
21406.47
 30
0.0
  0
POINT
  5
19C
330
192
100
AcDbEntity
  8
Defpoints
 62
     0
440
 16777216
100
AcDbPoint
 10
46779.06
 20
23906.47
 30
0.0
  0
ENDBLK
  5
19D
330
192
100
AcDbEntity
  8
0
100
AcDbBlockEnd
  0
BLOCK
  5
1A0
330
19F
100
AcDbEntity
  8
0
100
AcDbBlockBegin
  2
*D18
 70
     1
 10
0.0
 20
0.0
 30
0.0
  3
*D18
  1

  0
LINE
  5
1A1
330
19F
100
AcDbEntity
  8
AXIS
 62
     0
440
 16777216
370
    -2
100
AcDbLine
 10
46779.06
 20
21706.47
 30
0.0
 11
46779.06
 21
24156.47
 31
0.0
  0
LINE
  5
1A2
330
19F
100
AcDbEntity
  8
AXIS
 62
     0
440
 16777216
370
    -2
100
AcDbLine
 10
50779.06
 20
21706.47
 30
0.0
 11
50779.06
 21
24156.47
 31
0.0
  0
LINE
  5
1A3
330
19F
100
AcDbEntity
  8
AXIS
 62
     0
440
 16777216
370
    -2
100
AcDbLine
 10
46779.06
 20
23906.47
 30
0.0
 11
50779.06
 21
23906.47
 31
0.0
  0
INSERT
  5
1A4
330
19F
100
AcDbEntity
  8
AXIS
 62
     0
440
 16777216
370
    -2
100
AcDbBlockReference
  2
_ArchTick
 10
46779.06
 20
23906.47
 30
0.0
 41
100.0
 42
100.0
 43
100.0
 50
180.0
  0
INSERT
  5
1A5
330
19F
100
AcDbEntity
  8
AXIS
 62
     0
440
 16777216
370
    -2
100
AcDbBlockReference
  2
_ArchTick
 10
50779.06
 20
23906.47
 30
0.0
 41
100.0
 42
100.0
 43
100.0
  0
MTEXT
  5
1A6
330
19F
100
AcDbEntity
  8
AXIS
 62
     7
440
 16777216
100
AcDbMText
 10
48779.06
 20
24181.47
 30
0.0
 40
297.5
 41
0.0
 46
0.0
 71
     5
 72
     1
  1
\A1;4000
  7
_TCH_DIM_T3
 73
     1
 44
1.0
  0
POINT
  5
1A7
330
19F
100
AcDbEntity
  8
Defpoints
 62
     0
440
 16777216
100
AcDbPoint
 10
46779.06
 20
21406.47
 30
0.0
  0
POINT
  5
1A8
330
19F
100
AcDbEntity
  8
Defpoints
 62
     0
440
 16777216
100
AcDbPoint
 10
50779.06
 20
21406.47
 30
0.0
  0
POINT
  5
1A9
330
19F
100
AcDbEntity
  8
Defpoints
 62
     0
440
 16777216
100
AcDbPoint
 10
50779.06
 20
23906.47
 30
0.0
  0
ENDBLK
  5
1AA
330
19F
100
AcDbEntity
  8
0
100
AcDbBlockEnd
  0
BLOCK
  5
1AD
330
1AC
100
AcDbEntity
  8
0
100
AcDbBlockBegin
  2
*D19
 70
     1
 10
0.0
 20
0.0
 30
0.0
  3
*D19
  1

  0
LINE
  5
1AE
330
1AC
100
AcDbEntity
  8
AXIS
 62
     0
440
 16777216
370
    -2
100
AcDbLine
 10
50779.06
 20
21706.47
 30
0.0
 11
50779.06
 21
24156.47
 31
0.0
  0
LINE
  5
1AF
330
1AC
100
AcDbEntity
  8
AXIS
 62
     0
440
 16777216
370
    -2
100
AcDbLine
 10
54579.06
 20
21706.47
 30
0.0
 11
54579.06
 21
24156.47
 31
0.0
  0
LINE
  5
1B0
330
1AC
100
AcDbEntity
  8
AXIS
 62
     0
440
 16777216
370
    -2
100
AcDbLine
 10
50779.06
 20
23906.47
 30
0.0
 11
54579.06
 21
23906.47
 31
0.0
  0
INSERT
  5
1B1
330
1AC
100
AcDbEntity
  8
AXIS
 62
     0
440
 16777216
370
    -2
100
AcDbBlockReference
  2
_ArchTick
 10
50779.06
 20
23906.47
 30
0.0
 41
100.0
 42
100.0
 43
100.0
 50
180.0
  0
INSERT
  5
1B2
330
1AC
100
AcDbEntity
  8
AXIS
 62
     0
440
 16777216
370
    -2
100
AcDbBlockReference
  2
_ArchTick
 10
54579.06
 20
23906.47
 30
0.0
 41
100.0
 42
100.0
 43
100.0
  0
MTEXT
  5
1B3
330
1AC
100
AcDbEntity
  8
AXIS
 62
     7
440
 16777216
100
AcDbMText
 10
52679.06
 20
24181.47
 30
0.0
 40
297.5
 41
0.0
 46
0.0
 71
     5
 72
     1
  1
\A1;3800
  7
_TCH_DIM_T3
 73
     1
 44
1.0
  0
POINT
  5
1B4
330
1AC
100
AcDbEntity
  8
Defpoints
 62
     0
440
 16777216
100
AcDbPoint
 10
50779.06
 20
21406.47
 30
0.0
  0
POINT
  5
1B5
330
1AC
100
AcDbEntity
  8
Defpoints
 62
     0
440
 16777216
100
AcDbPoint
 10
54579.06
 20
21406.47
 30
0.0
  0
POINT
  5
1B6
330
1AC
100
AcDbEntity
  8
Defpoints
 62
     0
440
 16777216
100
AcDbPoint
 10
54579.06
 20
23906.47
 30
0.0
  0
ENDBLK
  5
1B7
330
1AC
100
AcDbEntity
  8
0
100
AcDbBlockEnd
  0
BLOCK
  5
1BA
330
1B9
100
AcDbEntity
  8
0
100
AcDbBlockBegin
  2
*D20
 70
     1
 10
0.0
 20
0.0
 30
0.0
  3
*D20
  1

  0
LINE
  5
1BB
330
1B9
100
AcDbEntity
  8
AXIS
 62
     0
440
 16777216
370
    -2
100
AcDbLine
 10
42979.06
 20
21706.47
 30
0.0
 11
42979.06
 21
24956.47
 31
0.0
  0
LINE
  5
1BC
330
1B9
100
AcDbEntity
  8
AXIS
 62
     0
440
 16777216
370
    -2
100
AcDbLine
 10
54579.06
 20
21706.47
 30
0.0
 11
54579.06
 21
24956.47
 31
0.0
  0
LINE
  5
1BD
330
1B9
100
AcDbEntity
  8
AXIS
 62
     0
440
 16777216
370
    -2
100
AcDbLine
 10
42979.06
 20
24706.47
 30
0.0
 11
54579.06
 21
24706.47
 31
0.0
  0
INSERT
  5
1BE
330
1B9
100
AcDbEntity
  8
AXIS
 62
     0
440
 16777216
370
    -2
100
AcDbBlockReference
  2
_ArchTick
 10
42979.06
 20
24706.47
 30
0.0
 41
100.0
 42
100.0
 43
100.0
 50
180.0
  0
INSERT
  5
1BF
330
1B9
100
AcDbEntity
  8
AXIS
 62
     0
440
 16777216
370
    -2
100
AcDbBlockReference
  2
_ArchTick
 10
54579.06
 20
24706.47
 30
0.0
 41
100.0
 42
100.0
 43
100.0
  0
MTEXT
  5
1C0
330
1B9
100
AcDbEntity
  8
AXIS
 62
     7
440
 16777216
100
AcDbMText
 10
48779.06
 20
24981.47
 30
0.0
 40
297.5
 41
0.0
 46
0.0
 71
     5
 72
     1
  1
\A1;11600
  7
_TCH_DIM_T3
 73
     1
 44
1.0
  0
POINT
  5
1C1
330
1B9
100
AcDbEntity
  8
Defpoints
 62
     0
440
 16777216
100
AcDbPoint
 10
42979.06
 20
21406.47
 30
0.0
  0
POINT
  5
1C2
330
1B9
100
AcDbEntity
  8
Defpoints
 62
     0
440
 16777216
100
AcDbPoint
 10
54579.06
 20
21406.47
 30
0.0
  0
POINT
  5
1C3
330
1B9
100
AcDbEntity
  8
Defpoints
 62
     0
440
 16777216
100
AcDbPoint
 10
54579.06
 20
24706.47
 30
0.0
  0
ENDBLK
  5
1C4
330
1B9
100
AcDbEntity
  8
0
100
AcDbBlockEnd
  0
BLOCK
  5
1C7
330
1C6
100
AcDbEntity
  8
0
100
AcDbBlockBegin
  2
*D21
 70
     1
 10
0.0
 20
0.0
 30
0.0
  3
*D21
  1

  0
LINE
  5
1C8
330
1C6
100
AcDbEntity
  8
AXIS
 62
     0
440
 16777216
370
    -2
100
AcDbLine
 10
42979.06
 20
11306.47
 30
0.0
 11
42979.06
 21
8856.47
 31
0.0
  0
LINE
  5
1C9
330
1C6
100
AcDbEntity
  8
AXIS
 62
     0
440
 16777216
370
    -2
100
AcDbLine
 10
46779.06
 20
11306.47
 30
0.0
 11
46779.06
 21
8856.47
 31
0.0
  0
LINE
  5
1CA
330
1C6
100
AcDbEntity
  8
AXIS
 62
     0
440
 16777216
370
    -2
100
AcDbLine
 10
42979.06
 20
9106.47
 30
0.0
 11
46779.06
 21
9106.47
 31
0.0
  0
INSERT
  5
1CB
330
1C6
100
AcDbEntity
  8
AXIS
 62
     0
440
 16777216
370
    -2
100
AcDbBlockReference
  2
_ArchTick
 10
42979.06
 20
9106.47
 30
0.0
 41
100.0
 42
100.0
 43
100.0
 50
180.0
  0
INSERT
  5
1CC
330
1C6
100
AcDbEntity
  8
AXIS
 62
     0
440
 16777216
370
    -2
100
AcDbBlockReference
  2
_ArchTick
 10
46779.06
 20
9106.47
 30
0.0
 41
100.0
 42
100.0
 43
100.0
  0
MTEXT
  5
1CD
330
1C6
100
AcDbEntity
  8
AXIS
 62
     7
440
 16777216
100
AcDbMText
 10
44879.06
 20
9381.47
 30
0.0
 40
297.5
 41
0.0
 46
0.0
 71
     5
 72
     1
  1
\A1;3800
  7
_TCH_DIM_T3
 73
     1
 44
1.0
  0
POINT
  5
1CE
330
1C6
100
AcDbEntity
  8
Defpoints
 62
     0
440
 16777216
100
AcDbPoint
 10
42979.06
 20
11606.47
 30
0.0
  0
POINT
  5
1CF
330
1C6
100
AcDbEntity
  8
Defpoints
 62
     0
440
 16777216
100
AcDbPoint
 10
46779.06
 20
11606.47
 30
0.0
  0
POINT
  5
1D0
330
1C6
100
AcDbEntity
  8
Defpoints
 62
     0
440
 16777216
100
AcDbPoint
 10
46779.06
 20
9106.47
 30
0.0
  0
ENDBLK
  5
1D1
330
1C6
100
AcDbEntity
  8
0
100
AcDbBlockEnd
  0
BLOCK
  5
1D4
330
1D3
100
AcDbEntity
  8
0
100
AcDbBlockBegin
  2
*D22
 70
     1
 10
0.0
 20
0.0
 30
0.0
  3
*D22
  1

  0
LINE
  5
1D5
330
1D3
100
AcDbEntity
  8
AXIS
 62
     0
440
 16777216
370
    -2
100
AcDbLine
 10
46779.06
 20
11306.47
 30
0.0
 11
46779.06
 21
8856.47
 31
0.0
  0
LINE
  5
1D6
330
1D3
100
AcDbEntity
  8
AXIS
 62
     0
440
 16777216
370
    -2
100
AcDbLine
 10
50779.06
 20
11306.47
 30
0.0
 11
50779.06
 21
8856.47
 31
0.0
  0
LINE
  5
1D7
330
1D3
100
AcDbEntity
  8
AXIS
 62
     0
440
 16777216
370
    -2
100
AcDbLine
 10
46779.06
 20
9106.47
 30
0.0
 11
50779.06
 21
9106.47
 31
0.0
  0
INSERT
  5
1D8
330
1D3
100
AcDbEntity
  8
AXIS
 62
     0
440
 16777216
370
    -2
100
AcDbBlockReference
  2
_ArchTick
 10
46779.06
 20
9106.47
 30
0.0
 41
100.0
 42
100.0
 43
100.0
 50
180.0
  0
INSERT
  5
1D9
330
1D3
100
AcDbEntity
  8
AXIS
 62
     0
440
 16777216
370
    -2
100
AcDbBlockReference
  2
_ArchTick
 10
50779.06
 20
9106.47
 30
0.0
 41
100.0
 42
100.0
 43
100.0
  0
MTEXT
  5
1DA
330
1D3
100
AcDbEntity
  8
AXIS
 62
     7
440
 16777216
100
AcDbMText
 10
48779.06
 20
9381.47
 30
0.0
 40
297.5
 41
0.0
 46
0.0
 71
     5
 72
     1
  1
\A1;4000
  7
_TCH_DIM_T3
 73
     1
 44
1.0
  0
POINT
  5
1DB
330
1D3
100
AcDbEntity
  8
Defpoints
 62
     0
440
 16777216
100
AcDbPoint
 10
46779.06
 20
11606.47
 30
0.0
  0
POINT
  5
1DC
330
1D3
100
AcDbEntity
  8
Defpoints
 62
     0
440
 16777216
100
AcDbPoint
 10
50779.06
 20
11606.47
 30
0.0
  0
POINT
  5
1DD
330
1D3
100
AcDbEntity
  8
Defpoints
 62
     0
440
 16777216
100
AcDbPoint
 10
50779.06
 20
9106.47
 30
0.0
  0
ENDBLK
  5
1DE
330
1D3
100
AcDbEntity
  8
0
100
AcDbBlockEnd
  0
BLOCK
  5
1E1
330
1E0
100
AcDbEntity
  8
0
100
AcDbBlockBegin
  2
*D23
 70
     1
 10
0.0
 20
0.0
 30
0.0
  3
*D23
  1

  0
LINE
  5
1E2
330
1E0
100
AcDbEntity
  8
AXIS
 62
     0
440
 16777216
370
    -2
100
AcDbLine
 10
50779.06
 20
11306.47
 30
0.0
 11
50779.06
 21
8856.47
 31
0.0
  0
LINE
  5
1E3
330
1E0
100
AcDbEntity
  8
AXIS
 62
     0
440
 16777216
370
    -2
100
AcDbLine
 10
54579.06
 20
11306.47
 30
0.0
 11
54579.06
 21
8856.47
 31
0.0
  0
LINE
  5
1E4
330
1E0
100
AcDbEntity
  8
AXIS
 62
     0
440
 16777216
370
    -2
100
AcDbLine
 10
50779.06
 20
9106.47
 30
0.0
 11
54579.06
 21
9106.47
 31
0.0
  0
INSERT
  5
1E5
330
1E0
100
AcDbEntity
  8
AXIS
 62
     0
440
 16777216
370
    -2
100
AcDbBlockReference
  2
_ArchTick
 10
50779.06
 20
9106.47
 30
0.0
 41
100.0
 42
100.0
 43
100.0
 50
180.0
  0
INSERT
  5
1E6
330
1E0
100
AcDbEntity
  8
AXIS
 62
     0
440
 16777216
370
    -2
100
AcDbBlockReference
  2
_ArchTick
 10
54579.06
 20
9106.47
 30
0.0
 41
100.0
 42
100.0
 43
100.0
  0
MTEXT
  5
1E7
330
1E0
100
AcDbEntity
  8
AXIS
 62
     7
440
 16777216
100
AcDbMText
 10
52679.06
 20
9381.47
 30
0.0
 40
297.5
 41
0.0
 46
0.0
 71
     5
 72
     1
  1
\A1;3800
  7
_TCH_DIM_T3
 73
     1
 44
1.0
  0
POINT
  5
1E8
330
1E0
100
AcDbEntity
  8
Defpoints
 62
     0
440
 16777216
100
AcDbPoint
 10
50779.06
 20
11606.47
 30
0.0
  0
POINT
  5
1E9
330
1E0
100
AcDbEntity
  8
Defpoints
 62
     0
440
 16777216
100
AcDbPoint
 10
54579.06
 20
11606.47
 30
0.0
  0
POINT
  5
1EA
330
1E0
100
AcDbEntity
  8
Defpoints
 62
     0
440
 16777216
100
AcDbPoint
 10
54579.06
 20
9106.47
 30
0.0
  0
ENDBLK
  5
1EB
330
1E0
100
AcDbEntity
  8
0
100
AcDbBlockEnd
  0
BLOCK
  5
1EE
330
1ED
100
AcDbEntity
  8
0
100
AcDbBlockBegin
  2
*D24
 70
     1
 10
0.0
 20
0.0
 30
0.0
  3
*D24
  1

  0
LINE
  5
1EF
330
1ED
100
AcDbEntity
  8
AXIS
 62
     0
440
 16777216
370
    -2
100
AcDbLine
 10
42979.06
 20
11306.47
 30
0.0
 11
42979.06
 21
8056.47
 31
0.0
  0
LINE
  5
1F0
330
1ED
100
AcDbEntity
  8
AXIS
 62
     0
440
 16777216
370
    -2
100
AcDbLine
 10
54579.06
 20
11306.47
 30
0.0
 11
54579.06
 21
8056.47
 31
0.0
  0
LINE
  5
1F1
330
1ED
100
AcDbEntity
  8
AXIS
 62
     0
440
 16777216
370
    -2
100
AcDbLine
 10
42979.06
 20
8306.47
 30
0.0
 11
54579.06
 21
8306.47
 31
0.0
  0
INSERT
  5
1F2
330
1ED
100
AcDbEntity
  8
AXIS
 62
     0
440
 16777216
370
    -2
100
AcDbBlockReference
  2
_ArchTick
 10
42979.06
 20
8306.47
 30
0.0
 41
100.0
 42
100.0
 43
100.0
 50
180.0
  0
INSERT
  5
1F3
330
1ED
100
AcDbEntity
  8
AXIS
 62
     0
440
 16777216
370
    -2
100
AcDbBlockReference
  2
_ArchTick
 10
54579.06
 20
8306.47
 30
0.0
 41
100.0
 42
100.0
 43
100.0
  0
MTEXT
  5
1F4
330
1ED
100
AcDbEntity
  8
AXIS
 62
     7
440
 16777216
100
AcDbMText
 10
48779.06
 20
8581.47
 30
0.0
 40
297.5
 41
0.0
 46
0.0
 71
     5
 72
     1
  1
\A1;11600
  7
_TCH_DIM_T3
 73
     1
 44
1.0
  0
POINT
  5
1F5
330
1ED
100
AcDbEntity
  8
Defpoints
 62
     0
440
 16777216
100
AcDbPoint
 10
42979.06
 20
11606.47
 30
0.0
  0
POINT
  5
1F6
330
1ED
100
AcDbEntity
  8
Defpoints
 62
     0
440
 16777216
100
AcDbPoint
 10
54579.06
 20
11606.47
 30
0.0
  0
POINT
  5
1F7
330
1ED
100
AcDbEntity
  8
Defpoints
 62
     0
440
 16777216
100
AcDbPoint
 10
54579.06
 20
8306.47
 30
0.0
  0
ENDBLK
  5
1F8
330
1ED
100
AcDbEntity
  8
0
100
AcDbBlockEnd
  0
BLOCK
  5
25A
330
259
100
AcDbEntity
  8
0
100
AcDbBlockBegin
  2
_AXISO
 70
     2
 10
0.0
 20
0.0
 30
0.0
  3
_AXISO
  1

  0
CIRCLE
  5
25B
330
259
100
AcDbEntity
  8
0
100
AcDbCircle
 10
0.0
 20
0.0
 30
0.0
 40
0.5
  0
ATTDEF
  5
25C
330
259
100
AcDbEntity
  8
AXIS_TEXT
100
AcDbText
 10
-0.25
 20
-0.28
 30
0.0
 40
0.56
  1

 41
1.04
  7
COMPLEX
 72
     5
 11
0.25
 21
-0.28
 31
0.0
100
AcDbAttributeDefinition
280
     0
  3

  2
A
 70
     0
280
     0
  0
ENDBLK
  5
25F
330
259
100
AcDbEntity
  8
0
100
AcDbBlockEnd
  0
ENDSEC
  0
SECTION
  2
ENTITIES
  0
LINE
  5
E
330
2
100
AcDbEntity
  8
DOTE
100
AcDbLine
 10
42979.06
 20
11606.47
 30
0.0
 11
42979.06
 21
21406.47
 31
0.0
  0
LINE
  5
11
330
2
100
AcDbEntity
  8
DOTE
100
AcDbLine
 10
46779.06
 20
11606.47
 30
0.0
 11
46779.06
 21
21406.47
 31
0.0
  0
LINE
  5
12
330
2
100
AcDbEntity
  8
DOTE
100
AcDbLine
 10
50779.06
 20
11606.47
 30
0.0
 11
50779.06
 21
21406.47
 31
0.0
  0
LINE
  5
13
330
2
100
AcDbEntity
  8
DOTE
100
AcDbLine
 10
41979.06
 20
12606.47
 30
0.0
 11
54779.06
 21
12606.47
 31
0.0
  0
LINE
  5
14
330
2
100
AcDbEntity
  8
DOTE
100
AcDbLine
 10
41979.06
 20
20406.47
 30
0.0
 11
54779.06
 21
20406.47
 31
0.0
  0
LINE
  5
15
330
2
100
AcDbEntity
  8
DOTE
100
AcDbLine
 10
41979.06
 20
15606.47
 30
0.0
 11
54779.06
 21
15606.47
 31
0.0
  0
LINE
  5
16
330
2
100
AcDbEntity
  8
DOTE
100
AcDbLine
 10
41979.06
 20
17406.47
 30
0.0
 11
54779.06
 21
17406.47
 31
0.0
  0
LINE
  5
10F
330
2
100
AcDbEntity
  8
DOTE
100
AcDbLine
 10
54579.06
 20
11606.47
 30
0.0
 11
54579.06
 21
21406.47
 31
0.0
  0
LWPOLYLINE
  5
11B
330
2
100
AcDbEntity
  8
0
100
AcDbPolyline
 90
        4
 70
     0
 43
0.0
 10
46779.06
 20
12506.47
 10
46779.06
 20
11006.47
 10
50779.06
 20
11006.47
 10
50779.06
 20
12506.47
  0
LWPOLYLINE
  5
11C
330
2
100
AcDbEntity
  8
0
100
AcDbPolyline
 90
        4
 70
     0
 43
0.0
 10
46779.06
 20
12506.47
 10
46779.06
 20
10706.47
 10
50779.06
 20
10706.47
 10
50779.06
 20
12506.47
  0
DIMENSION
  5
122
330
2
100
AcDbEntity
  8
AXIS
100
AcDbDimension
280
     0
  2
*D9
 10
57279.06
 20
15606.47
 30
0.0
 11
57004.06
 21
14106.47
 31
0.0
 70
     1
 71
     5
 42
3000.0
 73
     0
 74
     0
 75
     0
  3
_TCH_ARCH&&100
100
AcDbAlignedDimension
 13
54779.06
 23
12606.47
 33
0.0
 14
54779.06
 24
15606.47
 34
0.0
  0
DIMENSION
  5
136
330
2
100
AcDbEntity
  8
AXIS
100
AcDbDimension
280
     0
  2
*D10
 10
57279.06
 20
17406.47
 30
0.0
 11
57004.06
 21
16506.47
 31
0.0
 70
     1
 71
     5
 42
1800.0
 73
     0
 74
     0
 75
     0
  3
_TCH_ARCH&&100
100
AcDbAlignedDimension
 13
54779.06
 23
15606.47
 33
0.0
 14
54779.06
 24
17406.47
 34
0.0
  0
DIMENSION
  5
143
330
2
100
AcDbEntity
  8
AXIS
100
AcDbDimension
280
     0
  2
*D11
 10
57279.06
 20
20406.47
 30
0.0
 11
57004.06
 21
18906.47
 31
0.0
 70
     1
 71
     5
 42
3000.0
 73
     0
 74
     0
 75
     0
  3
_TCH_ARCH&&100
100
AcDbAlignedDimension
 13
54779.06
 23
17406.47
 33
0.0
 14
54779.06
 24
20406.47
 34
0.0
  0
DIMENSION
  5
150
330
2
100
AcDbEntity
  8
AXIS
100
AcDbDimension
280
     0
  2
*D12
 10
58079.06
 20
20406.47
 30
0.0
 11
57804.06
 21
16506.47
 31
0.0
 70
     1
 71
     5
 42
7800.0
 73
     0
 74
     0
 75
     0
  3
_TCH_ARCH&&100
100
AcDbAlignedDimension
 13
54779.06
 23
12606.47
 33
0.0
 14
54779.06
 24
20406.47
 34
0.0
  0
DIMENSION
  5
15D
330
2
100
AcDbEntity
  8
AXIS
100
AcDbDimension
280
     0
  2
*D13
 10
39479.06
 20
15606.47
 30
0.0
 11
39204.06
 21
14106.47
 31
0.0
 70
     1
 71
     5
 42
3000.0
 73
     0
 74
     0
 75
     0
  3
_TCH_ARCH&&100
100
AcDbAlignedDimension
 13
41979.06
 23
12606.47
 33
0.0
 14
41979.06
 24
15606.47
 34
0.0
  0
DIMENSION
  5
16A
330
2
100
AcDbEntity
  8
AXIS
100
AcDbDimension
280
     0
  2
*D14
 10
39479.06
 20
17406.47
 30
0.0
 11
39204.06
 21
16506.47
 31
0.0
 70
     1
 71
     5
 42
1800.0
 73
     0
 74
     0
 75
     0
  3
_TCH_ARCH&&100
100
AcDbAlignedDimension
 13
41979.06
 23
15606.47
 33
0.0
 14
41979.06
 24
17406.47
 34
0.0
  0
DIMENSION
  5
177
330
2
100
AcDbEntity
  8
AXIS
100
AcDbDimension
280
     0
  2
*D15
 10
39479.06
 20
20406.47
 30
0.0
 11
39204.06
 21
18906.47
 31
0.0
 70
     1
 71
     5
 42
3000.0
 73
     0
 74
     0
 75
     0
  3
_TCH_ARCH&&100
100
AcDbAlignedDimension
 13
41979.06
 23
17406.47
 33
0.0
 14
41979.06
 24
20406.47
 34
0.0
  0
DIMENSION
  5
184
330
2
100
AcDbEntity
  8
AXIS
100
AcDbDimension
280
     0
  2
*D16
 10
38679.06
 20
20406.47
 30
0.0
 11
38404.06
 21
16506.47
 31
0.0
 70
     1
 71
     5
 42
7800.0
 73
     0
 74
     0
 75
     0
  3
_TCH_ARCH&&100
100
AcDbAlignedDimension
 13
41979.06
 23
12606.47
 33
0.0
 14
41979.06
 24
20406.47
 34
0.0
  0
DIMENSION
  5
191
330
2
100
AcDbEntity
  8
AXIS
100
AcDbDimension
280
     0
  2
*D17
 10
46779.06
 20
23906.47
 30
0.0
 11
44879.06
 21
24181.47
 31
0.0
 70
     1
 71
     5
 42
3800.0
 73
     0
 74
     0
 75
     0
  3
_TCH_ARCH&&100
100
AcDbAlignedDimension
 13
42979.06
 23
21406.47
 33
0.0
 14
46779.06
 24
21406.47
 34
0.0
  0
DIMENSION
  5
19E
330
2
100
AcDbEntity
  8
AXIS
100
AcDbDimension
280
     0
  2
*D18
 10
50779.06
 20
23906.47
 30
0.0
 11
48779.06
 21
24181.47
 31
0.0
 70
     1
 71
     5
 42
4000.0
 73
     0
 74
     0
 75
     0
  3
_TCH_ARCH&&100
100
AcDbAlignedDimension
 13
46779.06
 23
21406.47
 33
0.0
 14
50779.06
 24
21406.47
 34
0.0
  0
DIMENSION
  5
1AB
330
2
100
AcDbEntity
  8
AXIS
100
AcDbDimension
280
     0
  2
*D19
 10
54579.06
 20
23906.47
 30
0.0
 11
52679.06
 21
24181.47
 31
0.0
 70
     1
 71
     5
 42
3800.0
 73
     0
 74
     0
 75
     0
  3
_TCH_ARCH&&100
100
AcDbAlignedDimension
 13
50779.06
 23
21406.47
 33
0.0
 14
54579.06
 24
21406.47
 34
0.0
  0
DIMENSION
  5
1B8
330
2
100
AcDbEntity
  8
AXIS
100
AcDbDimension
280
     0
  2
*D20
 10
54579.06
 20
24706.47
 30
0.0
 11
48779.06
 21
24981.47
 31
0.0
 70
     1
 71
     5
 42
11600.0
 73
     0
 74
     0
 75
     0
  3
_TCH_ARCH&&100
100
AcDbAlignedDimension
 13
42979.06
 23
21406.47
 33
0.0
 14
54579.06
 24
21406.47
 34
0.0
  0
DIMENSION
  5
1C5
330
2
100
AcDbEntity
  8
AXIS
100
AcDbDimension
280
     0
  2
*D21
 10
46779.06
 20
9106.47
 30
0.0
 11
44879.06
 21
9381.47
 31
0.0
 70
     1
 71
     5
 42
3800.0
 73
     0
 74
     0
 75
     0
  3
_TCH_ARCH&&100
100
AcDbAlignedDimension
 13
42979.06
 23
11606.47
 33
0.0
 14
46779.06
 24
11606.47
 34
0.0
  0
DIMENSION
  5
1D2
330
2
100
AcDbEntity
  8
AXIS
100
AcDbDimension
280
     0
  2
*D22
 10
50779.06
 20
9106.47
 30
0.0
 11
48779.06
 21
9381.47
 31
0.0
 70
     1
 71
     5
 42
4000.0
 73
     0
 74
     0
 75
     0
  3
_TCH_ARCH&&100
100
AcDbAlignedDimension
 13
46779.06
 23
11606.47
 33
0.0
 14
50779.06
 24
11606.47
 34
0.0
  0
DIMENSION
  5
1DF
330
2
100
AcDbEntity
  8
AXIS
100
AcDbDimension
280
     0
  2
*D23
 10
54579.06
 20
9106.47
 30
0.0
 11
52679.06
 21
9381.47
 31
0.0
 70
     1
 71
     5
 42
3800.0
 73
     0
 74
     0
 75
     0
  3
_TCH_ARCH&&100
100
AcDbAlignedDimension
 13
50779.06
 23
11606.47
 33
0.0
 14
54579.06
 24
11606.47
 34
0.0
  0
DIMENSION
  5
1EC
330
2
100
AcDbEntity
  8
AXIS
100
AcDbDimension
280
     0
  2
*D24
 10
54579.06
 20
8306.47
 30
0.0
 11
48779.06
 21
8581.47
 31
0.0
 70
     1
 71
     5
 42
11600.0
 73
     0
 74
     0
 75
     0
  3
_TCH_ARCH&&100
100
AcDbAlignedDimension
 13
42979.06
 23
11606.47
 33
0.0
 14
54579.06
 24
11606.47
 34
0.0
  0
LINE
  5
273
330
2
100
AcDbEntity
  8
WALL
100
AcDbLine
 10
42879.06
 20
12506.47
 30
0.0
 11
43979.06
 21
12506.47
 31
0.0
  0
LINE
  5
274
330
2
100
AcDbEntity
  8
WALL
100
AcDbLine
 10
43979.06
 20
12506.47
 30
0.0
 11
43979.06
 21
12706.47
 31
0.0
  0
LINE
  5
275
330
2
100
AcDbEntity
  8
WALL
100
AcDbLine
 10
43979.06
 20
12706.47
 30
0.0
 11
43079.06
 21
12706.47
 31
0.0
  0
LINE
  5
276
330
2
100
AcDbEntity
  8
WALL
100
AcDbLine
 10
46679.06
 20
12706.47
 30
0.0
 11
45779.06
 21
12706.47
 31
0.0
  0
LINE
  5
277
330
2
100
AcDbEntity
  8
WALL
100
AcDbLine
 10
45779.06
 20
12706.47
 30
0.0
 11
45779.06
 21
12506.47
 31
0.0
  0
LINE
  5
278
330
2
100
AcDbEntity
  8
WALL
100
AcDbLine
 10
45779.06
 20
12506.47
 30
0.0
 11
46779.06
 21
12506.47
 31
0.0
  0
LINE
  5
279
330
2
100
AcDbEntity
  8
WALL
100
AcDbLine
 10
54679.06
 20
20506.47
 30
0.0
 11
53579.06
 21
20506.47
 31
0.0
  0
LINE
  5
27A
330
2
100
AcDbEntity
  8
WALL
100
AcDbLine
 10
53579.06
 20
20506.47
 30
0.0
 11
53579.06
 21
20306.47
 31
0.0
  0
LINE
  5
27B
330
2
100
AcDbEntity
  8
WALL
100
AcDbLine
 10
53579.06
 20
20306.47
 30
0.0
 11
54479.06
 21
20306.47
 31
0.0
  0
LINE
  5
27C
330
2
100
AcDbEntity
  8
WALL
100
AcDbLine
 10
50879.06
 20
20306.47
 30
0.0
 11
51779.06
 21
20306.47
 31
0.0
  0
LINE
  5
27D
330
2
100
AcDbEntity
  8
WALL
100
AcDbLine
 10
51779.06
 20
20306.47
 30
0.0
 11
51779.06
 21
20506.47
 31
0.0
  0
LINE
  5
27E
330
2
100
AcDbEntity
  8
WALL
100
AcDbLine
 10
51779.06
 20
20506.47
 30
0.0
 11
50779.06
 21
20506.47
 31
0.0
  0
LINE
  5
27F
330
2
100
AcDbEntity
  8
WALL
100
AcDbLine
 10
43079.06
 20
20306.47
 30
0.0
 11
43079.06
 21
17506.47
 31
0.0
  0
LINE
  5
280
330
2
100
AcDbEntity
  8
WALL
100
AcDbLine
 10
42879.06
 20
20506.47
 30
0.0
 11
42879.06
 21
17406.47
 31
0.0
  0
LINE
  5
281
330
2
100
AcDbEntity
  8
WALL
100
AcDbLine
 10
46779.06
 20
12506.47
 30
0.0
 11
47679.06
 21
12506.47
 31
0.0
  0
LINE
  5
282
330
2
100
AcDbEntity
  8
WALL
100
AcDbLine
 10
47679.06
 20
12506.47
 30
0.0
 11
47679.06
 21
12706.47
 31
0.0
  0
LINE
  5
283
330
2
100
AcDbEntity
  8
WALL
100
AcDbLine
 10
47679.06
 20
12706.47
 30
0.0
 11
46879.06
 21
12706.47
 31
0.0
  0
LINE
  5
284
330
2
100
AcDbEntity
  8
WALL
100
AcDbLine
 10
50679.06
 20
12706.47
 30
0.0
 11
49879.06
 21
12706.47
 31
0.0
  0
LINE
  5
285
330
2
100
AcDbEntity
  8
WALL
100
AcDbLine
 10
49879.06
 20
12706.47
 30
0.0
 11
49879.06
 21
12506.47
 31
0.0
  0
LINE
  5
286
330
2
100
AcDbEntity
  8
WALL
100
AcDbLine
 10
49879.06
 20
12506.47
 30
0.0
 11
50779.06
 21
12506.47
 31
0.0
  0
LINE
  5
287
330
2
100
AcDbEntity
  8
WALL
100
AcDbLine
 10
46679.06
 20
12706.47
 30
0.0
 11
46679.06
 21
15506.47
 31
0.0
  0
LINE
  5
288
330
2
100
AcDbEntity
  8
WALL
100
AcDbLine
 10
46879.06
 20
12706.47
 30
0.0
 11
46879.06
 21
15706.47
 31
0.0
  0
LINE
  5
289
330
2
100
AcDbEntity
  8
WALL
100
AcDbLine
 10
43079.06
 20
15506.47
 30
0.0
 11
43079.06
 21
12706.47
 31
0.0
  0
LINE
  5
28A
330
2
100
AcDbEntity
  8
WALL
100
AcDbLine
 10
42879.06
 20
15606.47
 30
0.0
 11
42879.06
 21
12506.47
 31
0.0
  0
LINE
  5
28B
330
2
100
AcDbEntity
  8
WALL
100
AcDbLine
 10
46779.06
 20
20506.47
 30
0.0
 11
45779.06
 21
20506.47
 31
0.0
  0
LINE
  5
28C
330
2
100
AcDbEntity
  8
WALL
100
AcDbLine
 10
45779.06
 20
20506.47
 30
0.0
 11
45779.06
 21
20306.47
 31
0.0
  0
LINE
  5
28D
330
2
100
AcDbEntity
  8
WALL
100
AcDbLine
 10
45779.06
 20
20306.47
 30
0.0
 11
46679.06
 21
20306.47
 31
0.0
  0
LINE
  5
28E
330
2
100
AcDbEntity
  8
WALL
100
AcDbLine
 10
43079.06
 20
20306.47
 30
0.0
 11
43979.06
 21
20306.47
 31
0.0
  0
LINE
  5
28F
330
2
100
AcDbEntity
  8
WALL
100
AcDbLine
 10
43979.06
 20
20306.47
 30
0.0
 11
43979.06
 21
20506.47
 31
0.0
  0
LINE
  5
290
330
2
100
AcDbEntity
  8
WALL
100
AcDbLine
 10
43979.06
 20
20506.47
 30
0.0
 11
42879.06
 21
20506.47
 31
0.0
  0
LINE
  5
291
330
2
100
AcDbEntity
  8
WALL
100
AcDbLine
 10
46879.06
 20
17306.47
 30
0.0
 11
46879.06
 21
18006.47
 31
0.0
  0
LINE
  5
292
330
2
100
AcDbEntity
  8
WALL
100
AcDbLine
 10
46879.06
 20
18006.47
 30
0.0
 11
46679.06
 21
18006.47
 31
0.0
  0
LINE
  5
293
330
2
100
AcDbEntity
  8
WALL
100
AcDbLine
 10
46679.06
 20
18006.47
 30
0.0
 11
46679.06
 21
17506.47
 31
0.0
  0
LINE
  5
294
330
2
100
AcDbEntity
  8
WALL
100
AcDbLine
 10
46679.06
 20
20306.47
 30
0.0
 11
46679.06
 21
19806.47
 31
0.0
  0
LINE
  5
295
330
2
100
AcDbEntity
  8
WALL
100
AcDbLine
 10
46679.06
 20
19806.47
 30
0.0
 11
46879.06
 21
19806.47
 31
0.0
  0
LINE
  5
296
330
2
100
AcDbEntity
  8
WALL
100
AcDbLine
 10
46879.06
 20
19806.47
 30
0.0
 11
46879.06
 21
20306.47
 31
0.0
  0
LINE
  5
297
330
2
100
AcDbEntity
  8
WALL
100
AcDbLine
 10
42879.06
 20
17406.47
 30
0.0
 11
42879.06
 21
16956.47
 31
0.0
  0
LINE
  5
298
330
2
100
AcDbEntity
  8
WALL
100
AcDbLine
 10
42879.06
 20
16956.47
 30
0.0
 11
43079.06
 21
16956.47
 31
0.0
  0
LINE
  5
299
330
2
100
AcDbEntity
  8
WALL
100
AcDbLine
 10
43079.06
 20
16956.47
 30
0.0
 11
43079.06
 21
17306.47
 31
0.0
  0
LINE
  5
29A
330
2
100
AcDbEntity
  8
WALL
100
AcDbLine
 10
43079.06
 20
15706.47
 30
0.0
 11
43079.06
 21
16056.47
 31
0.0
  0
LINE
  5
29B
330
2
100
AcDbEntity
  8
WALL
100
AcDbLine
 10
43079.06
 20
16056.47
 30
0.0
 11
42879.06
 21
16056.47
 31
0.0
  0
LINE
  5
29C
330
2
100
AcDbEntity
  8
WALL
100
AcDbLine
 10
42879.06
 20
16056.47
 30
0.0
 11
42879.06
 21
15606.47
 31
0.0
  0
LINE
  5
29D
330
2
100
AcDbEntity
  8
WALL
100
AcDbLine
 10
45379.06
 20
17306.47
 30
0.0
 11
45379.06
 21
16606.47
 31
0.0
  0
LINE
  5
29E
330
2
100
AcDbEntity
  8
WALL
100
AcDbLine
 10
45379.06
 20
16606.47
 30
0.0
 11
45579.06
 21
16606.47
 31
0.0
  0
LINE
  5
29F
330
2
100
AcDbEntity
  8
WALL
100
AcDbLine
 10
45579.06
 20
16606.47
 30
0.0
 11
45579.06
 21
17306.47
 31
0.0
  0
LINE
  5
2A0
330
2
100
AcDbEntity
  8
WALL
100
AcDbLine
 10
45579.06
 20
15706.47
 30
0.0
 11
45579.06
 21
15806.47
 31
0.0
  0
LINE
  5
2A1
330
2
100
AcDbEntity
  8
WALL
100
AcDbLine
 10
45579.06
 20
15806.47
 30
0.0
 11
45379.06
 21
15806.47
 31
0.0
  0
LINE
  5
2A2
330
2
100
AcDbEntity
  8
WALL
100
AcDbLine
 10
45379.06
 20
15806.47
 30
0.0
 11
45379.06
 21
15706.47
 31
0.0
  0
LINE
  5
2A3
330
2
100
AcDbEntity
  8
WALL
100
AcDbLine
 10
43079.06
 20
17506.47
 30
0.0
 11
45479.06
 21
17506.47
 31
0.0
  0
LINE
  5
2A4
330
2
100
AcDbEntity
  8
WALL
100
AcDbLine
 10
43079.06
 20
17306.47
 30
0.0
 11
45379.06
 21
17306.47
 31
0.0
  0
LINE
  5
2A5
330
2
100
AcDbEntity
  8
WALL
100
AcDbLine
 10
43079.06
 20
15706.47
 30
0.0
 11
45379.06
 21
15706.47
 31
0.0
  0
LINE
  5
2A6
330
2
100
AcDbEntity
  8
WALL
100
AcDbLine
 10
43079.06
 20
15506.47
 30
0.0
 11
45479.06
 21
15506.47
 31
0.0
  0
LINE
  5
2A7
330
2
100
AcDbEntity
  8
WALL
100
AcDbLine
 10
45479.06
 20
17506.47
 30
0.0
 11
46679.06
 21
17506.47
 31
0.0
  0
LINE
  5
2A8
330
2
100
AcDbEntity
  8
WALL
100
AcDbLine
 10
45579.06
 20
17306.47
 30
0.0
 11
46879.06
 21
17306.47
 31
0.0
  0
LINE
  5
2A9
330
2
100
AcDbEntity
  8
WALL
100
AcDbLine
 10
45479.06
 20
15506.47
 30
0.0
 11
45629.06
 21
15506.47
 31
0.0
  0
LINE
  5
2AA
330
2
100
AcDbEntity
  8
WALL
100
AcDbLine
 10
45629.06
 20
15506.47
 30
0.0
 11
45629.06
 21
15706.47
 31
0.0
  0
LINE
  5
2AB
330
2
100
AcDbEntity
  8
WALL
100
AcDbLine
 10
45629.06
 20
15706.47
 30
0.0
 11
45579.06
 21
15706.47
 31
0.0
  0
LINE
  5
2AC
330
2
100
AcDbEntity
  8
WALL
100
AcDbLine
 10
46879.06
 20
15706.47
 30
0.0
 11
46629.06
 21
15706.47
 31
0.0
  0
LINE
  5
2AD
330
2
100
AcDbEntity
  8
WALL
100
AcDbLine
 10
46629.06
 20
15706.47
 30
0.0
 11
46629.06
 21
15506.47
 31
0.0
  0
LINE
  5
2AE
330
2
100
AcDbEntity
  8
WALL
100
AcDbLine
 10
46629.06
 20
15506.47
 30
0.0
 11
46679.06
 21
15506.47
 31
0.0
  0
INSERT
  5
2AF
330
2
100
AcDbEntity
  8
WINDOW
100
AcDbBlockReference
 66
     1
  2
$DorLib2D$00000001
 10
46129.06
 20
15606.47
 30
0.0
 41
1000.0
 42
-1000.0
 43
1000.0
1001
WTHICK
1040
200.0
  0
ATTRIB
  5
2B0
330
2AF
100
AcDbEntity
  8
WINDOW_TEXT
100
AcDbText
 10
45934.06
 20
15732.72
 30
0.0
 40
297.5
  1

 41
0.71
  7
_TCH_WINDOW
100
AcDbAttribute
280
     0
  2
A
 70
     0
280
     0
  0
SEQEND
  5
2B1
330
2AF
100
AcDbEntity
  8
WINDOW
  0
INSERT
  5
2B2
330
2
100
AcDbEntity
  8
WINDOW
100
AcDbBlockReference
 66
     1
  2
$DorLib2D$00000001
 10
45479.06
 20
16206.47
 30
0.0
 41
800.0
 42
-800.0
 43
800.0
 50
270.0
1001
WTHICK
1040
200.0
  0
ATTRIB
  5
2B3
330
2B2
100
AcDbEntity
  8
WINDOW_TEXT
100
AcDbText
 10
45902.81
 20
16011.47
 30
0.0
 40
297.5
  1

 50
90.0
 41
0.71
  7
_TCH_WINDOW
100
AcDbAttribute
280
     0
  2
A
 70
     0
280
     0
  0
SEQEND
  5
2B4
330
2B2
100
AcDbEntity
  8
WINDOW
  0
LINE
  5
2B5
330
2
100
AcDbEntity
  8
WALL
100
AcDbLine
 10
54679.06
 20
20506.47
 30
0.0
 11
54679.06
 21
17406.47
 31
0.0
  0
LINE
  5
2B6
330
2
100
AcDbEntity
  8
WALL
100
AcDbLine
 10
54479.06
 20
20306.47
 30
0.0
 11
54479.06
 21
17506.47
 31
0.0
  0
LINE
  5
2B7
330
2
100
AcDbEntity
  8
WALL
100
AcDbLine
 10
50679.06
 20
12706.47
 30
0.0
 11
50679.06
 21
15706.47
 31
0.0
  0
LINE
  5
2B8
330
2
100
AcDbEntity
  8
WALL
100
AcDbLine
 10
50879.06
 20
12706.47
 30
0.0
 11
50879.06
 21
15506.47
 31
0.0
  0
LINE
  5
2B9
330
2
100
AcDbEntity
  8
WALL
100
AcDbLine
 10
54679.06
 20
15606.47
 30
0.0
 11
54679.06
 21
12506.47
 31
0.0
  0
LINE
  5
2BA
330
2
100
AcDbEntity
  8
WALL
100
AcDbLine
 10
54479.06
 20
15506.47
 30
0.0
 11
54479.06
 21
12706.47
 31
0.0
  0
LINE
  5
2BB
330
2
100
AcDbEntity
  8
WALL
100
AcDbLine
 10
50679.06
 20
17306.47
 30
0.0
 11
50679.06
 21
20306.47
 31
0.0
  0
LINE
  5
2BC
330
2
100
AcDbEntity
  8
WALL
100
AcDbLine
 10
50879.06
 20
17506.47
 30
0.0
 11
50879.06
 21
20306.47
 31
0.0
  0
LINE
  5
2BD
330
2
100
AcDbEntity
  8
WALL
100
AcDbLine
 10
54479.06
 20
17306.47
 30
0.0
 11
54479.06
 21
16956.47
 31
0.0
  0
LINE
  5
2BE
330
2
100
AcDbEntity
  8
WALL
100
AcDbLine
 10
54479.06
 20
16956.47
 30
0.0
 11
54679.06
 21
16956.47
 31
0.0
  0
LINE
  5
2BF
330
2
100
AcDbEntity
  8
WALL
100
AcDbLine
 10
54679.06
 20
16956.47
 30
0.0
 11
54679.06
 21
17406.47
 31
0.0
  0
LINE
  5
2C0
330
2
100
AcDbEntity
  8
WALL
100
AcDbLine
 10
54679.06
 20
15606.47
 30
0.0
 11
54679.06
 21
16056.47
 31
0.0
  0
LINE
  5
2C1
330
2
100
AcDbEntity
  8
WALL
100
AcDbLine
 10
54679.06
 20
16056.47
 30
0.0
 11
54479.06
 21
16056.47
 31
0.0
  0
LINE
  5
2C2
330
2
100
AcDbEntity
  8
WALL
100
AcDbLine
 10
54479.06
 20
16056.47
 30
0.0
 11
54479.06
 21
15706.47
 31
0.0
  0
LINE
  5
2C3
330
2
100
AcDbEntity
  8
WALL
100
AcDbLine
 10
51979.06
 20
17306.47
 30
0.0
 11
51979.06
 21
16606.47
 31
0.0
  0
LINE
  5
2C4
330
2
100
AcDbEntity
  8
WALL
100
AcDbLine
 10
51979.06
 20
16606.47
 30
0.0
 11
52179.06
 21
16606.47
 31
0.0
  0
LINE
  5
2C5
330
2
100
AcDbEntity
  8
WALL
100
AcDbLine
 10
52179.06
 20
16606.47
 30
0.0
 11
52179.06
 21
17306.47
 31
0.0
  0
LINE
  5
2C6
330
2
100
AcDbEntity
  8
WALL
100
AcDbLine
 10
52179.06
 20
15706.47
 30
0.0
 11
52179.06
 21
15806.47
 31
0.0
  0
LINE
  5
2C7
330
2
100
AcDbEntity
  8
WALL
100
AcDbLine
 10
52179.06
 20
15806.47
 30
0.0
 11
51979.06
 21
15806.47
 31
0.0
  0
LINE
  5
2C8
330
2
100
AcDbEntity
  8
WALL
100
AcDbLine
 10
51979.06
 20
15806.47
 30
0.0
 11
51979.06
 21
15706.47
 31
0.0
  0
INSERT
  5
2C9
330
2
100
AcDbEntity
  8
WINDOW
100
AcDbBlockReference
 66
     1
  2
$DorLib2D$00000001
 10
52079.06
 20
16206.47
 30
0.0
 41
800.0
 42
800.0
 43
800.0
 50
270.0
1001
WTHICK
1040
200.0
  0
ATTRIB
  5
2CA
330
2C9
100
AcDbEntity
  8
WINDOW_TEXT
100
AcDbText
 10
51952.81
 20
16011.47
 30
0.0
 40
297.5
  1

 50
90.0
 41
0.71
  7
_TCH_WINDOW
100
AcDbAttribute
280
     0
  2
A
 70
     0
280
     0
  0
SEQEND
  5
2CB
330
2C9
100
AcDbEntity
  8
WINDOW
  0
LINE
  5
2CC
330
2
100
AcDbEntity
  8
WALL
100
AcDbLine
 10
54479.06
 20
17306.47
 30
0.0
 11
52179.06
 21
17306.47
 31
0.0
  0
LINE
  5
2CD
330
2
100
AcDbEntity
  8
WALL
100
AcDbLine
 10
54479.06
 20
17506.47
 30
0.0
 11
52079.06
 21
17506.47
 31
0.0
  0
LINE
  5
2CE
330
2
100
AcDbEntity
  8
WALL
100
AcDbLine
 10
54479.06
 20
15506.47
 30
0.0
 11
52079.06
 21
15506.47
 31
0.0
  0
LINE
  5
2CF
330
2
100
AcDbEntity
  8
WALL
100
AcDbLine
 10
54479.06
 20
15706.47
 30
0.0
 11
52179.06
 21
15706.47
 31
0.0
  0
LINE
  5
2D0
330
2
100
AcDbEntity
  8
WALL
100
AcDbLine
 10
52079.06
 20
17506.47
 30
0.0
 11
51929.06
 21
17506.47
 31
0.0
  0
LINE
  5
2D1
330
2
100
AcDbEntity
  8
WALL
100
AcDbLine
 10
51929.06
 20
17506.47
 30
0.0
 11
51929.06
 21
17306.47
 31
0.0
  0
LINE
  5
2D2
330
2
100
AcDbEntity
  8
WALL
100
AcDbLine
 10
51929.06
 20
17306.47
 30
0.0
 11
51979.06
 21
17306.47
 31
0.0
  0
LINE
  5
2D3
330
2
100
AcDbEntity
  8
WALL
100
AcDbLine
 10
50679.06
 20
17306.47
 30
0.0
 11
50929.06
 21
17306.47
 31
0.0
  0
LINE
  5
2D4
330
2
100
AcDbEntity
  8
WALL
100
AcDbLine
 10
50929.06
 20
17306.47
 30
0.0
 11
50929.06
 21
17506.47
 31
0.0
  0
LINE
  5
2D5
330
2
100
AcDbEntity
  8
WALL
100
AcDbLine
 10
50929.06
 20
17506.47
 30
0.0
 11
50879.06
 21
17506.47
 31
0.0
  0
INSERT
  5
2D6
330
2
100
AcDbEntity
  8
WINDOW
100
AcDbBlockReference
 66
     1
  2
$DorLib2D$00000001
 10
51429.06
 20
17406.47
 30
0.0
 41
1000.0
 42
-1000.0
 43
1000.0
 50
180.0
1001
WTHICK
1040
200.0
  0
ATTRIB
  5
2D7
330
2D6
100
AcDbEntity
  8
WINDOW_TEXT
100
AcDbText
 10
51234.06
 20
16982.72
 30
0.0
 40
297.5
  1

 41
0.71
  7
_TCH_WINDOW
100
AcDbAttribute
280
     0
  2
A
 70
     0
280
     0
  0
SEQEND
  5
2D8
330
2D6
100
AcDbEntity
  8
WINDOW
  0
LINE
  5
2D9
330
2
100
AcDbEntity
  8
WALL
100
AcDbLine
 10
51979.06
 20
15706.47
 30
0.0
 11
51929.06
 21
15706.47
 31
0.0
  0
LINE
  5
2DA
330
2
100
AcDbEntity
  8
WALL
100
AcDbLine
 10
51929.06
 20
15706.47
 30
0.0
 11
51929.06
 21
15506.47
 31
0.0
  0
LINE
  5
2DB
330
2
100
AcDbEntity
  8
WALL
100
AcDbLine
 10
51929.06
 20
15506.47
 30
0.0
 11
52079.06
 21
15506.47
 31
0.0
  0
LINE
  5
2DC
330
2
100
AcDbEntity
  8
WALL
100
AcDbLine
 10
50879.06
 20
15506.47
 30
0.0
 11
50929.06
 21
15506.47
 31
0.0
  0
LINE
  5
2DD
330
2
100
AcDbEntity
  8
WALL
100
AcDbLine
 10
50929.06
 20
15506.47
 30
0.0
 11
50929.06
 21
15706.47
 31
0.0
  0
LINE
  5
2DE
330
2
100
AcDbEntity
  8
WALL
100
AcDbLine
 10
50929.06
 20
15706.47
 30
0.0
 11
50679.06
 21
15706.47
 31
0.0
  0
INSERT
  5
2DF
330
2
100
AcDbEntity
  8
WINDOW
100
AcDbBlockReference
 66
     1
  2
$DorLib2D$00000001
 10
51429.06
 20
15606.47
 30
0.0
 41
1000.0
 42
1000.0
 43
1000.0
 50
180.0
1001
WTHICK
1040
200.0
  0
ATTRIB
  5
2E0
330
2DF
100
AcDbEntity
  8
WINDOW_TEXT
100
AcDbText
 10
51234.06
 20
15732.72
 30
0.0
 40
297.5
  1

 41
0.71
  7
_TCH_WINDOW
100
AcDbAttribute
280
     0
  2
A
 70
     0
280
     0
  0
SEQEND
  5
2E1
330
2DF
100
AcDbEntity
  8
WINDOW
  0
LINE
  5
2E2
330
2
100
AcDbEntity
  8
WALL
100
AcDbLine
 10
50779.06
 20
12506.47
 30
0.0
 11
51779.06
 21
12506.47
 31
0.0
  0
LINE
  5
2E3
330
2
100
AcDbEntity
  8
WALL
100
AcDbLine
 10
51779.06
 20
12506.47
 30
0.0
 11
51779.06
 21
12706.47
 31
0.0
  0
LINE
  5
2E4
330
2
100
AcDbEntity
  8
WALL
100
AcDbLine
 10
51779.06
 20
12706.47
 30
0.0
 11
50879.06
 21
12706.47
 31
0.0
  0
LINE
  5
2E5
330
2
100
AcDbEntity
  8
WALL
100
AcDbLine
 10
54479.06
 20
12706.47
 30
0.0
 11
53579.06
 21
12706.47
 31
0.0
  0
LINE
  5
2E6
330
2
100
AcDbEntity
  8
WALL
100
AcDbLine
 10
53579.06
 20
12706.47
 30
0.0
 11
53579.06
 21
12506.47
 31
0.0
  0
LINE
  5
2E7
330
2
100
AcDbEntity
  8
WALL
100
AcDbLine
 10
53579.06
 20
12506.47
 30
0.0
 11
54679.06
 21
12506.47
 31
0.0
  0
LINE
  5
2E8
330
2
100
AcDbEntity
  8
WALL
100
AcDbLine
 10
50779.06
 20
20506.47
 30
0.0
 11
49679.06
 21
20506.47
 31
0.0
  0
LINE
  5
2E9
330
2
100
AcDbEntity
  8
WALL
100
AcDbLine
 10
49679.06
 20
20506.47
 30
0.0
 11
49679.06
 21
20306.47
 31
0.0
  0
LINE
  5
2EA
330
2
100
AcDbEntity
  8
WALL
100
AcDbLine
 10
49679.06
 20
20306.47
 30
0.0
 11
50679.06
 21
20306.47
 31
0.0
  0
LINE
  5
2EB
330
2
100
AcDbEntity
  8
WALL
100
AcDbLine
 10
46879.06
 20
20306.47
 30
0.0
 11
47879.06
 21
20306.47
 31
0.0
  0
LINE
  5
2EC
330
2
100
AcDbEntity
  8
WALL
100
AcDbLine
 10
47879.06
 20
20306.47
 30
0.0
 11
47879.06
 21
20506.47
 31
0.0
  0
LINE
  5
2ED
330
2
100
AcDbEntity
  8
WALL
100
AcDbLine
 10
47879.06
 20
20506.47
 30
0.0
 11
46779.06
 21
20506.47
 31
0.0
  0
TEXT
  5
2EE
330
2
100
AcDbEntity
  8
SPACE
100
AcDbText
 10
44700.81
 20
14268.91
 30
0.0
 40
482.27
  1
卧室
  7
_TCH_SPACE
100
AcDbText
  0
TEXT
  5
2EF
330
2
100
AcDbEntity
  8
SPACE
100
AcDbText
 10
44396.98
 20
13757.03
 30
0.0
 40
297.5
  1
10.08m
 41
0.71
  7
_TCH_SPACE
100
AcDbText
  0
TEXT
  5
2F0
330
2
100
AcDbEntity
  8
SPACE
100
AcDbText
 10
45556.98
 20
13932.03
 30
0.0
 40
148.75
  1
2
 41
0.71
  7
_TCH_SPACE
100
AcDbText
  0
TEXT
  5
2F1
330
2
100
AcDbEntity
  8
SPACE
100
AcDbText
 10
44406.79
 20
18846.61
 30
0.0
 40
482.27
  1
厨房
  7
_TCH_SPACE
100
AcDbText
  0
TEXT
  5
2F2
330
2
100
AcDbEntity
  8
SPACE
100
AcDbText
 10
44118.92
 20
18334.73
 30
0.0
 40
297.5
  1
10.08m
 41
0.71
  7
_TCH_SPACE
100
AcDbText
  0
TEXT
  5
2F3
330
2
100
AcDbEntity
  8
SPACE
100
AcDbText
 10
45278.92
 20
18509.73
 30
0.0
 40
148.75
  1
2
 41
0.71
  7
_TCH_SPACE
100
AcDbText
  0
TEXT
  5
2F4
330
2
100
AcDbEntity
  8
SPACE
100
AcDbText
 10
52442.13
 20
19234.4
 30
0.0
 40
482.27
  1
卧室
  7
_TCH_SPACE
100
AcDbText
  0
TEXT
  5
2F5
330
2
100
AcDbEntity
  8
SPACE
100
AcDbText
 10
52138.3
 20
18722.53
 30
0.0
 40
297.5
  1
10.08m
 41
0.71
  7
_TCH_SPACE
100
AcDbText
  0
TEXT
  5
2F6
330
2
100
AcDbEntity
  8
SPACE
100
AcDbText
 10
53298.3
 20
18897.53
 30
0.0
 40
148.75
  1
2
 41
0.71
  7
_TCH_SPACE
100
AcDbText
  0
TEXT
  5
2F7
330
2
100
AcDbEntity
  8
SPACE
100
AcDbText
 10
52347.79
 20
14185.93
 30
0.0
 40
482.27
  1
卧室
  7
_TCH_SPACE
100
AcDbText
  0
TEXT
  5
2F8
330
2
100
AcDbEntity
  8
SPACE
100
AcDbText
 10
52043.96
 20
13674.06
 30
0.0
 40
297.5
  1
10.08m
 41
0.71
  7
_TCH_SPACE
100
AcDbText
  0
TEXT
  5
2F9
330
2
100
AcDbEntity
  8
SPACE
100
AcDbText
 10
53203.96
 20
13849.06
 30
0.0
 40
148.75
  1
2
 41
0.71
  7
_TCH_SPACE
100
AcDbText
  0
TEXT
  5
2FA
330
2
100
AcDbEntity
  8
SPACE
100
AcDbText
 10
43560.71
 20
16650.22
 30
0.0
 40
482.27
  1
卫生间
  7
_TCH_SPACE
100
AcDbText
  0
TEXT
  5
2FB
330
2
100
AcDbEntity
  8
SPACE
100
AcDbText
 10
43504.44
 20
16138.35
 30
0.0
 40
297.5
  1
3.68m
 41
0.71
  7
_TCH_SPACE
100
AcDbText
  0
TEXT
  5
2FC
330
2
100
AcDbEntity
  8
SPACE
100
AcDbText
 10
44504.44
 20
16313.35
 30
0.0
 40
148.75
  1
2
 41
0.71
  7
_TCH_SPACE
100
AcDbText
  0
TEXT
  5
2FD
330
2
100
AcDbEntity
  8
SPACE
100
AcDbText
 10
52975.99
 20
16607.47
 30
0.0
 40
482.27
  1
卫生间
  7
_TCH_SPACE
100
AcDbText
  0
TEXT
  5
2FE
330
2
100
AcDbEntity
  8
SPACE
100
AcDbText
 10
52919.72
 20
16095.59
 30
0.0
 40
297.5
  1
3.68m
 41
0.71
  7
_TCH_SPACE
100
AcDbText
  0
TEXT
  5
2FF
330
2
100
AcDbEntity
  8
SPACE
100
AcDbText
 10
53919.72
 20
16270.59
 30
0.0
 40
148.75
  1
2
 41
0.71
  7
_TCH_SPACE
100
AcDbText
  0
INSERT
  5
300
330
2
100
AcDbEntity
  8
WINDOW
100
AcDbBlockReference
 66
     1
  2
$DorLib2D$00000131
 10
46779.06
 20
18906.47
 30
0.0
 41
-1800.0
 42
-200.0
 43
-1800.0
 50
90.0
1001
WTHICK
1040
200.0
  0
ATTRIB
  5
301
330
300
100
AcDbEntity
  8
WINDOW_TEXT
100
AcDbText
 10
46552.81
 20
18711.47
 30
0.0
 40
297.5
  1

 50
90.0
 41
0.71
  7
_TCH_WINDOW
100
AcDbAttribute
280
     0
  2
A
 70
     0
280
     0
  0
SEQEND
  5
302
330
300
100
AcDbEntity
  8
WINDOW
  0
TEXT
  5
303
330
2
100
AcDbEntity
  8
SPACE
100
AcDbText
 10
48487.52
 20
15030.43
 30
0.0
 40
482.27
  1
客厅
  7
_TCH_SPACE
100
AcDbText
  0
TEXT
  5
304
330
2
100
AcDbEntity
  8
SPACE
100
AcDbText
 10
48196.98
 20
14518.55
 30
0.0
 40
297.5
  1
17.48m
 41
0.71
  7
_TCH_SPACE
100
AcDbText
  0
TEXT
  5
305
330
2
100
AcDbEntity
  8
SPACE
100
AcDbText
 10
49356.98
 20
14693.55
 30
0.0
 40
148.75
  1
2
 41
0.71
  7
_TCH_SPACE
100
AcDbText
  0
TEXT
  5
306
330
2
100
AcDbEntity
  8
SPACE
100
AcDbText
 10
48620.85
 20
19234.4
 30
0.0
 40
482.27
  1
餐厅
  7
_TCH_SPACE
100
AcDbText
  0
TEXT
  5
307
330
2
100
AcDbEntity
  8
SPACE
100
AcDbText
 10
48358.3
 20
18722.53
 30
0.0
 40
297.5
  1
11.40m
 41
0.71
  7
_TCH_SPACE
100
AcDbText
  0
TEXT
  5
308
330
2
100
AcDbEntity
  8
SPACE
100
AcDbText
 10
49478.3
 20
18897.53
 30
0.0
 40
148.75
  1
2
 41
0.71
  7
_TCH_SPACE
100
AcDbText
  0
INSERT
  5
309
330
2
100
AcDbEntity
  8
WINDOW
100
AcDbBlockReference
 66
     1
  2
$TCHSYS$WIN2D
 10
44879.06
 20
12606.47
 30
0.0
 41
1800.0
 42
200.0
 43
1800.0
 50
360.0
1001
WTHICK
1040
200.0
  0
ATTRIB
  5
30A
330
309
100
AcDbEntity
  8
WINDOW_TEXT
100
AcDbText
 10
44684.06
 20
12082.72
 30
0.0
 40
297.5
  1

 41
0.71
  7
_TCH_WINDOW
100
AcDbAttribute
280
     0
  2
A
 70
     0
280
     0
  0
SEQEND
  5
30B
330
309
100
AcDbEntity
  8
WINDOW
  0
INSERT
  5
30C
330
2
100
AcDbEntity
  8
WINDOW
100
AcDbBlockReference
 66
     1
  2
$TCHSYS$WIN2D
 10
52679.06
 20
12606.47
 30
0.0
 41
1800.0
 42
200.0
 43
1800.0
 50
0.0
1001
WTHICK
1040
200.0
  0
ATTRIB
  5
30D
330
30C
100
AcDbEntity
  8
WINDOW_TEXT
100
AcDbText
 10
52484.06
 20
12082.72
 30
0.0
 40
297.5
  1

 50
0.0
 41
0.71
  7
_TCH_WINDOW
100
AcDbAttribute
280
     0
  2
A
 70
     0
280
     0
  0
SEQEND
  5
30E
330
30C
100
AcDbEntity
  8
WINDOW
  0
INSERT
  5
30F
330
2
100
AcDbEntity
  8
WINDOW
100
AcDbBlockReference
 66
     1
  2
$TCHSYS$WIN2D
 10
52679.06
 20
20406.47
 30
0.0
 41
1800.0
 42
200.0
 43
1800.0
 50
180.0
1001
WTHICK
1040
200.0
  0
ATTRIB
  5
310
330
30F
100
AcDbEntity
  8
WINDOW_TEXT
100
AcDbText
 10
52484.06
 20
20632.72
 30
0.0
 40
297.5
  1

 41
0.71
  7
_TCH_WINDOW
100
AcDbAttribute
280
     0
  2
A
 70
     0
280
     0
  0
SEQEND
  5
311
330
30F
100
AcDbEntity
  8
WINDOW
  0
INSERT
  5
312
330
2
100
AcDbEntity
  8
WINDOW
100
AcDbBlockReference
 66
     1
  2
$TCHSYS$WIN2D
 10
44879.06
 20
20406.47
 30
0.0
 41
1800.0
 42
200.0
 43
1800.0
 50
180.0
1001
WTHICK
1040
200.0
  0
ATTRIB
  5
313
330
312
100
AcDbEntity
  8
WINDOW_TEXT
100
AcDbText
 10
44684.06
 20
20632.72
 30
0.0
 40
297.5
  1

 50
360.0
 41
0.71
  7
_TCH_WINDOW
100
AcDbAttribute
280
     0
  2
A
 70
     0
280
     0
  0
SEQEND
  5
314
330
312
100
AcDbEntity
  8
WINDOW
  0
INSERT
  5
315
330
2
100
AcDbEntity
  8
WINDOW
100
AcDbBlockReference
 66
     1
  2
$TCHSYS$WIN2D
 10
48779.06
 20
20406.47
 30
0.0
 41
1800.0
 42
200.0
 43
1800.0
 50
180.0
1001
WTHICK
1040
200.0
  0
ATTRIB
  5
316
330
315
100
AcDbEntity
  8
WINDOW_TEXT
100
AcDbText
 10
48584.06
 20
20632.72
 30
0.0
 40
297.5
  1

 50
0.0
 41
0.71
  7
_TCH_WINDOW
100
AcDbAttribute
280
     0
  2
A
 70
     0
280
     0
  0
SEQEND
  5
317
330
315
100
AcDbEntity
  8
WINDOW
  0
INSERT
  5
318
330
2
100
AcDbEntity
  8
WINDOW
100
AcDbBlockReference
 66
     1
  2
$TCHSYS$WIN2D
 10
42979.06
 20
16506.47
 30
0.0
 41
900.0
 42
200.0
 43
900.0
 50
270.0
1001
WTHICK
1040
200.0
  0
ATTRIB
  5
319
330
318
100
AcDbEntity
  8
WINDOW_TEXT
100
AcDbText
 10
42752.81
 20
16311.47
 30
0.0
 40
297.5
  1

 50
90.0
 41
0.71
  7
_TCH_WINDOW
100
AcDbAttribute
280
     0
  2
A
 70
     0
280
     0
  0
SEQEND
  5
31A
330
318
100
AcDbEntity
  8
WINDOW
  0
INSERT
  5
31B
330
2
100
AcDbEntity
  8
WINDOW
100
AcDbBlockReference
 66
     1
  2
$TCHSYS$WIN2D
 10
54579.06
 20
16506.47
 30
0.0
 41
900.0
 42
200.0
 43
900.0
 50
270.0
1001
WTHICK
1040
200.0
  0
ATTRIB
  5
31C
330
31B
100
AcDbEntity
  8
WINDOW_TEXT
100
AcDbText
 10
54352.81
 20
16311.47
 30
0.0
 40
297.5
  1

 50
90.0
 41
0.71
  7
_TCH_WINDOW
100
AcDbAttribute
280
     0
  2
A
 70
     0
280
     0
  0
SEQEND
  5
31D
330
31B
100
AcDbEntity
  8
WINDOW
  0
INSERT
  5
31E
330
2
100
AcDbEntity
  8
WINDOW
100
AcDbBlockReference
 66
     1
  2
$DorLib2D$00000002
 10
48779.06
 20
12606.47
 30
0.0
 41
2200.0
 42
-2200.0
 43
2200.0
 50
0.0
1001
WTHICK
1040
200.0
  0
ATTRIB
  5
31F
330
31E
100
AcDbEntity
  8
WINDOW_TEXT
100
AcDbText
 10
48584.06
 20
12832.72
 30
0.0
 40
297.5
  1

 50
0.0
 41
0.71
  7
_TCH_WINDOW
100
AcDbAttribute
280
     0
  2
A
 70
     0
280
     0
  0
SEQEND
  5
320
330
31E
100
AcDbEntity
  8
WINDOW
  0
LINE
  5
321
330
2
100
AcDbEntity
  8
AXIS
100
AcDbLine
 10
42979.06
 20
11606.47
 30
0.0
 11
42979.06
 21
7606.47
 31
0.0
  0
INSERT
  5
322
330
2
100
AcDbEntity
  8
AXIS
100
AcDbBlockReference
 66
     1
  2
_AXISO
 10
42979.06
 20
7206.47
 30
0.0
 41
800.0
 42
800.0
 43
800.0
  0
ATTRIB
  5
323
330
322
100
AcDbEntity
  8
AXIS_TEXT
100
AcDbText
 10
42868.77
 20
6949.11
 30
0.0
 40
514.72
  1
1
  7
_TCH_AXIS
 72
     5
 11
43089.36
 21
6949.11
 31
0.0
100
AcDbAttribute
280
     0
  2
A
 70
     0
280
     0
  0
SEQEND
  5
324
330
322
100
AcDbEntity
  8
AXIS
  0
LINE
  5
325
330
2
100
AcDbEntity
  8
AXIS
100
AcDbLine
 10
42979.06
 20
21406.47
 30
0.0
 11
42979.06
 21
25406.47
 31
0.0
  0
INSERT
  5
326
330
2
100
AcDbEntity
  8
AXIS
100
AcDbBlockReference
 66
     1
  2
_AXISO
 10
42979.06
 20
25806.47
 30
0.0
 41
800.0
 42
800.0
 43
800.0
  0
ATTRIB
  5
327
330
326
100
AcDbEntity
  8
AXIS_TEXT
100
AcDbText
 10
42868.77
 20
25549.11
 30
0.0
 40
514.72
  1
1
  7
_TCH_AXIS
 72
     5
 11
43089.36
 21
25549.11
 31
0.0
100
AcDbAttribute
280
     0
  2
A
 70
     0
280
     0
  0
SEQEND
  5
328
330
326
100
AcDbEntity
  8
AXIS
  0
LINE
  5
329
330
2
100
AcDbEntity
  8
AXIS
100
AcDbLine
 10
46779.06
 20
11606.47
 30
0.0
 11
46779.06
 21
7606.47
 31
0.0
  0
INSERT
  5
32A
330
2
100
AcDbEntity
  8
AXIS
100
AcDbBlockReference
 66
     1
  2
_AXISO
 10
46779.06
 20
7206.47
 30
0.0
 41
800.0
 42
800.0
 43
800.0
  0
ATTRIB
  5
32B
330
32A
100
AcDbEntity
  8
AXIS_TEXT
100
AcDbText
 10
46623.75
 20
6973.5
 30
0.0
 40
465.95
  1
2
  7
_TCH_AXIS
 72
     5
 11
46934.38
 21
6973.5
 31
0.0
100
AcDbAttribute
280
     0
  2
A
 70
     0
280
     0
  0
SEQEND
  5
32C
330
32A
100
AcDbEntity
  8
AXIS
  0
LINE
  5
32D
330
2
100
AcDbEntity
  8
AXIS
100
AcDbLine
 10
46779.06
 20
21406.47
 30
0.0
 11
46779.06
 21
25406.47
 31
0.0
  0
INSERT
  5
32E
330
2
100
AcDbEntity
  8
AXIS
100
AcDbBlockReference
 66
     1
  2
_AXISO
 10
46779.06
 20
25806.47
 30
0.0
 41
800.0
 42
800.0
 43
800.0
  0
ATTRIB
  5
32F
330
32E
100
AcDbEntity
  8
AXIS_TEXT
100
AcDbText
 10
46623.75
 20
25573.5
 30
0.0
 40
465.95
  1
2
  7
_TCH_AXIS
 72
     5
 11
46934.38
 21
25573.5
 31
0.0
100
AcDbAttribute
280
     0
  2
A
 70
     0
280
     0
  0
SEQEND
  5
330
330
32E
100
AcDbEntity
  8
AXIS
  0
LINE
  5
331
330
2
100
AcDbEntity
  8
AXIS
100
AcDbLine
 10
50779.06
 20
11606.47
 30
0.0
 11
50779.06
 21
7606.47
 31
0.0
  0
INSERT
  5
332
330
2
100
AcDbEntity
  8
AXIS
100
AcDbBlockReference
 66
     1
  2
_AXISO
 10
50779.06
 20
7206.47
 30
0.0
 41
800.0
 42
800.0
 43
800.0
  0
ATTRIB
  5
333
330
332
100
AcDbEntity
  8
AXIS_TEXT
100
AcDbText
 10
50623.75
 20
6973.5
 30
0.0
 40
465.95
  1
3
  7
_TCH_AXIS
 72
     5
 11
50934.38
 21
6973.5
 31
0.0
100
AcDbAttribute
280
     0
  2
A
 70
     0
280
     0
  0
SEQEND
  5
334
330
332
100
AcDbEntity
  8
AXIS
  0
LINE
  5
335
330
2
100
AcDbEntity
  8
AXIS
100
AcDbLine
 10
50779.06
 20
21406.47
 30
0.0
 11
50779.06
 21
25406.47
 31
0.0
  0
INSERT
  5
336
330
2
100
AcDbEntity
  8
AXIS
100
AcDbBlockReference
 66
     1
  2
_AXISO
 10
50779.06
 20
25806.47
 30
0.0
 41
800.0
 42
800.0
 43
800.0
  0
ATTRIB
  5
337
330
336
100
AcDbEntity
  8
AXIS_TEXT
100
AcDbText
 10
50623.75
 20
25573.5
 30
0.0
 40
465.95
  1
3
  7
_TCH_AXIS
 72
     5
 11
50934.38
 21
25573.5
 31
0.0
100
AcDbAttribute
280
     0
  2
A
 70
     0
280
     0
  0
SEQEND
  5
338
330
336
100
AcDbEntity
  8
AXIS
  0
LINE
  5
339
330
2
100
AcDbEntity
  8
AXIS
100
AcDbLine
 10
54579.06
 20
11606.47
 30
0.0
 11
54579.06
 21
7606.47
 31
0.0
  0
INSERT
  5
33A
330
2
100
AcDbEntity
  8
AXIS
100
AcDbBlockReference
 66
     1
  2
_AXISO
 10
54579.06
 20
7206.47
 30
0.0
 41
800.0
 42
800.0
 43
800.0
  0
ATTRIB
  5
33B
330
33A
100
AcDbEntity
  8
AXIS_TEXT
100
AcDbText
 10
54409.37
 20
6983.75
 30
0.0
 40
445.44
  1
4
  7
_TCH_AXIS
 72
     5
 11
54748.75
 21
6983.75
 31
0.0
100
AcDbAttribute
280
     0
  2
A
 70
     0
280
     0
  0
SEQEND
  5
33C
330
33A
100
AcDbEntity
  8
AXIS
  0
LINE
  5
33D
330
2
100
AcDbEntity
  8
AXIS
100
AcDbLine
 10
54579.06
 20
21406.47
 30
0.0
 11
54579.06
 21
25406.47
 31
0.0
  0
INSERT
  5
33E
330
2
100
AcDbEntity
  8
AXIS
100
AcDbBlockReference
 66
     1
  2
_AXISO
 10
54579.06
 20
25806.47
 30
0.0
 41
800.0
 42
800.0
 43
800.0
  0
ATTRIB
  5
33F
330
33E
100
AcDbEntity
  8
AXIS_TEXT
100
AcDbText
 10
54409.37
 20
25583.75
 30
0.0
 40
445.44
  1
4
  7
_TCH_AXIS
 72
     5
 11
54748.75
 21
25583.75
 31
0.0
100
AcDbAttribute
280
     0
  2
A
 70
     0
280
     0
  0
SEQEND
  5
340
330
33E
100
AcDbEntity
  8
AXIS
  0
LINE
  5
341
330
2
100
AcDbEntity
  8
AXIS
100
AcDbLine
 10
41979.06
 20
12606.47
 30
0.0
 11
37979.06
 21
12606.47
 31
0.0
  0
INSERT
  5
342
330
2
100
AcDbEntity
  8
AXIS
100
AcDbBlockReference
 66
     1
  2
_AXISO
 10
37579.06
 20
12606.47
 30
0.0
 41
800.0
 42
800.0
 43
800.0
  0
ATTRIB
  5
343
330
342
100
AcDbEntity
  8
AXIS_TEXT
100
AcDbText
 10
37396.84
 20
12393.88
 30
0.0
 40
425.18
  1
A
  7
_TCH_AXIS
 72
     5
 11
37761.28
 21
12393.88
 31
0.0
100
AcDbAttribute
280
     0
  2
A
 70
     0
280
     0
  0
SEQEND
  5
344
330
342
100
AcDbEntity
  8
AXIS
  0
LINE
  5
345
330
2
100
AcDbEntity
  8
AXIS
100
AcDbLine
 10
54779.06
 20
12606.47
 30
0.0
 11
58779.06
 21
12606.47
 31
0.0
  0
INSERT
  5
346
330
2
100
AcDbEntity
  8
AXIS
100
AcDbBlockReference
 66
     1
  2
_AXISO
 10
59179.06
 20
12606.47
 30
0.0
 41
800.0
 42
800.0
 43
800.0
  0
ATTRIB
  5
347
330
346
100
AcDbEntity
  8
AXIS_TEXT
100
AcDbText
 10
58996.84
 20
12393.88
 30
0.0
 40
425.18
  1
A
  7
_TCH_AXIS
 72
     5
 11
59361.28
 21
12393.88
 31
0.0
100
AcDbAttribute
280
     0
  2
A
 70
     0
280
     0
  0
SEQEND
  5
348
330
346
100
AcDbEntity
  8
AXIS
  0
LINE
  5
349
330
2
100
AcDbEntity
  8
AXIS
100
AcDbLine
 10
41979.06
 20
15606.47
 30
0.0
 11
37979.06
 21
15606.47
 31
0.0
  0
INSERT
  5
34A
330
2
100
AcDbEntity
  8
AXIS
100
AcDbBlockReference
 66
     1
  2
_AXISO
 10
37579.06
 20
15606.47
 30
0.0
 41
800.0
 42
800.0
 43
800.0
  0
ATTRIB
  5
34B
330
34A
100
AcDbEntity
  8
AXIS_TEXT
100
AcDbText
 10
37402.89
 20
15388.85
 30
0.0
 40
435.26
  1
B
  7
_TCH_AXIS
 72
     5
 11
37755.24
 21
15388.85
 31
0.0
100
AcDbAttribute
280
     0
  2
A
 70
     0
280
     0
  0
SEQEND
  5
34C
330
34A
100
AcDbEntity
  8
AXIS
  0
LINE
  5
34D
330
2
100
AcDbEntity
  8
AXIS
100
AcDbLine
 10
54779.06
 20
15606.47
 30
0.0
 11
58779.06
 21
15606.47
 31
0.0
  0
INSERT
  5
34E
330
2
100
AcDbEntity
  8
AXIS
100
AcDbBlockReference
 66
     1
  2
_AXISO
 10
59179.06
 20
15606.47
 30
0.0
 41
800.0
 42
800.0
 43
800.0
  0
ATTRIB
  5
34F
330
34E
100
AcDbEntity
  8
AXIS_TEXT
100
AcDbText
 10
59002.89
 20
15388.85
 30
0.0
 40
435.26
  1
B
  7
_TCH_AXIS
 72
     5
 11
59355.24
 21
15388.85
 31
0.0
100
AcDbAttribute
280
     0
  2
A
 70
     0
280
     0
  0
SEQEND
  5
350
330
34E
100
AcDbEntity
  8
AXIS
  0
LINE
  5
351
330
2
100
AcDbEntity
  8
AXIS
100
AcDbLine
 10
41979.06
 20
17406.47
 30
0.0
 11
37979.06
 21
17406.47
 31
0.0
  0
INSERT
  5
352
330
2
100
AcDbEntity
  8
AXIS
100
AcDbBlockReference
 66
     1
  2
_AXISO
 10
37579.06
 20
17406.47
 30
0.0
 41
800.0
 42
800.0
 43
800.0
  0
ATTRIB
  5
353
330
352
100
AcDbEntity
  8
AXIS_TEXT
100
AcDbText
 10
37416.32
 20
17178.63
 30
0.0
 40
455.69
  1
C
  7
_TCH_AXIS
 72
     5
 11
37741.81
 21
17178.63
 31
0.0
100
AcDbAttribute
280
     0
  2
A
 70
     0
280
     0
  0
SEQEND
  5
354
330
352
100
AcDbEntity
  8
AXIS
  0
LINE
  5
355
330
2
100
AcDbEntity
  8
AXIS
100
AcDbLine
 10
54779.06
 20
17406.47
 30
0.0
 11
58779.06
 21
17406.47
 31
0.0
  0
INSERT
  5
356
330
2
100
AcDbEntity
  8
AXIS
100
AcDbBlockReference
 66
     1
  2
_AXISO
 10
59179.06
 20
17406.47
 30
0.0
 41
800.0
 42
800.0
 43
800.0
  0
ATTRIB
  5
357
330
356
100
AcDbEntity
  8
AXIS_TEXT
100
AcDbText
 10
59016.32
 20
17178.63
 30
0.0
 40
455.69
  1
C
  7
_TCH_AXIS
 72
     5
 11
59341.81
 21
17178.63
 31
0.0
100
AcDbAttribute
280
     0
  2
A
 70
     0
280
     0
  0
SEQEND
  5
358
330
356
100
AcDbEntity
  8
AXIS
  0
LINE
  5
359
330
2
100
AcDbEntity
  8
AXIS
100
AcDbLine
 10
41979.06
 20
20406.47
 30
0.0
 11
37979.06
 21
20406.47
 31
0.0
  0
INSERT
  5
35A
330
2
100
AcDbEntity
  8
AXIS
100
AcDbBlockReference
 66
     1
  2
_AXISO
 10
37579.06
 20
20406.47
 30
0.0
 41
800.0
 42
800.0
 43
800.0
  0
ATTRIB
  5
35B
330
35A
100
AcDbEntity
  8
AXIS_TEXT
100
AcDbText
 10
37402.89
 20
20188.85
 30
0.0
 40
435.26
  1
D
  7
_TCH_AXIS
 72
     5
 11
37755.24
 21
20188.85
 31
0.0
100
AcDbAttribute
280
     0
  2
A
 70
     0
280
     0
  0
SEQEND
  5
35C
330
35A
100
AcDbEntity
  8
AXIS
  0
LINE
  5
35D
330
2
100
AcDbEntity
  8
AXIS
100
AcDbLine
 10
54779.06
 20
20406.47
 30
0.0
 11
58779.06
 21
20406.47
 31
0.0
  0
INSERT
  5
35E
330
2
100
AcDbEntity
  8
AXIS
100
AcDbBlockReference
 66
     1
  2
_AXISO
 10
59179.06
 20
20406.47
 30
0.0
 41
800.0
 42
800.0
 43
800.0
  0
ATTRIB
  5
35F
330
35E
100
AcDbEntity
  8
AXIS_TEXT
100
AcDbText
 10
59002.89
 20
20188.85
 30
0.0
 40
435.26
  1
D
  7
_TCH_AXIS
 72
     5
 11
59355.24
 21
20188.85
 31
0.0
100
AcDbAttribute
280
     0
  2
A
 70
     0
280
     0
  0
SEQEND
  5
360
330
35E
100
AcDbEntity
  8
AXIS
  0
ENDSEC
  0
SECTION
  2
OBJECTS
  0
DICTIONARY
  5
9
330
0
100
AcDbDictionary
281
     1
  3
ACAD_CIP_PREVIOUS_PRODUCT_INFO
350
39A
  3
ACAD_COLOR
350
21F
  3
ACAD_DETAILVIEWSTYLE
350
390
  3
ACAD_GROUP
350
21A
  3
ACAD_LAYOUT
350
1FB
  3
ACAD_MATERIAL
350
B
  3
ACAD_MLEADERSTYLE
350
222
  3
ACAD_MLINESTYLE
350
21B
  3
ACAD_PLOTSETTINGS
350
21C
  3
ACAD_PLOTSTYLENAME
350
8
  3
ACAD_SCALELIST
350
220
  3
ACAD_SECTIONVIEWSTYLE
350
38E
  3
ACAD_TABLESTYLE
350
221
  3
ACAD_VISUALSTYLE
350
214
  3
ACDB_RECOMPOSE_DATA
350
3C3
  3
AcDbVariableDictionary
350
223
  3
TCH_DBCONFIG
350
3B9
  0
DICTIONARY
  5
205
330
204
100
AcDbDictionary
280
     1
281
     1
  3
ACAD_LAYERFILTERS
360
206
  3
ACAD_LAYERSTATES
360
3BD
  3
ACLYDICTIONARY
360
207
  0
DICTIONARY
  5
39B
330
6
100
AcDbDictionary
280
     1
281
     1
  3
ADSK_XREC_LAYER_RECONCILED
360
39C
  0
DICTIONARY
  5
39D
330
F
100
AcDbDictionary
280
     1
281
     1
  3
ADSK_XREC_LAYER_RECONCILED
360
39E
  0
DICTIONARY
  5
39F
330
26
100
AcDbDictionary
280
     1
281
     1
  3
ADSK_XREC_LAYER_RECONCILED
360
3A0
  0
DICTIONARY
  5
3A1
330
11E
100
AcDbDictionary
280
     1
281
     1
  3
ADSK_XREC_LAYER_RECONCILED
360
3A2
  0
DICTIONARY
  5
3A3
330
18
100
AcDbDictionary
280
     1
281
     1
  3
ADSK_XREC_LAYER_RECONCILED
360
3A4
  0
DICTIONARY
  5
3A5
330
24
100
AcDbDictionary
280
     1
281
     1
  3
ADSK_XREC_LAYER_RECONCILED
360
3A6
  0
DICTIONARY
  5
3A7
330
111
100
AcDbDictionary
280
     1
281
     1
  3
ADSK_XREC_LAYER_RECONCILED
360
3A8
  0
DICTIONARY
  5
3A9
330
113
100
AcDbDictionary
280
     1
281
     1
  3
ADSK_XREC_LAYER_RECONCILED
360
3AA
  0
DICTIONARY
  5
3AB
330
120
100
AcDbDictionary
280
     1
281
     1
  3
ADSK_XREC_LAYER_RECONCILED
360
3AC
  0
DICTIONARY
  5
3AD
330
23
100
AcDbDictionary
280
     1
281
     1
  3
ADSK_XREC_LAYER_RECONCILED
360
3AE
  0
DICTIONARY
  5
3AF
330
63
100
AcDbDictionary
280
     1
281
     1
  3
ADSK_XREC_LAYER_RECONCILED
360
3B0
  0
DICTIONARY
  5
3B1
330
33
100
AcDbDictionary
280
     1
281
     1
  3
ADSK_XREC_LAYER_RECONCILED
360
3B2
  0
DICTIONARY
  5
3B3
330
40
100
AcDbDictionary
280
     1
281
     1
  3
ADSK_XREC_LAYER_RECONCILED
360
3B4
  0
DICTIONARY
  5
3B5
330
7A
100
AcDbDictionary
280
     1
281
     1
  3
ADSK_XREC_LAYER_RECONCILED
360
3B6
  0
DICTIONARY
  5
3B7
330
271
100
AcDbDictionary
280
     1
281
     1
  3
ADSK_XREC_LAYER_RECONCILED
360
3B8
  0
DICTIONARY
  5
3
330
2
100
AcDbDictionary
280
     1
281
     1
  3
ACAD_SORTENTS
360
260
  0
DICTIONARY
  5
1A
330
19
100
AcDbDictionary
280
     1
281
     1
  3
ACAD_SORTENTS
360
256
  0
DICTIONARY
  5
F0
330
EF
100
AcDbDictionary
280
     1
281
     1
  0
DICTIONARY
  5
6A
330
69
100
AcDbDictionary
280
     1
281
     1
  0
XRECORD
  5
39A
102
{ACAD_REACTORS
330
9
102
}
330
9
100
AcDbXrecord
280
     1
300
ACD
300
2021
300

  0
DICTIONARY
  5
21F
102
{ACAD_REACTORS
330
9
102
}
330
9
100
AcDbDictionary
281
     1
  0
DICTIONARY
  5
390
102
{ACAD_REACTORS
330
9
102
}
330
9
100
AcDbDictionary
281
     1
  3
Imperial24
350
391
  0
DICTIONARY
  5
21A
102
{ACAD_REACTORS
330
9
102
}
330
9
100
AcDbDictionary
281
     1
  0
DICTIONARY
  5
1FB
102
{ACAD_REACTORS
330
9
102
}
330
9
100
AcDbDictionary
281
     1
  3
Model
350
1FA
  3
布局1
350
1FF
  3
布局2
350
203
  0
DICTIONARY
  5
B
102
{ACAD_REACTORS
330
9
102
}
330
9
100
AcDbDictionary
281
     1
  3
ByBlock
350
21E
  3
ByLayer
350
21D
  3
Global
350
A
  0
DICTIONARY
  5
222
102
{ACAD_REACTORS
330
9
102
}
330
9
100
AcDbDictionary
281
     1
  3
Standard
350
38D
  0
DICTIONARY
  5
21B
102
{ACAD_REACTORS
330
9
102
}
330
9
100
AcDbDictionary
281
     1
  3
Standard
350
230
  0
DICTIONARY
  5
21C
102
{ACAD_REACTORS
330
9
102
}
330
9
100
AcDbDictionary
281
     1
  0
ACDBDICTIONARYWDFLT
  5
8
102
{ACAD_REACTORS
330
9
102
}
330
9
100
AcDbDictionary
281
     1
  3
Normal
350
7
100
AcDbDictionaryWithDefault
340
7
  0
DICTIONARY
  5
220
102
{ACAD_REACTORS
330
9
102
}
330
9
100
AcDbDictionary
281
     1
  3
A0
350
235
  3
A1
350
236
  3
A2
350
237
  3
A3
350
238
  3
A4
350
239
  3
A5
350
23A
  3
A6
350
23B
  3
A7
350
23C
  3
A8
350
23D
  3
A9
350
23E
  3
B0
350
23F
  3
B1
350
240
  3
B2
350
241
  3
B3
350
242
  3
B4
350
243
  3
B5
350
244
  3
B6
350
245
  3
B7
350
246
  3
B8
350
247
  3
B9
350
248
  3
C0
350
249
  3
C1
350
24A
  3
C2
350
24B
  3
C3
350
24C
  3
C4
350
24D
  3
C5
350
24E
  3
C6
350
24F
  3
C7
350
250
  3
C8
350
251
  3
C9
350
252
  3
D0
350
253
  3
D1
350
254
  3
D2
350
255
  0
DICTIONARY
  5
38E
102
{ACAD_REACTORS
330
9
102
}
330
9
100
AcDbDictionary
281
     1
  3
Imperial24
350
38F
  0
DICTIONARY
  5
221
102
{ACAD_REACTORS
330
9
102
}
330
9
100
AcDbDictionary
281
     1
  3
Standard
350
231
  0
DICTIONARY
  5
214
102
{ACAD_REACTORS
330
9
102
}
330
9
100
AcDbDictionary
281
     1
  3
2dWireframe
350
213
  3
3dWireframe
350
234
  3
Basic
350
37B
  3
Brighten
350
380
  3
ColorChange
350
384
  3
Conceptual
350
37E
  3
Dim
350
37F
  3
EdgeColorOff
350
38C
  3
Facepattern
350
383
  3
Flat
350
377
  3
FlatWithEdges
350
378
  3
Gouraud
350
379
  3
GouraudWithEdges
350
37A
  3
Hidden
350
37D
  3
JitterOff
350
38A
  3
Linepattern
350
382
  3
OverhangOff
350
38B
  3
Realistic
350
233
  3
Shaded
350
389
  3
Shaded with edges
350
388
  3
Shades of Gray
350
385
  3
Sketchy
350
386
  3
Thicken
350
381
  3
Wireframe
350
37C
  3
X-Ray
350
387
  0
XRECORD
  5
3C3
102
{ACAD_REACTORS
330
9
102
}
330
9
100
AcDbXrecord
280
     1
 90
        1
330
231
  0
DICTIONARY
  5
223
102
{ACAD_REACTORS
330
9
102
}
330
9
100
AcDbDictionary
281
     1
  3
CANNOSCALE
350
224
  3
CMLEADERSTYLE
350
225
  3
CTABLESTYLE
350
226
  3
CVIEWDETAILSTYLE
350
227
  3
CVIEWSECTIONSTYLE
350
228
  3
DIMASSOC
350
229
  3
HIDETEXT
350
22A
  3
LAYEREVAL
350
22B
  3
LAYERNOTIFY
350
22C
  3
LIGHTINGUNITS
350
22D
  3
MSLTSCALE
350
22E
  3
SOLIDHIST
350
375
  3
WIPEOUTFRAME
350
22F
  0
TCH_DBCONFIG
  5
3B9
102
{ACAD_REACTORS
330
9
102
}
330
9
100
TDbConfig
  0
DICTIONARY
  5
206
102
{ACAD_REACTORS
330
205
102
}
330
205
100
AcDbDictionary
281
     1
  0
DICTIONARY
  5
3BD
102
{ACAD_REACTORS
330
205
102
}
330
205
100
AcDbDictionary
281
     1
  0
DICTIONARY
  5
207
102
{ACAD_REACTORS
330
205
102
}
330
205
100
AcDbDictionary
281
     1
1001
ACAD
1000
<All
  0
XRECORD
  5
39C
102
{ACAD_REACTORS
330
39B
102
}
330
39B
100
AcDbXrecord
280
     1
290
     1
  0
XRECORD
  5
39E
102
{ACAD_REACTORS
330
39D
102
}
330
39D
100
AcDbXrecord
280
     1
290
     1
  0
XRECORD
  5
3A0
102
{ACAD_REACTORS
330
39F
102
}
330
39F
100
AcDbXrecord
280
     1
290
     1
  0
XRECORD
  5
3A2
102
{ACAD_REACTORS
330
3A1
102
}
330
3A1
100
AcDbXrecord
280
     1
290
     1
  0
XRECORD
  5
3A4
102
{ACAD_REACTORS
330
3A3
102
}
330
3A3
100
AcDbXrecord
280
     1
290
     1
  0
XRECORD
  5
3A6
102
{ACAD_REACTORS
330
3A5
102
}
330
3A5
100
AcDbXrecord
280
     1
290
     1
  0
XRECORD
  5
3A8
102
{ACAD_REACTORS
330
3A7
102
}
330
3A7
100
AcDbXrecord
280
     1
290
     1
  0
XRECORD
  5
3AA
102
{ACAD_REACTORS
330
3A9
102
}
330
3A9
100
AcDbXrecord
280
     1
290
     1
  0
XRECORD
  5
3AC
102
{ACAD_REACTORS
330
3AB
102
}
330
3AB
100
AcDbXrecord
280
     1
290
     1
  0
XRECORD
  5
3AE
102
{ACAD_REACTORS
330
3AD
102
}
330
3AD
100
AcDbXrecord
280
     1
290
     1
  0
XRECORD
  5
3B0
102
{ACAD_REACTORS
330
3AF
102
}
330
3AF
100
AcDbXrecord
280
     1
290
     1
  0
XRECORD
  5
3B2
102
{ACAD_REACTORS
330
3B1
102
}
330
3B1
100
AcDbXrecord
280
     1
290
     1
  0
XRECORD
  5
3B4
102
{ACAD_REACTORS
330
3B3
102
}
330
3B3
100
AcDbXrecord
280
     1
290
     1
  0
XRECORD
  5
3B6
102
{ACAD_REACTORS
330
3B5
102
}
330
3B5
100
AcDbXrecord
280
     1
290
     1
  0
XRECORD
  5
3B8
102
{ACAD_REACTORS
330
3B7
102
}
330
3B7
100
AcDbXrecord
280
     1
290
     1
  0
SORTENTSTABLE
  5
260
102
{ACAD_REACTORS
330
3
102
}
330
3
100
AcDbSortentsTable
330
2
  0
SORTENTSTABLE
  5
256
102
{ACAD_REACTORS
330
1A
102
}
330
1A
100
AcDbSortentsTable
330
19
  0
ACDBDETAILVIEWSTYLE
  5
391
102
{ACAD_REACTORS
330
390
102
}
330
390
100
AcDbModelDocViewStyle
 70
     0
  3
Imperial24
290
     1
300
Imperial24
 90
        0
100
AcDbDetailViewStyle
 70
     0
 71
     0
 90
        3
 71
     1
340
20A
 62
   256
 40
0.24
340
0
 62
   256
 40
0.24
300

 40
0.36
280
     3
 71
     2
340
C
 90
       25
 62
   256
 71
     3
340
20A
 62
   256
 40
0.24
 90
        1
 40
0.75
 90
        1
300
%<\AcVar ViewType \f "%tc1">% %<\AcVar ViewDetailId>%\PSCALE %<\AcVar ViewScale \f "%sn">%
 71
     4
340
C
 90
       25
 62
   256
340
C
 90
       25
 62
   256
280
     0
  0
LAYOUT
  5
1FA
102
{ACAD_REACTORS
330
1FB
102
}
330
1FB
100
AcDbPlotSettings
  1

  2
none_device
  4
ANSI_A_(8.50_x_11.00_Inches)
  6

 40
6.35
 41
19.05
 42
6.35
 43
19.05
 44
215.9
 45
279.4
 46
0.0
 47
0.0
 48
0.0
 49
0.0
140
0.0
141
0.0
142
1.0
143
2.58
 70
 11952
 72
     0
 73
     1
 74
     0
  7

 75
     0
147
0.39
 76
     0
 77
     2
 78
   300
148
0.0
149
0.0
100
AcDbLayout
  1
Model
 70
     1
 71
     0
 10
0.0
 20
0.0
 11
12.0
 21
9.0
 12
0.0
 22
0.0
 32
0.0
 14
0.0
 24
0.0
 34
0.0
 15
0.0
 25
0.0
 35
0.0
146
0.0
 13
0.0
 23
0.0
 33
0.0
 16
1.0
 26
0.0
 36
0.0
 17
0.0
 27
1.0
 37
0.0
 76
     0
330
2
331
212
  0
LAYOUT
  5
1FF
102
{ACAD_REACTORS
330
1FB
102
}
330
1FB
100
AcDbPlotSettings
  1

  2
None
  4

  6

 40
0.0
 41
0.0
 42
0.0
 43
0.0
 44
0.0
 45
0.0
 46
0.0
 47
0.0
 48
0.0
 49
0.0
140
0.0
141
0.0
142
1.0
143
1.0
 70
   688
 72
     0
 73
     0
 74
     5
  7

 75
    16
147
1.0
 76
     0
 77
     2
 78
   300
148
0.0
149
0.0
100
AcDbLayout
  1
布局1
 70
     1
 71
     1
 10
0.0
 20
0.0
 11
12.0
 21
9.0
 12
0.0
 22
0.0
 32
0.0
 14
0.0
 24
0.0
 34
0.0
 15
0.0
 25
0.0
 35
0.0
146
0.0
 13
0.0
 23
0.0
 33
0.0
 16
1.0
 26
0.0
 36
0.0
 17
0.0
 27
1.0
 37
0.0
 76
     0
330
1FC
  0
LAYOUT
  5
203
102
{ACAD_REACTORS
330
1FB
102
}
330
1FB
100
AcDbPlotSettings
  1

  2
None
  4

  6

 40
0.0
 41
0.0
 42
0.0
 43
0.0
 44
0.0
 45
0.0
 46
0.0
 47
0.0
 48
0.0
 49
0.0
140
0.0
141
0.0
142
1.0
143
1.0
 70
   688
 72
     0
 73
     0
 74
     5
  7

 75
    16
147
1.0
 76
     0
 77
     2
 78
   300
148
0.0
149
0.0
100
AcDbLayout
  1
布局2
 70
     1
 71
     2
 10
0.0
 20
0.0
 11
12.0
 21
9.0
 12
0.0
 22
0.0
 32
0.0
 14
0.0
 24
0.0
 34
0.0
 15
0.0
 25
0.0
 35
0.0
146
0.0
 13
0.0
 23
0.0
 33
0.0
 16
1.0
 26
0.0
 36
0.0
 17
0.0
 27
1.0
 37
0.0
 76
     0
330
200
  0
MATERIAL
  5
21E
102
{ACAD_REACTORS
330
B
102
}
330
B
100
AcDbMaterial
  1
ByBlock
 73
     1
 78
     1
172
     1
176
     1
270
     1
274
     1
 94
       63
  0
MATERIAL
  5
21D
102
{ACAD_REACTORS
330
B
102
}
330
B
100
AcDbMaterial
  1
ByLayer
 73
     1
 78
     1
172
     1
176
     1
270
     1
274
     1
 94
       63
  0
MATERIAL
  5
A
102
{ACAD_REACTORS
330
B
102
}
330
B
100
AcDbMaterial
  1
Global
 73
     1
 78
     1
172
     1
176
     1
270
     1
274
     1
 94
       63
  0
MLEADERSTYLE
  5
38D
102
{ACAD_REACTORS
330
222
102
}
330
222
100
AcDbMLeaderStyle
179
     2
170
     2
171
     1
172
     0
 90
        2
 40
0.0
 41
0.0
173
     1
 91
-1056964608
340
20D
 92
       -2
290
     1
 42
0.09
291
     1
 43
0.36
  3
Standard
 44
0.18
300

342
20A
174
     1
178
     6
175
     1
176
     0
 93
-1056964608
 45
0.18
292
     0
297
     0
 46
0.18
 94
-1056964608
 47
1.0
 49
1.0
140
1.0
293
     1
141
0.0
294
     1
177
     0
142
1.0
295
     1
296
     0
143
0.13
271
     0
272
     9
273
     9
298
     1
  0
MLINESTYLE
  5
230
102
{ACAD_REACTORS
330
21B
102
}
330
21B
100
AcDbMlineStyle
  2
STANDARD
 70
     0
  3

 62
   256
 51
90.0
 52
90.0
 71
     2
 49
0.5
 62
   256
  6
BYLAYER
 49
-0.5
 62
   256
  6
BYLAYER
  0
ACDBPLACEHOLDER
  5
7
102
{ACAD_REACTORS
330
8
102
}
330
8
  0
SCALE
  5
235
102
{ACAD_REACTORS
330
220
102
}
330
220
100
AcDbScale
 70
     0
300
1:1
140
1.0
141
1.0
290
     1
  0
SCALE
  5
236
102
{ACAD_REACTORS
330
220
102
}
330
220
100
AcDbScale
 70
     0
300
1:2
140
1.0
141
2.0
290
     0
  0
SCALE
  5
237
102
{ACAD_REACTORS
330
220
102
}
330
220
100
AcDbScale
 70
     0
300
1:4
140
1.0
141
4.0
290
     0
  0
SCALE
  5
238
102
{ACAD_REACTORS
330
220
102
}
330
220
100
AcDbScale
 70
     0
300
1:5
140
1.0
141
5.0
290
     0
  0
SCALE
  5
239
102
{ACAD_REACTORS
330
220
102
}
330
220
100
AcDbScale
 70
     0
300
1:8
140
1.0
141
8.0
290
     0
  0
SCALE
  5
23A
102
{ACAD_REACTORS
330
220
102
}
330
220
100
AcDbScale
 70
     0
300
1:10
140
1.0
141
10.0
290
     0
  0
SCALE
  5
23B
102
{ACAD_REACTORS
330
220
102
}
330
220
100
AcDbScale
 70
     0
300
1:16
140
1.0
141
16.0
290
     0
  0
SCALE
  5
23C
102
{ACAD_REACTORS
330
220
102
}
330
220
100
AcDbScale
 70
     0
300
1:20
140
1.0
141
20.0
290
     0
  0
SCALE
  5
23D
102
{ACAD_REACTORS
330
220
102
}
330
220
100
AcDbScale
 70
     0
300
1:30
140
1.0
141
30.0
290
     0
  0
SCALE
  5
23E
102
{ACAD_REACTORS
330
220
102
}
330
220
100
AcDbScale
 70
     0
300
1:40
140
1.0
141
40.0
290
     0
  0
SCALE
  5
23F
102
{ACAD_REACTORS
330
220
102
}
330
220
100
AcDbScale
 70
     0
300
1:50
140
1.0
141
50.0
290
     0
  0
SCALE
  5
240
102
{ACAD_REACTORS
330
220
102
}
330
220
100
AcDbScale
 70
     0
300
1:100
140
1.0
141
100.0
290
     0
  0
SCALE
  5
241
102
{ACAD_REACTORS
330
220
102
}
330
220
100
AcDbScale
 70
     0
300
2:1
140
2.0
141
1.0
290
     0
  0
SCALE
  5
242
102
{ACAD_REACTORS
330
220
102
}
330
220
100
AcDbScale
 70
     0
300
4:1
140
4.0
141
1.0
290
     0
  0
SCALE
  5
243
102
{ACAD_REACTORS
330
220
102
}
330
220
100
AcDbScale
 70
     0
300
8:1
140
8.0
141
1.0
290
     0
  0
SCALE
  5
244
102
{ACAD_REACTORS
330
220
102
}
330
220
100
AcDbScale
 70
     0
300
10:1
140
10.0
141
1.0
290
     0
  0
SCALE
  5
245
102
{ACAD_REACTORS
330
220
102
}
330
220
100
AcDbScale
 70
     0
300
100:1
140
100.0
141
1.0
290
     0
  0
SCALE
  5
246
102
{ACAD_REACTORS
330
220
102
}
330
220
100
AcDbScale
 70
     0
300
1/128" = 1'-0"
140
0.01
141
12.0
290
     0
  0
SCALE
  5
247
102
{ACAD_REACTORS
330
220
102
}
330
220
100
AcDbScale
 70
     0
300
1/64" = 1'-0"
140
0.02
141
12.0
290
     0
  0
SCALE
  5
248
102
{ACAD_REACTORS
330
220
102
}
330
220
100
AcDbScale
 70
     0
300
1/32" = 1'-0"
140
0.03
141
12.0
290
     0
  0
SCALE
  5
249
102
{ACAD_REACTORS
330
220
102
}
330
220
100
AcDbScale
 70
     0
300
1/16" = 1'-0"
140
0.06
141
12.0
290
     0
  0
SCALE
  5
24A
102
{ACAD_REACTORS
330
220
102
}
330
220
100
AcDbScale
 70
     0
300
3/32" = 1'-0"
140
0.09
141
12.0
290
     0
  0
SCALE
  5
24B
102
{ACAD_REACTORS
330
220
102
}
330
220
100
AcDbScale
 70
     0
300
1/8" = 1'-0"
140
0.13
141
12.0
290
     0
  0
SCALE
  5
24C
102
{ACAD_REACTORS
330
220
102
}
330
220
100
AcDbScale
 70
     0
300
3/16" = 1'-0"
140
0.19
141
12.0
290
     0
  0
SCALE
  5
24D
102
{ACAD_REACTORS
330
220
102
}
330
220
100
AcDbScale
 70
     0
300
1/4" = 1'-0"
140
0.25
141
12.0
290
     0
  0
SCALE
  5
24E
102
{ACAD_REACTORS
330
220
102
}
330
220
100
AcDbScale
 70
     0
300
3/8" = 1'-0"
140
0.38
141
12.0
290
     0
  0
SCALE
  5
24F
102
{ACAD_REACTORS
330
220
102
}
330
220
100
AcDbScale
 70
     0
300
1/2" = 1'-0"
140
0.5
141
12.0
290
     0
  0
SCALE
  5
250
102
{ACAD_REACTORS
330
220
102
}
330
220
100
AcDbScale
 70
     0
300
3/4" = 1'-0"
140
0.75
141
12.0
290
     0
  0
SCALE
  5
251
102
{ACAD_REACTORS
330
220
102
}
330
220
100
AcDbScale
 70
     0
300
1" = 1'-0"
140
1.0
141
12.0
290
     0
  0
SCALE
  5
252
102
{ACAD_REACTORS
330
220
102
}
330
220
100
AcDbScale
 70
     0
300
1-1/2" = 1'-0"
140
1.5
141
12.0
290
     0
  0
SCALE
  5
253
102
{ACAD_REACTORS
330
220
102
}
330
220
100
AcDbScale
 70
     0
300
3" = 1'-0"
140
3.0
141
12.0
290
     0
  0
SCALE
  5
254
102
{ACAD_REACTORS
330
220
102
}
330
220
100
AcDbScale
 70
     0
300
6" = 1'-0"
140
6.0
141
12.0
290
     0
  0
SCALE
  5
255
102
{ACAD_REACTORS
330
220
102
}
330
220
100
AcDbScale
 70
     0
300
1'-0" = 1'-0"
140
12.0
141
12.0
290
     0
  0
ACDBSECTIONVIEWSTYLE
  5
38F
102
{ACAD_REACTORS
330
38E
102
}
330
38E
100
AcDbModelDocViewStyle
 70
     0
  3
Imperial24
290
     1
300
Imperial24
 90
        0
100
AcDbSectionViewStyle
 70
     0
 71
     0
 90
       78
 71
     1
340
20A
 62
   256
 40
0.24
340
0
340
0
 62
   256
 40
0.24
300
I, O, Q, S, X, Z
 40
0.48
 90
        3
 40
0.18
 90
        1
 71
     2
340
C
 90
       25
 62
   256
340
C
 90
       50
 62
   256
 40
0.24
 40
0.0
 40
0.24
 71
     3
340
20A
 62
   256
 40
0.24
 90
        1
 40
0.75
 90
        1
300
%<\AcVar ViewType \f "%tc1">% %<\AcVar ViewSectionStartId>%-%<\AcVar ViewSectionEndId>%\PSCALE %<\AcVar ViewScale \f "%sn">%
 71
     4
 62
   256
 62
   257
300
ANSI31
 40
1.0
 90
        0
290
     0
290
     0
 90
        6
 40
0.0
 40
1.57
 40
0.26
 40
1.31
 40
-0.26
 40
1.83
  0
TABLESTYLE
  5
231
102
{ACAD_XDICTIONARY
360
232
102
}
102
{ACAD_REACTORS
330
221
102
}
330
221
100
AcDbTableStyle
280
     0
  3
Standard
 70
     0
 71
     0
 40
0.06
 41
0.06
280
     0
281
     0
  7
Standard
140
0.18
170
     2
 62
     0
 63
     7
283
     0
 90
      512
 91
        0
  1

274
    -2
284
     1
 64
     0
275
    -2
285
     1
 65
     0
276
    -2
286
     1
 66
     0
277
    -2
287
     1
 67
     0
278
    -2
288
     1
 68
     0
279
    -2
289
     1
 69
     0
  7
Standard
140
0.25
170
     5
 62
     0
 63
     7
283
     0
 90
      512
 91
        0
  1

274
    -2
284
     1
 64
     0
275
    -2
285
     1
 65
     0
276
    -2
286
     1
 66
     0
277
    -2
287
     1
 67
     0
278
    -2
288
     1
 68
     0
279
    -2
289
     1
 69
     0
  7
Standard
140
0.18
170
     5
 62
     0
 63
     7
283
     0
 90
      512
 91
        0
  1

274
    -2
284
     1
 64
     0
275
    -2
285
     1
 65
     0
276
    -2
286
     1
 66
     0
277
    -2
287
     1
 67
     0
278
    -2
288
     1
 68
     0
279
    -2
289
     1
 69
     0
  0
VISUALSTYLE
  5
213
102
{ACAD_REACTORS
330
214
102
}
330
214
100
AcDbVisualStyle
  2
2dWireframe
 70
     4
177
     3
291
     0
 70
    58
 90
        0
176
     1
 90
        2
176
     1
 90
        1
176
     1
 90
        0
176
     1
 40
0.6
176
     1
 40
30.0
176
     1
 62
     7
420
 16777215
176
     1
 90
        1
176
     1
 90
        4
176
     1
 62
     7
176
     1
 62
   257
176
     1
 90
        1
176
     1
 90
        1
176
     1
 40
1.0
176
     1
 90
        0
176
     1
 62
   257
176
     1
 40
1.0
176
     1
 90
        1
176
     1
 90
        6
176
     1
 90
        2
176
     1
 62
     7
176
     1
 90
        5
176
     1
 90
        0
176
     1
 90
        0
176
     1
290
     0
176
     1
 90
        1
176
     1
 40
0.0
176
     1
 90
        0
176
     1
290
     1
176
     1
290
     1
176
     1
290
     0
176
     1
290
     0
176
     1
290
     0
176
     1
290
     0
176
     1
290
     0
176
     1
290
     0
176
     1
290
     0
176
     1
 90
       50
176
     1
 40
0.0
176
     1
 40
1.0
176
     1
 90
        0
176
     1
 62
    18
420
        0
176
     1
 90
       50
176
     1
 90
        3
176
     1
 62
     5
420
      255
176
     1
290
     0
176
     1
 90
       50
176
     1
 90
       50
176
     1
 90
       50
176
     1
290
     0
176
     1
 90
       50
176
     1
 62
   256
176
     0
 40
1.0
176
     0
 90
        2
176
     1
  1
strokes_ogs.tif
176
     1
290
     0
176
     1
 40
1.0
176
     1
 40
1.0
176
     1
  0
VISUALSTYLE
  5
234
102
{ACAD_REACTORS
330
214
102
}
330
214
100
AcDbVisualStyle
  2
3dWireframe
 70
     5
177
     3
291
     0
 70
    58
 90
        0
176
     1
 90
        2
176
     1
 90
        1
176
     1
 90
        0
176
     1
 40
0.6
176
     1
 40
30.0
176
     1
 62
     7
420
 16777215
176
     1
 90
        1
176
     1
 90
        4
176
     1
 62
     7
176
     1
 62
   257
176
     1
 90
        1
176
     1
 90
        1
176
     1
 40
1.0
176
     1
 90
        0
176
     1
 62
   257
176
     1
 40
1.0
176
     1
 90
        1
176
     1
 90
        6
176
     1
 90
        2
176
     1
 62
     7
176
     1
 90
        5
176
     1
 90
        0
176
     1
 90
        0
176
     1
290
     0
176
     1
 90
        1
176
     1
 40
0.0
176
     1
 90
        0
176
     1
290
     0
176
     1
290
     1
176
     1
290
     1
176
     1
290
     0
176
     1
290
     0
176
     1
290
     0
176
     1
290
     0
176
     1
290
     0
176
     1
290
     0
176
     1
 90
       50
176
     1
 40
0.0
176
     1
 40
1.0
176
     1
 90
        0
176
     1
 62
    18
420
        0
176
     1
 90
       50
176
     1
 90
        3
176
     1
 62
     5
420
      255
176
     1
290
     0
176
     1
 90
       50
176
     1
 90
       50
176
     1
 90
       50
176
     1
290
     0
176
     1
 90
       50
176
     1
 62
   256
176
     0
 40
1.0
176
     0
 90
        2
176
     1
  1
strokes_ogs.tif
176
     1
290
     0
176
     1
 40
1.0
176
     1
 40
1.0
176
     1
  0
VISUALSTYLE
  5
37B
102
{ACAD_REACTORS
330
214
102
}
330
214
100
AcDbVisualStyle
  2
Basic
 70
     7
177
     3
291
     1
 70
    58
 90
        1
176
     1
 90
        0
176
     1
 90
        1
176
     1
 90
        0
176
     1
 40
0.6
176
     1
 40
30.0
176
     1
 62
     7
420
 16777215
176
     1
 90
        0
176
     1
 90
        4
176
     1
 62
     7
176
     1
 62
   257
176
     1
 90
        1
176
     1
 90
        1
176
     1
 40
1.0
176
     1
 90
        8
176
     1
 62
     7
176
     1
 40
1.0
176
     1
 90
        1
176
     1
 90
        6
176
     1
 90
        2
176
     1
 62
     7
176
     1
 90
        5
176
     1
 90
        0
176
     1
 90
        0
176
     1
290
     0
176
     1
 90
        1
176
     1
 40
0.0
176
     1
 90
        0
176
     1
290
     0
176
     1
290
     1
176
     1
290
     1
176
     1
290
     0
176
     1
290
     0
176
     1
290
     0
176
     1
290
     0
176
     1
290
     0
176
     1
290
     0
176
     1
 90
       50
176
     1
 40
0.0
176
     1
 40
1.0
176
     1
 90
        0
176
     1
 62
    18
420
        0
176
     1
 90
       50
176
     1
 90
        3
176
     1
 62
     5
420
      255
176
     1
290
     0
176
     1
 90
       50
176
     1
 90
       50
176
     1
 90
       50
176
     1
290
     0
176
     1
 90
       50
176
     1
 62
   256
176
     0
 40
1.0
176
     0
 90
        2
176
     1
  1
strokes_ogs.tif
176
     1
290
     0
176
     1
 40
1.0
176
     1
 40
1.0
176
     1
  0
VISUALSTYLE
  5
380
102
{ACAD_REACTORS
330
214
102
}
330
214
100
AcDbVisualStyle
  2
Brighten
 70
    12
177
     3
291
     1
 70
    58
 90
        2
176
     1
 90
        2
176
     1
 90
        0
176
     1
 90
        0
176
     1
 40
0.6
176
     1
 40
30.0
176
     1
 62
     7
420
 16777215
176
     1
 90
        1
176
     1
 90
        4
176
     1
 62
     7
176
     1
 62
   257
176
     1
 90
        1
176
     1
 90
        1
176
     1
 40
1.0
176
     1
 90
        8
176
     1
 62
     7
176
     1
 40
1.0
176
     1
 90
        1
176
     1
 90
        6
176
     1
 90
        2
176
     1
 62
     7
176
     1
 90
        5
176
     1
 90
        0
176
     1
 90
        0
176
     1
290
     0
176
     1
 90
        1
176
     1
 40
50.0
176
     1
 90
        0
176
     1
290
     0
176
     1
290
     1
176
     1
290
     1
176
     1
290
     0
176
     1
290
     0
176
     1
290
     0
176
     1
290
     0
176
     1
290
     0
176
     1
290
     0
176
     1
 90
       50
176
     1
 40
0.0
176
     1
 40
1.0
176
     1
 90
        0
176
     1
 62
    18
420
        0
176
     1
 90
       50
176
     1
 90
        3
176
     1
 62
     5
420
      255
176
     1
290
     0
176
     1
 90
       50
176
     1
 90
       50
176
     1
 90
       50
176
     1
290
     0
176
     1
 90
       50
176
     1
 62
   256
176
     0
 40
1.0
176
     0
 90
        2
176
     1
  1
strokes_ogs.tif
176
     1
290
     0
176
     1
 40
1.0
176
     1
 40
1.0
176
     1
  0
VISUALSTYLE
  5
384
102
{ACAD_REACTORS
330
214
102
}
330
214
100
AcDbVisualStyle
  2
ColorChange
 70
    16
177
     3
291
     1
 70
    58
 90
        2
176
     1
 90
        2
176
     1
 90
        3
176
     1
 90
        0
176
     1
 40
0.6
176
     1
 40
30.0
176
     1
 62
     8
420
  8421504
176
     1
 90
        1
176
     1
 90
        4
176
     1
 62
     7
176
     1
 62
   257
176
     1
 90
        1
176
     1
 90
        1
176
     1
 40
1.0
176
     1
 90
        8
176
     1
 62
     8
420
  8421504
176
     1
 40
1.0
176
     1
 90
        1
176
     1
 90
        6
176
     1
 90
        2
176
     1
 62
     7
176
     1
 90
        5
176
     1
 90
        0
176
     1
 90
        0
176
     1
290
     0
176
     1
 90
        1
176
     1
 40
0.0
176
     1
 90
        0
176
     1
290
     0
176
     1
290
     1
176
     1
290
     1
176
     1
290
     0
176
     1
290
     0
176
     1
290
     0
176
     1
290
     0
176
     1
290
     0
176
     1
290
     0
176
     1
 90
       50
176
     1
 40
0.0
176
     1
 40
1.0
176
     1
 90
        0
176
     1
 62
    18
420
        0
176
     1
 90
       50
176
     1
 90
        3
176
     1
 62
     5
420
      255
176
     1
290
     0
176
     1
 90
       50
176
     1
 90
       50
176
     1
 90
       50
176
     1
290
     0
176
     1
 90
       50
176
     1
 62
   256
176
     0
 40
1.0
176
     0
 90
        2
176
     1
  1
strokes_ogs.tif
176
     1
290
     0
176
     1
 40
1.0
176
     1
 40
1.0
176
     1
  0
VISUALSTYLE
  5
37E
102
{ACAD_REACTORS
330
214
102
}
330
214
100
AcDbVisualStyle
  2
Conceptual
 70
     9
177
     3
291
     0
 70
    58
 90
        3
176
     1
 90
        2
176
     1
 90
        0
176
     1
 90
        0
176
     1
 40
0.6
176
     1
 40
30.0
176
     1
 62
     7
420
 16777215
176
     1
 90
        2
176
     1
 90
        2
176
     1
 62
     7
176
     1
 62
   257
176
     1
 90
        1
176
     1
 90
        1
176
     1
 40
179.0
176
     1
 90
        8
176
     1
 62
     7
176
     1
 40
1.0
176
     1
 90
        1
176
     1
 90
        6
176
     1
 90
        2
176
     1
 62
     7
176
     1
 90
        3
176
     1
 90
        0
176
     1
 90
        0
176
     1
290
     0
176
     1
 90
        1
176
     1
 40
0.0
176
     1
 90
        0
176
     1
290
     0
176
     1
290
     1
176
     1
290
     1
176
     1
290
     0
176
     1
290
     0
176
     1
290
     0
176
     1
290
     0
176
     1
290
     0
176
     1
290
     0
176
     1
 90
       50
176
     1
 40
0.0
176
     1
 40
1.0
176
     1
 90
        0
176
     1
 62
    18
420
        0
176
     1
 90
       50
176
     1
 90
        3
176
     1
 62
     5
420
      255
176
     1
290
     0
176
     1
 90
       50
176
     1
 90
       50
176
     1
 90
       50
176
     1
290
     0
176
     1
 90
       50
176
     1
 62
   256
176
     0
 40
1.0
176
     0
 90
        2
176
     1
  1
strokes_ogs.tif
176
     1
290
     0
176
     1
 40
1.0
176
     1
 40
1.0
176
     1
  0
VISUALSTYLE
  5
37F
102
{ACAD_REACTORS
330
214
102
}
330
214
100
AcDbVisualStyle
  2
Dim
 70
    11
177
     3
291
     1
 70
    58
 90
        2
176
     1
 90
        2
176
     1
 90
        0
176
     1
 90
        0
176
     1
 40
0.6
176
     1
 40
30.0
176
     1
 62
     7
420
 16777215
176
     1
 90
        1
176
     1
 90
        4
176
     1
 62
     7
176
     1
 62
   257
176
     1
 90
        1
176
     1
 90
        1
176
     1
 40
1.0
176
     1
 90
        8
176
     1
 62
     7
176
     1
 40
1.0
176
     1
 90
        1
176
     1
 90
        6
176
     1
 90
        2
176
     1
 62
     7
176
     1
 90
        5
176
     1
 90
        0
176
     1
 90
        0
176
     1
290
     0
176
     1
 90
        1
176
     1
 40
-50.0
176
     1
 90
        0
176
     1
290
     0
176
     1
290
     1
176
     1
290
     1
176
     1
290
     0
176
     1
290
     0
176
     1
290
     0
176
     1
290
     0
176
     1
290
     0
176
     1
290
     0
176
     1
 90
       50
176
     1
 40
0.0
176
     1
 40
1.0
176
     1
 90
        0
176
     1
 62
    18
420
        0
176
     1
 90
       50
176
     1
 90
        3
176
     1
 62
     5
420
      255
176
     1
290
     0
176
     1
 90
       50
176
     1
 90
       50
176
     1
 90
       50
176
     1
290
     0
176
     1
 90
       50
176
     1
 62
   256
176
     0
 40
1.0
176
     0
 90
        2
176
     1
  1
strokes_ogs.tif
176
     1
290
     0
176
     1
 40
1.0
176
     1
 40
1.0
176
     1
  0
VISUALSTYLE
  5
38C
102
{ACAD_REACTORS
330
214
102
}
330
214
100
AcDbVisualStyle
  2
EdgeColorOff
 70
    22
177
     3
291
     1
 70
    58
 90
        2
176
     0
 90
        2
176
     0
 90
        0
176
     0
 90
        0
176
     0
 40
0.6
176
     0
 40
30.0
176
     0
 62
     7
420
 16777215
176
     0
 90
        1
176
     0
 90
        4
176
     0
 62
     7
176
     0
 62
   257
176
     0
 90
        1
176
     0
 90
        1
176
     0
 40
1.0
176
     0
 90
        8
176
     2
 62
     7
176
     0
 40
1.0
176
     0
 90
        1
176
     0
 90
        6
176
     0
 90
        2
176
     0
 62
     7
176
     0
 90
        5
176
     0
 90
        0
176
     0
 90
        0
176
     0
290
     0
176
     0
 90
        1
176
     0
 40
0.0
176
     0
 90
        0
176
     0
290
     0
176
     0
290
     1
176
     0
290
     1
176
     0
290
     0
176
     0
290
     0
176
     0
290
     0
176
     0
290
     0
176
     0
290
     0
176
     0
290
     0
176
     0
 90
       50
176
     0
 40
0.0
176
     0
 40
1.0
176
     0
 90
        0
176
     0
 62
    18
420
        0
176
     0
 90
       50
176
     0
 90
        3
176
     0
 62
     5
420
      255
176
     0
290
     0
176
     0
 90
       50
176
     0
 90
       50
176
     0
 90
       50
176
     0
290
     0
176
     0
 90
       50
176
     0
 62
   256
176
     0
 40
1.0
176
     0
 90
        2
176
     0
  1
strokes_ogs.tif
176
     0
290
     0
176
     0
 40
1.0
176
     0
 40
1.0
176
     0
  0
VISUALSTYLE
  5
383
102
{ACAD_REACTORS
330
214
102
}
330
214
100
AcDbVisualStyle
  2
Facepattern
 70
    15
177
     3
291
     1
 70
    58
 90
        2
176
     1
 90
        2
176
     1
 90
        0
176
     1
 90
        0
176
     1
 40
0.6
176
     1
 40
30.0
176
     1
 62
     7
420
 16777215
176
     1
 90
        1
176
     1
 90
        4
176
     1
 62
     7
176
     1
 62
   257
176
     1
 90
        1
176
     1
 90
        1
176
     1
 40
1.0
176
     1
 90
        8
176
     1
 62
     7
176
     1
 40
1.0
176
     1
 90
        1
176
     1
 90
        6
176
     1
 90
        2
176
     1
 62
     7
176
     1
 90
        5
176
     1
 90
        0
176
     1
 90
        0
176
     1
290
     0
176
     1
 90
        1
176
     1
 40
0.0
176
     1
 90
        0
176
     1
290
     0
176
     1
290
     1
176
     1
290
     1
176
     1
290
     0
176
     1
290
     0
176
     1
290
     0
176
     1
290
     0
176
     1
290
     0
176
     1
290
     0
176
     1
 90
       50
176
     1
 40
0.0
176
     1
 40
1.0
176
     1
 90
        0
176
     1
 62
    18
420
        0
176
     1
 90
       50
176
     1
 90
        3
176
     1
 62
     5
420
      255
176
     1
290
     0
176
     1
 90
       50
176
     1
 90
       50
176
     1
 90
       50
176
     1
290
     0
176
     1
 90
       50
176
     1
 62
   256
176
     0
 40
1.0
176
     0
 90
        2
176
     1
  1
strokes_ogs.tif
176
     1
290
     0
176
     1
 40
1.0
176
     1
 40
1.0
176
     1
  0
VISUALSTYLE
  5
377
102
{ACAD_REACTORS
330
214
102
}
330
214
100
AcDbVisualStyle
  2
Flat
 70
     0
177
     3
291
     1
 70
    58
 90
        2
176
     1
 90
        1
176
     1
 90
        1
176
     1
 90
        2
176
     1
 40
0.6
176
     1
 40
30.0
176
     1
 62
     7
420
 16777215
176
     1
 90
        0
176
     1
 90
        0
176
     1
 62
     7
176
     1
 62
   257
176
     1
 90
        1
176
     1
 90
        1
176
     1
 40
1.0
176
     1
 90
        8
176
     1
 62
     7
176
     1
 40
1.0
176
     1
 90
        1
176
     1
 90
        6
176
     1
 90
        2
176
     1
 62
     7
176
     1
 90
        5
176
     1
 90
        0
176
     1
 90
        0
176
     1
290
     0
176
     1
 90
       13
176
     1
 40
0.0
176
     1
 90
        0
176
     1
290
     0
176
     1
290
     1
176
     1
290
     1
176
     1
290
     0
176
     1
290
     0
176
     1
290
     0
176
     1
290
     0
176
     1
290
     0
176
     1
290
     0
176
     1
 90
       50
176
     1
 40
0.0
176
     1
 40
1.0
176
     1
 90
        0
176
     1
 62
    18
420
        0
176
     1
 90
       50
176
     1
 90
        3
176
     1
 62
     5
420
      255
176
     1
290
     0
176
     1
 90
       50
176
     1
 90
       50
176
     1
 90
       50
176
     1
290
     0
176
     1
 90
       50
176
     1
 62
   256
176
     0
 40
1.0
176
     0
 90
        2
176
     1
  1
strokes_ogs.tif
176
     1
290
     0
176
     1
 40
1.0
176
     1
 40
1.0
176
     1
  0
VISUALSTYLE
  5
378
102
{ACAD_REACTORS
330
214
102
}
330
214
100
AcDbVisualStyle
  2
FlatWithEdges
 70
     1
177
     3
291
     1
 70
    58
 90
        2
176
     1
 90
        1
176
     1
 90
        1
176
     1
 90
        2
176
     1
 40
0.6
176
     1
 40
30.0
176
     1
 62
     7
420
 16777215
176
     1
 90
        1
176
     1
 90
        0
176
     1
 62
     7
176
     1
 62
   257
176
     1
 90
        1
176
     1
 90
        1
176
     1
 40
1.0
176
     1
 90
        0
176
     1
 62
   257
176
     1
 40
1.0
176
     1
 90
        1
176
     1
 90
        6
176
     1
 90
        2
176
     1
 62
     7
176
     1
 90
        5
176
     1
 90
        0
176
     1
 90
        0
176
     1
290
     0
176
     1
 90
       13
176
     1
 40
0.0
176
     1
 90
        0
176
     1
290
     0
176
     1
290
     1
176
     1
290
     1
176
     1
290
     0
176
     1
290
     0
176
     1
290
     0
176
     1
290
     0
176
     1
290
     0
176
     1
290
     0
176
     1
 90
       50
176
     1
 40
0.0
176
     1
 40
1.0
176
     1
 90
        0
176
     1
 62
    18
420
        0
176
     1
 90
       50
176
     1
 90
        3
176
     1
 62
     5
420
      255
176
     1
290
     0
176
     1
 90
       50
176
     1
 90
       50
176
     1
 90
       50
176
     1
290
     0
176
     1
 90
       50
176
     1
 62
   256
176
     0
 40
1.0
176
     0
 90
        2
176
     1
  1
strokes_ogs.tif
176
     1
290
     0
176
     1
 40
1.0
176
     1
 40
1.0
176
     1
  0
VISUALSTYLE
  5
379
102
{ACAD_REACTORS
330
214
102
}
330
214
100
AcDbVisualStyle
  2
Gouraud
 70
     2
177
     3
291
     1
 70
    58
 90
        2
176
     1
 90
        2
176
     1
 90
        1
176
     1
 90
        2
176
     1
 40
0.6
176
     1
 40
30.0
176
     1
 62
     7
420
 16777215
176
     1
 90
        0
176
     1
 90
        0
176
     1
 62
     7
176
     1
 62
   257
176
     1
 90
        1
176
     1
 90
        1
176
     1
 40
1.0
176
     1
 90
        0
176
     1
 62
     7
176
     1
 40
1.0
176
     1
 90
        1
176
     1
 90
        6
176
     1
 90
        2
176
     1
 62
     7
176
     1
 90
        5
176
     1
 90
        0
176
     1
 90
        0
176
     1
290
     0
176
     1
 90
       13
176
     1
 40
0.0
176
     1
 90
        0
176
     1
290
     0
176
     1
290
     1
176
     1
290
     1
176
     1
290
     0
176
     1
290
     0
176
     1
290
     0
176
     1
290
     0
176
     1
290
     0
176
     1
290
     0
176
     1
 90
       50
176
     1
 40
0.0
176
     1
 40
1.0
176
     1
 90
        0
176
     1
 62
    18
420
        0
176
     1
 90
       50
176
     1
 90
        3
176
     1
 62
     5
420
      255
176
     1
290
     0
176
     1
 90
       50
176
     1
 90
       50
176
     1
 90
       50
176
     1
290
     0
176
     1
 90
       50
176
     1
 62
   256
176
     0
 40
1.0
176
     0
 90
        2
176
     1
  1
strokes_ogs.tif
176
     1
290
     0
176
     1
 40
1.0
176
     1
 40
1.0
176
     1
  0
VISUALSTYLE
  5
37A
102
{ACAD_REACTORS
330
214
102
}
330
214
100
AcDbVisualStyle
  2
GouraudWithEdges
 70
     3
177
     3
291
     1
 70
    58
 90
        2
176
     1
 90
        2
176
     1
 90
        1
176
     1
 90
        2
176
     1
 40
0.6
176
     1
 40
30.0
176
     1
 62
     7
420
 16777215
176
     1
 90
        1
176
     1
 90
        0
176
     1
 62
     7
176
     1
 62
   257
176
     1
 90
        1
176
     1
 90
        1
176
     1
 40
1.0
176
     1
 90
        0
176
     1
 62
   257
176
     1
 40
1.0
176
     1
 90
        1
176
     1
 90
        6
176
     1
 90
        2
176
     1
 62
     7
176
     1
 90
        5
176
     1
 90
        0
176
     1
 90
        0
176
     1
290
     0
176
     1
 90
       13
176
     1
 40
0.0
176
     1
 90
        0
176
     1
290
     0
176
     1
290
     1
176
     1
290
     1
176
     1
290
     0
176
     1
290
     0
176
     1
290
     0
176
     1
290
     0
176
     1
290
     0
176
     1
290
     0
176
     1
 90
       50
176
     1
 40
0.0
176
     1
 40
1.0
176
     1
 90
        0
176
     1
 62
    18
420
        0
176
     1
 90
       50
176
     1
 90
        3
176
     1
 62
     5
420
      255
176
     1
290
     0
176
     1
 90
       50
176
     1
 90
       50
176
     1
 90
       50
176
     1
290
     0
176
     1
 90
       50
176
     1
 62
   256
176
     0
 40
1.0
176
     0
 90
        2
176
     1
  1
strokes_ogs.tif
176
     1
290
     0
176
     1
 40
1.0
176
     1
 40
1.0
176
     1
  0
VISUALSTYLE
  5
37D
102
{ACAD_REACTORS
330
214
102
}
330
214
100
AcDbVisualStyle
  2
Hidden
 70
     6
177
     3
291
     0
 70
    58
 90
        1
176
     1
 90
        2
176
     1
 90
        2
176
     1
 90
        0
176
     1
 40
0.6
176
     1
 40
30.0
176
     1
 62
     7
420
 16777215
176
     1
 90
        2
176
     1
 90
        2
176
     1
 62
     7
176
     1
 62
   257
176
     1
 90
        2
176
     1
 90
        1
176
     1
 40
40.0
176
     1
 90
        0
176
     1
 62
   257
176
     1
 40
1.0
176
     1
 90
        1
176
     1
 90
        6
176
     1
 90
        2
176
     1
 62
     7
176
     1
 90
        3
176
     1
 90
        0
176
     1
 90
        0
176
     1
290
     0
176
     1
 90
        1
176
     1
 40
0.0
176
     1
 90
        0
176
     1
290
     0
176
     1
290
     1
176
     1
290
     1
176
     1
290
     0
176
     1
290
     0
176
     1
290
     0
176
     1
290
     0
176
     1
290
     0
176
     1
290
     0
176
     1
 90
       50
176
     1
 40
0.0
176
     1
 40
1.0
176
     1
 90
        0
176
     1
 62
    18
420
        0
176
     1
 90
       50
176
     1
 90
        3
176
     1
 62
     5
420
      255
176
     1
290
     0
176
     1
 90
       50
176
     1
 90
       50
176
     1
 90
       50
176
     1
290
     0
176
     1
 90
       50
176
     1
 62
   256
176
     0
 40
1.0
176
     0
 90
        2
176
     1
  1
strokes_ogs.tif
176
     1
290
     0
176
     1
 40
1.0
176
     1
 40
1.0
176
     1
  0
VISUALSTYLE
  5
38A
102
{ACAD_REACTORS
330
214
102
}
330
214
100
AcDbVisualStyle
  2
JitterOff
 70
    20
177
     3
291
     1
 70
    58
 90
        2
176
     0
 90
        2
176
     0
 90
        0
176
     0
 90
        0
176
     0
 40
0.6
176
     0
 40
30.0
176
     0
 62
     7
420
 16777215
176
     0
 90
        1
176
     0
 90
        4
176
     0
 62
     7
176
     0
 62
   257
176
     0
 90
        1
176
     0
 90
        1
176
     0
 40
1.0
176
     0
 90
       10
176
     2
 62
     7
176
     0
 40
1.0
176
     0
 90
        1
176
     0
 90
        6
176
     0
 90
        2
176
     0
 62
     7
176
     0
 90
        5
176
     0
 90
        0
176
     0
 90
        0
176
     0
290
     0
176
     0
 90
        1
176
     0
 40
0.0
176
     0
 90
        0
176
     0
290
     0
176
     0
290
     1
176
     0
290
     1
176
     0
290
     0
176
     0
290
     0
176
     0
290
     0
176
     0
290
     0
176
     0
290
     0
176
     0
290
     0
176
     0
 90
       50
176
     0
 40
0.0
176
     0
 40
1.0
176
     0
 90
        0
176
     0
 62
    18
420
        0
176
     0
 90
       50
176
     0
 90
        3
176
     0
 62
     5
420
      255
176
     0
290
     0
176
     0
 90
       50
176
     0
 90
       50
176
     0
 90
       50
176
     0
290
     0
176
     0
 90
       50
176
     0
 62
   256
176
     0
 40
1.0
176
     0
 90
        2
176
     0
  1
strokes_ogs.tif
176
     0
290
     0
176
     0
 40
1.0
176
     0
 40
1.0
176
     0
  0
VISUALSTYLE
  5
382
102
{ACAD_REACTORS
330
214
102
}
330
214
100
AcDbVisualStyle
  2
Linepattern
 70
    14
177
     3
291
     1
 70
    58
 90
        2
176
     1
 90
        2
176
     1
 90
        0
176
     1
 90
        0
176
     1
 40
0.6
176
     1
 40
30.0
176
     1
 62
     7
420
 16777215
176
     1
 90
        1
176
     1
 90
        4
176
     1
 62
     7
176
     1
 62
   257
176
     1
 90
        7
176
     1
 90
        7
176
     1
 40
1.0
176
     1
 90
        8
176
     1
 62
     7
176
     1
 40
1.0
176
     1
 90
        1
176
     1
 90
        6
176
     1
 90
        2
176
     1
 62
     7
176
     1
 90
        5
176
     1
 90
        0
176
     1
 90
        0
176
     1
290
     0
176
     1
 90
        1
176
     1
 40
0.0
176
     1
 90
        0
176
     1
290
     0
176
     1
290
     1
176
     1
290
     1
176
     1
290
     0
176
     1
290
     0
176
     1
290
     0
176
     1
290
     0
176
     1
290
     0
176
     1
290
     0
176
     1
 90
       50
176
     1
 40
0.0
176
     1
 40
1.0
176
     1
 90
        0
176
     1
 62
    18
420
        0
176
     1
 90
       50
176
     1
 90
        3
176
     1
 62
     5
420
      255
176
     1
290
     0
176
     1
 90
       50
176
     1
 90
       50
176
     1
 90
       50
176
     1
290
     0
176
     1
 90
       50
176
     1
 62
   256
176
     0
 40
1.0
176
     0
 90
        2
176
     1
  1
strokes_ogs.tif
176
     1
290
     0
176
     1
 40
1.0
176
     1
 40
1.0
176
     1
  0
VISUALSTYLE
  5
38B
102
{ACAD_REACTORS
330
214
102
}
330
214
100
AcDbVisualStyle
  2
OverhangOff
 70
    21
177
     3
291
     1
 70
    58
 90
        2
176
     0
 90
        2
176
     0
 90
        0
176
     0
 90
        0
176
     0
 40
0.6
176
     0
 40
30.0
176
     0
 62
     7
420
 16777215
176
     0
 90
        1
176
     0
 90
        4
176
     0
 62
     7
176
     0
 62
   257
176
     0
 90
        1
176
     0
 90
        1
176
     0
 40
1.0
176
     0
 90
        9
176
     2
 62
     7
176
     0
 40
1.0
176
     0
 90
        1
176
     0
 90
        6
176
     0
 90
        2
176
     0
 62
     7
176
     0
 90
        5
176
     0
 90
        0
176
     0
 90
        0
176
     0
290
     0
176
     0
 90
        1
176
     0
 40
0.0
176
     0
 90
        0
176
     0
290
     0
176
     0
290
     1
176
     0
290
     1
176
     0
290
     0
176
     0
290
     0
176
     0
290
     0
176
     0
290
     0
176
     0
290
     0
176
     0
290
     0
176
     0
 90
       50
176
     0
 40
0.0
176
     0
 40
1.0
176
     0
 90
        0
176
     0
 62
    18
420
        0
176
     0
 90
       50
176
     0
 90
        3
176
     0
 62
     5
420
      255
176
     0
290
     0
176
     0
 90
       50
176
     0
 90
       50
176
     0
 90
       50
176
     0
290
     0
176
     0
 90
       50
176
     0
 62
   256
176
     0
 40
1.0
176
     0
 90
        2
176
     0
  1
strokes_ogs.tif
176
     0
290
     0
176
     0
 40
1.0
176
     0
 40
1.0
176
     0
  0
VISUALSTYLE
  5
233
102
{ACAD_REACTORS
330
214
102
}
330
214
100
AcDbVisualStyle
  2
Realistic
 70
     8
177
     3
291
     0
 70
    58
 90
        2
176
     1
 90
        2
176
     1
 90
        1
176
     1
 90
        0
176
     1
 40
0.6
176
     1
 40
30.0
176
     1
 62
     7
420
 16777215
176
     1
 90
        1
176
     1
 90
        0
176
     1
 62
     7
176
     1
 62
   257
176
     1
 90
        1
176
     1
 90
        1
176
     1
 40
1.0
176
     1
 90
        8
176
     1
 62
     8
420
  7895160
176
     1
 40
1.0
176
     1
 90
        1
176
     1
 90
        6
176
     1
 90
        2
176
     1
 62
     7
176
     1
 90
        5
176
     1
 90
        0
176
     1
 90
        0
176
     1
290
     0
176
     1
 90
       13
176
     1
 40
0.0
176
     1
 90
        0
176
     1
290
     0
176
     1
290
     1
176
     1
290
     1
176
     1
290
     0
176
     1
290
     0
176
     1
290
     0
176
     1
290
     0
176
     1
290
     0
176
     1
290
     0
176
     1
 90
       50
176
     1
 40
0.0
176
     1
 40
1.0
176
     1
 90
        0
176
     1
 62
    18
420
        0
176
     1
 90
       50
176
     1
 90
        3
176
     1
 62
     5
420
      255
176
     1
290
     0
176
     1
 90
       50
176
     1
 90
       50
176
     1
 90
       50
176
     1
290
     0
176
     1
 90
       50
176
     1
 62
   256
176
     0
 40
1.0
176
     0
 90
        2
176
     1
  1
strokes_ogs.tif
176
     1
290
     0
176
     1
 40
1.0
176
     1
 40
1.0
176
     1
  0
VISUALSTYLE
  5
389
102
{ACAD_REACTORS
330
214
102
}
330
214
100
AcDbVisualStyle
  2
Shaded
 70
    27
177
     3
291
     0
 70
    58
 90
        2
176
     1
 90
        2
176
     1
 90
        1
176
     1
 90
        2
176
     1
 40
0.6
176
     1
 40
30.0
176
     1
 62
     7
420
 16777215
176
     1
 90
        0
176
     1
 90
        4
176
     1
 62
     7
176
     1
 62
   257
176
     1
 90
        1
176
     1
 90
        1
176
     1
 40
1.0
176
     1
 90
        8
176
     1
 62
   257
176
     1
 40
1.0
176
     1
 90
        1
176
     1
 90
        6
176
     1
 90
        2
176
     1
 62
     8
420
  7895160
176
     1
 90
        3
176
     1
 90
        0
176
     1
 90
        0
176
     1
290
     0
176
     1
 90
        5
176
     1
 40
0.0
176
     1
 90
        0
176
     1
290
     0
176
     1
290
     1
176
     1
290
     1
176
     1
290
     0
176
     1
290
     0
176
     1
290
     0
176
     1
290
     0
176
     1
290
     0
176
     1
290
     0
176
     1
 90
       50
176
     1
 40
0.0
176
     1
 40
1.0
176
     1
 90
        0
176
     1
 62
    18
420
        0
176
     1
 90
       50
176
     1
 90
        3
176
     1
 62
     5
420
      255
176
     1
290
     0
176
     1
 90
       50
176
     1
 90
       50
176
     1
 90
       50
176
     1
290
     0
176
     1
 90
       50
176
     1
 62
   256
176
     0
 40
1.0
176
     0
 90
        2
176
     1
  1
strokes_ogs.tif
176
     1
290
     0
176
     1
 40
1.0
176
     1
 40
1.0
176
     1
  0
VISUALSTYLE
  5
388
102
{ACAD_REACTORS
330
214
102
}
330
214
100
AcDbVisualStyle
  2
Shaded with edges
 70
    26
177
     3
291
     0
 70
    58
 90
        2
176
     1
 90
        2
176
     1
 90
        1
176
     1
 90
        2
176
     1
 40
0.6
176
     1
 40
30.0
176
     1
 62
     7
420
 16777215
176
     1
 90
        1
176
     1
 90
        2
176
     1
 62
     7
176
     1
 62
   257
176
     1
 90
        2
176
     1
 90
        1
176
     1
 40
1.0
176
     1
 90
        8
176
     1
 62
   257
176
     1
 40
1.0
176
     1
 90
        1
176
     1
 90
        6
176
     1
 90
        2
176
     1
 62
     7
176
     1
 90
        3
176
     1
 90
        0
176
     1
 90
        0
176
     1
290
     0
176
     1
 90
        5
176
     1
 40
0.0
176
     1
 90
        0
176
     1
290
     0
176
     1
290
     1
176
     1
290
     1
176
     1
290
     0
176
     1
290
     0
176
     1
290
     0
176
     1
290
     0
176
     1
290
     0
176
     1
290
     0
176
     1
 90
       50
176
     1
 40
0.0
176
     1
 40
1.0
176
     1
 90
        0
176
     1
 62
    18
420
        0
176
     1
 90
       50
176
     1
 90
        3
176
     1
 62
     5
420
      255
176
     1
290
     0
176
     1
 90
       50
176
     1
 90
       50
176
     1
 90
       50
176
     1
290
     0
176
     1
 90
       50
176
     1
 62
   256
176
     0
 40
1.0
176
     0
 90
        2
176
     1
  1
strokes_ogs.tif
176
     1
290
     0
176
     1
 40
1.0
176
     1
 40
1.0
176
     1
  0
VISUALSTYLE
  5
385
102
{ACAD_REACTORS
330
214
102
}
330
214
100
AcDbVisualStyle
  2
Shades of Gray
 70
    23
177
     3
291
     0
 70
    58
 90
        2
176
     1
 90
        2
176
     1
 90
        3
176
     1
 90
        0
176
     1
 40
0.6
176
     1
 40
30.0
176
     1
 62
     7
420
 16777215
176
     1
 90
        2
176
     1
 90
        2
176
     1
 62
     7
176
     1
 62
     7
176
     1
 90
        1
176
     1
 90
        1
176
     1
 40
40.0
176
     1
 90
        8
176
     1
 62
     7
176
     1
 40
1.0
176
     1
 90
        1
176
     1
 90
        6
176
     1
 90
        2
176
     1
 62
     7
176
     1
 90
        3
176
     1
 90
        0
176
     1
 90
        0
176
     1
290
     0
176
     1
 90
        1
176
     1
 40
0.0
176
     1
 90
        0
176
     1
290
     0
176
     1
290
     1
176
     1
290
     1
176
     1
290
     0
176
     1
290
     0
176
     1
290
     0
176
     1
290
     0
176
     1
290
     0
176
     1
290
     0
176
     1
 90
       50
176
     1
 40
0.0
176
     1
 40
1.0
176
     1
 90
        0
176
     1
 62
    18
420
        0
176
     1
 90
       50
176
     1
 90
        3
176
     1
 62
     5
420
      255
176
     1
290
     0
176
     1
 90
       50
176
     1
 90
       50
176
     1
 90
       50
176
     1
290
     0
176
     1
 90
       50
176
     1
 62
   256
176
     0
 40
1.0
176
     0
 90
        2
176
     1
  1
strokes_ogs.tif
176
     1
290
     0
176
     1
 40
1.0
176
     1
 40
1.0
176
     1
  0
VISUALSTYLE
  5
386
102
{ACAD_REACTORS
330
214
102
}
330
214
100
AcDbVisualStyle
  2
Sketchy
 70
    24
177
     3
291
     0
 70
    58
 90
        1
176
     1
 90
        2
176
     1
 90
        2
176
     1
 90
        0
176
     1
 40
0.6
176
     1
 40
30.0
176
     1
 62
     7
420
 16777215
176
     1
 90
        2
176
     1
 90
        2
176
     1
 62
     7
176
     1
 62
     7
176
     1
 90
        1
176
     1
 90
        1
176
     1
 40
40.0
176
     1
 90
       11
176
     1
 62
     7
176
     1
 40
1.0
176
     1
 90
        1
176
     1
 90
        6
176
     1
 90
        2
176
     1
 62
     7
176
     1
 90
        6
176
     1
 90
        0
176
     1
 90
        0
176
     1
290
     0
176
     1
 90
        1
176
     1
 40
0.0
176
     1
 90
        0
176
     1
290
     0
176
     1
290
     1
176
     1
290
     1
176
     1
290
     0
176
     1
290
     0
176
     1
290
     0
176
     1
290
     0
176
     1
290
     0
176
     1
290
     0
176
     1
 90
       50
176
     1
 40
0.0
176
     1
 40
1.0
176
     1
 90
        0
176
     1
 62
    18
420
        0
176
     1
 90
       50
176
     1
 90
        3
176
     1
 62
     5
420
      255
176
     1
290
     0
176
     1
 90
       50
176
     1
 90
       50
176
     1
 90
       50
176
     1
290
     0
176
     1
 90
       50
176
     1
 62
   256
176
     0
 40
1.0
176
     0
 90
        2
176
     1
  1
strokes_ogs.tif
176
     1
290
     0
176
     1
 40
1.0
176
     1
 40
1.0
176
     1
  0
VISUALSTYLE
  5
381
102
{ACAD_REACTORS
330
214
102
}
330
214
100
AcDbVisualStyle
  2
Thicken
 70
    13
177
     3
291
     1
 70
    58
 90
        2
176
     1
 90
        2
176
     1
 90
        0
176
     1
 90
        0
176
     1
 40
0.6
176
     1
 40
30.0
176
     1
 62
     7
420
 16777215
176
     1
 90
        1
176
     1
 90
        4
176
     1
 62
     7
176
     1
 62
   257
176
     1
 90
        1
176
     1
 90
        1
176
     1
 40
1.0
176
     1
 90
       12
176
     1
 62
     7
176
     1
 40
1.0
176
     1
 90
        1
176
     1
 90
        6
176
     1
 90
        2
176
     1
 62
     7
176
     1
 90
        5
176
     1
 90
        0
176
     1
 90
        0
176
     1
290
     0
176
     1
 90
        1
176
     1
 40
0.0
176
     1
 90
        0
176
     1
290
     0
176
     1
290
     1
176
     1
290
     1
176
     1
290
     0
176
     1
290
     0
176
     1
290
     0
176
     1
290
     0
176
     1
290
     0
176
     1
290
     0
176
     1
 90
       50
176
     1
 40
0.0
176
     1
 40
1.0
176
     1
 90
        0
176
     1
 62
    18
420
        0
176
     1
 90
       50
176
     1
 90
        3
176
     1
 62
     5
420
      255
176
     1
290
     0
176
     1
 90
       50
176
     1
 90
       50
176
     1
 90
       50
176
     1
290
     0
176
     1
 90
       50
176
     1
 62
   256
176
     0
 40
1.0
176
     0
 90
        2
176
     1
  1
strokes_ogs.tif
176
     1
290
     0
176
     1
 40
1.0
176
     1
 40
1.0
176
     1
  0
VISUALSTYLE
  5
37C
102
{ACAD_REACTORS
330
214
102
}
330
214
100
AcDbVisualStyle
  2
Wireframe
 70
     5
177
     3
291
     0
 70
    58
 90
        0
176
     1
 90
        2
176
     1
 90
        0
176
     1
 90
        0
176
     1
 40
0.6
176
     1
 40
30.0
176
     1
 62
     7
420
 16777215
176
     1
 90
        1
176
     1
 90
        4
176
     1
 62
     7
176
     1
 62
   257
176
     1
 90
        1
176
     1
 90
        1
176
     1
 40
1.0
176
     1
 90
        0
176
     1
 62
   257
176
     1
 40
1.0
176
     1
 90
        1
176
     1
 90
        6
176
     1
 90
        2
176
     1
 62
     7
176
     1
 90
        3
176
     1
 90
        0
176
     1
 90
        0
176
     1
290
     0
176
     1
 90
        1
176
     1
 40
0.0
176
     1
 90
        0
176
     1
290
     0
176
     1
290
     1
176
     1
290
     1
176
     1
290
     0
176
     1
290
     0
176
     1
290
     0
176
     1
290
     0
176
     1
290
     0
176
     1
290
     0
176
     1
 90
       50
176
     1
 40
0.0
176
     1
 40
1.0
176
     1
 90
        0
176
     1
 62
    18
420
        0
176
     1
 90
       50
176
     1
 90
        3
176
     1
 62
     5
420
      255
176
     1
290
     0
176
     1
 90
       50
176
     1
 90
       50
176
     1
 90
       50
176
     1
290
     0
176
     1
 90
       50
176
     1
 62
   256
176
     0
 40
1.0
176
     0
 90
        2
176
     1
  1
strokes_ogs.tif
176
     1
290
     0
176
     1
 40
1.0
176
     1
 40
1.0
176
     1
  0
VISUALSTYLE
  5
387
102
{ACAD_REACTORS
330
214
102
}
330
214
100
AcDbVisualStyle
  2
X-Ray
 70
    25
177
     3
291
     0
 70
    58
 90
        2
176
     1
 90
        2
176
     1
 90
        1
176
     1
 90
        1
176
     1
 40
0.5
176
     1
 40
30.0
176
     1
 62
     7
420
 16777215
176
     1
 90
        1
176
     1
 90
        0
176
     1
 62
     7
176
     1
 62
   257
176
     1
 90
        1
176
     1
 90
        1
176
     1
 40
1.0
176
     1
 90
        8
176
     1
 62
     7
176
     1
 40
1.0
176
     1
 90
        1
176
     1
 90
        6
176
     1
 90
        2
176
     1
 62
     7
176
     1
 90
        3
176
     1
 90
        0
176
     1
 90
        0
176
     1
290
     0
176
     1
 90
       13
176
     1
 40
0.0
176
     1
 90
        0
176
     1
290
     0
176
     1
290
     1
176
     1
290
     1
176
     1
290
     0
176
     1
290
     0
176
     1
290
     0
176
     1
290
     0
176
     1
290
     0
176
     1
290
     0
176
     1
 90
       50
176
     1
 40
0.0
176
     1
 40
1.0
176
     1
 90
        0
176
     1
 62
    18
420
        0
176
     1
 90
       50
176
     1
 90
        3
176
     1
 62
     5
420
      255
176
     1
290
     0
176
     1
 90
       50
176
     1
 90
       50
176
     1
 90
       50
176
     1
290
     0
176
     1
 90
       50
176
     1
 62
   256
176
     0
 40
1.0
176
     0
 90
        2
176
     1
  1
strokes_ogs.tif
176
     1
290
     0
176
     1
 40
1.0
176
     1
 40
1.0
176
     1
  0
DICTIONARYVAR
  5
224
102
{ACAD_REACTORS
330
223
102
}
330
223
100
DictionaryVariables
280
     0
  1
1:1
  0
DICTIONARYVAR
  5
225
102
{ACAD_REACTORS
330
223
102
}
330
223
100
DictionaryVariables
280
     0
  1
STANDARD
  0
DICTIONARYVAR
  5
226
102
{ACAD_REACTORS
330
223
102
}
330
223
100
DictionaryVariables
280
     0
  1
STANDARD
  0
DICTIONARYVAR
  5
227
102
{ACAD_REACTORS
330
223
102
}
330
223
100
DictionaryVariables
280
     0
  1
Imperial24
  0
DICTIONARYVAR
  5
228
102
{ACAD_REACTORS
330
223
102
}
330
223
100
DictionaryVariables
280
     0
  1
Imperial24
  0
DICTIONARYVAR
  5
229
102
{ACAD_REACTORS
330
223
102
}
330
223
100
DictionaryVariables
280
     0
  1
2
  0
DICTIONARYVAR
  5
22A
102
{ACAD_REACTORS
330
223
102
}
330
223
100
DictionaryVariables
280
     0
  1
1
  0
DICTIONARYVAR
  5
22B
102
{ACAD_REACTORS
330
223
102
}
330
223
100
DictionaryVariables
280
     0
  1
1
  0
DICTIONARYVAR
  5
22C
102
{ACAD_REACTORS
330
223
102
}
330
223
100
DictionaryVariables
280
     0
  1
15
  0
DICTIONARYVAR
  5
22D
102
{ACAD_REACTORS
330
223
102
}
330
223
100
DictionaryVariables
280
     0
  1
0
  0
DICTIONARYVAR
  5
22E
102
{ACAD_REACTORS
330
223
102
}
330
223
100
DictionaryVariables
280
     0
  1
0
  0
DICTIONARYVAR
  5
375
102
{ACAD_REACTORS
330
223
102
}
330
223
100
DictionaryVariables
280
     0
  1
1
  0
DICTIONARYVAR
  5
22F
102
{ACAD_REACTORS
330
223
102
}
330
223
100
DictionaryVariables
280
     0
  1
0
  0
DICTIONARY
  5
232
330
231
100
AcDbDictionary
280
     1
281
     1
  3
ACAD_ROUNDTRIP_2008_TABLESTYLE_CELLSTYLEMAP
360
3C2
  0
CELLSTYLEMAP
  5
3C2
102
{ACAD_REACTORS
330
232
102
}
330
232
100
AcDbCellStyleMap
 90
        3
300
CELLSTYLE
  1
TABLEFORMAT_BEGIN
 90
        5
170
     1
 91
        0
 92
    32768
 62
   257
 93
        1
300
CONTENTFORMAT
  1
CONTENTFORMAT_BEGIN
 90
        0
 91
        0
 92
      512
 93
        0
300

 40
0.0
140
1.0
 94
        5
 62
     0
340
20A
144
0.25
309
CONTENTFORMAT_END
171
     0
 94
        6
 95
        1
302
GRIDFORMAT
  1
GRIDFORMAT_BEGIN
 90
        0
 91
        1
 62
     0
 92
       -2
340
0
 93
        0
 40
0.05
309
GRIDFORMAT_END
 95
        2
302
GRIDFORMAT
  1
GRIDFORMAT_BEGIN
 90
        0
 91
        1
 62
     0
 92
       -2
340
0
 93
        0
 40
0.05
309
GRIDFORMAT_END
 95
        4
302
GRIDFORMAT
  1
GRIDFORMAT_BEGIN
 90
        0
 91
        1
 62
     0
 92
       -2
340
0
 93
        0
 40
0.05
309
GRIDFORMAT_END
 95
        8
302
GRIDFORMAT
  1
GRIDFORMAT_BEGIN
 90
        0
 91
        1
 62
     0
 92
       -2
340
0
 93
        0
 40
0.05
309
GRIDFORMAT_END
 95
       16
302
GRIDFORMAT
  1
GRIDFORMAT_BEGIN
 90
        0
 91
        1
 62
     0
 92
       -2
340
0
 93
        0
 40
0.05
309
GRIDFORMAT_END
 95
       32
302
GRIDFORMAT
  1
GRIDFORMAT_BEGIN
 90
        0
 91
        1
 62
     0
 92
       -2
340
0
 93
        0
 40
0.05
309
GRIDFORMAT_END
309
TABLEFORMAT_END
  1
CELLSTYLE_BEGIN
 90
        1
 91
        1
300
_TITLE
309
CELLSTYLE_END
300
CELLSTYLE
  1
TABLEFORMAT_BEGIN
 90
        5
170
     1
 91
        0
 92
        0
 62
   257
 93
        1
300
CONTENTFORMAT
  1
CONTENTFORMAT_BEGIN
 90
        0
 91
        0
 92
      512
 93
        0
300

 40
0.0
140
1.0
 94
        5
 62
     0
340
20A
144
0.18
309
CONTENTFORMAT_END
171
     0
 94
        6
 95
        1
302
GRIDFORMAT
  1
GRIDFORMAT_BEGIN
 90
        0
 91
        1
 62
     0
 92
       -2
340
0
 93
        0
 40
0.05
309
GRIDFORMAT_END
 95
        2
302
GRIDFORMAT
  1
GRIDFORMAT_BEGIN
 90
        0
 91
        1
 62
     0
 92
       -2
340
0
 93
        0
 40
0.05
309
GRIDFORMAT_END
 95
        4
302
GRIDFORMAT
  1
GRIDFORMAT_BEGIN
 90
        0
 91
        1
 62
     0
 92
       -2
340
0
 93
        0
 40
0.05
309
GRIDFORMAT_END
 95
        8
302
GRIDFORMAT
  1
GRIDFORMAT_BEGIN
 90
        0
 91
        1
 62
     0
 92
       -2
340
0
 93
        0
 40
0.05
309
GRIDFORMAT_END
 95
       16
302
GRIDFORMAT
  1
GRIDFORMAT_BEGIN
 90
        0
 91
        1
 62
     0
 92
       -2
340
0
 93
        0
 40
0.05
309
GRIDFORMAT_END
 95
       32
302
GRIDFORMAT
  1
GRIDFORMAT_BEGIN
 90
        0
 91
        1
 62
     0
 92
       -2
340
0
 93
        0
 40
0.05
309
GRIDFORMAT_END
309
TABLEFORMAT_END
  1
CELLSTYLE_BEGIN
 90
        2
 91
        1
300
_HEADER
309
CELLSTYLE_END
300
CELLSTYLE
  1
TABLEFORMAT_BEGIN
 90
        5
170
     1
 91
        0
 92
        0
 62
   257
 93
        1
300
CONTENTFORMAT
  1
CONTENTFORMAT_BEGIN
 90
        0
 91
        0
 92
      512
 93
        0
300

 40
0.0
140
1.0
 94
        2
 62
     0
340
20A
144
0.18
309
CONTENTFORMAT_END
171
     0
 94
        6
 95
        1
302
GRIDFORMAT
  1
GRIDFORMAT_BEGIN
 90
        0
 91
        1
 62
     0
 92
       -2
340
0
 93
        0
 40
0.05
309
GRIDFORMAT_END
 95
        2
302
GRIDFORMAT
  1
GRIDFORMAT_BEGIN
 90
        0
 91
        1
 62
     0
 92
       -2
340
0
 93
        0
 40
0.05
309
GRIDFORMAT_END
 95
        4
302
GRIDFORMAT
  1
GRIDFORMAT_BEGIN
 90
        0
 91
        1
 62
     0
 92
       -2
340
0
 93
        0
 40
0.05
309
GRIDFORMAT_END
 95
        8
302
GRIDFORMAT
  1
GRIDFORMAT_BEGIN
 90
        0
 91
        1
 62
     0
 92
       -2
340
0
 93
        0
 40
0.05
309
GRIDFORMAT_END
 95
       16
302
GRIDFORMAT
  1
GRIDFORMAT_BEGIN
 90
        0
 91
        1
 62
     0
 92
       -2
340
0
 93
        0
 40
0.05
309
GRIDFORMAT_END
 95
       32
302
GRIDFORMAT
  1
GRIDFORMAT_BEGIN
 90
        0
 91
        1
 62
     0
 92
       -2
340
0
 93
        0
 40
0.05
309
GRIDFORMAT_END
309
TABLEFORMAT_END
  1
CELLSTYLE_BEGIN
 90
        3
 91
        2
300
_DATA
309
CELLSTYLE_END
  0
ENDSEC
  0
SECTION
  2
ACDSDATA
 70
     2
 71
     8
  0
ACDSSCHEMA
 90
        0
  1
AcDb_Thumbnail_Schema
  2
AcDbDs::ID
280
    10
 91
        8
  2
Thumbnail_Data
280
    15
 91
        0
101
ACDSRECORD
 95
        0
 90
        1
  2
AcDbDs::TreatedAsObjectData
280
     1
291
     1
101
ACDSRECORD
 95
        0
 90
        2
  2
AcDbDs::Legacy
280
     1
291
     1
101
ACDSRECORD
  1
AcDbDs::ID
 90
        3
  2
AcDs:Indexable
280
     1
291
     1
101
ACDSRECORD
  1
AcDbDs::ID
 90
        4
  2
AcDbDs::HandleAttribute
280
     7
282
     1
  0
ACDSSCHEMA
 90
        1
  1
AcDbDs::TreatedAsObjectDataSchema
  2
AcDbDs::TreatedAsObjectData
280
     1
 91
        0
  0
ACDSSCHEMA
 90
        2
  1
AcDbDs::LegacySchema
  2
AcDbDs::Legacy
280
     1
 91
        0
  0
ACDSSCHEMA
 90
        3
  1
AcDbDs::IndexedPropertySchema
  2
AcDs:Indexable
280
     1
 91
        0
  0
ACDSSCHEMA
 90
        4
  1
AcDbDs::HandleAttributeSchema
  2
AcDbDs::HandleAttribute
280
     7
 91
        1
284
     1
  0
ACDSRECORD
 90
        0
  2
AcDbDs::ID
280
    10
320
1FA
  2
Thumbnail_Data
280
    15
 94
     1689
310
89504E470D0A1A0A0000000D49484452000001000000007108030000000DA58D8400000300504C5445000000FFFFFF0000000000000000000000000000000000000000000000000000000000330000660000990000CC0000FF0033000033330033660033990033CC0033FF0066000066330066660066990066CC0066FF0099
310
000099330099660099990099CC0099FF00CC0000CC3300CC6600CC9900CCCC00CCFF00FF0000FF3300FF6600FF9900FFCC00FFFF3300003300333300663300993300CC3300FF3333003333333333663333993333CC3333FF3366003366333366663366993366CC3366FF3399003399333399663399993399CC3399FF33CC00
310
33CC3333CC6633CC9933CCCC33CCFF33FF0033FF3333FF6633FF9933FFCC33FFFF6600006600336600666600996600CC6600FF6633006633336633666633996633CC6633FF6666006666336666666666996666CC6666FF6699006699336699666699996699CC6699FF66CC0066CC3366CC6666CC9966CCCC66CCFF66FF0066
310
FF3366FF6666FF9966FFCC66FFFF9900009900339900669900999900CC9900FF9933009933339933669933999933CC9933FF9966009966339966669966999966CC9966FF9999009999339999669999999999CC9999FF99CC0099CC3399CC6699CC9999CCCC99CCFF99FF0099FF3399FF6699FF9999FFCC99FFFFCC0000CC00
310
33CC0066CC0099CC00CCCC00FFCC3300CC3333CC3366CC3399CC33CCCC33FFCC6600CC6633CC6666CC6699CC66CCCC66FFCC9900CC9933CC9966CC9999CC99CCCC99FFCCCC00CCCC33CCCC66CCCC99CCCCCCCCCCFFCCFF00CCFF33CCFF66CCFF99CCFFCCCCFFFFFF0000FF0033FF0066FF0099FF00CCFF00FFFF3300FF3333
310
FF3366FF3399FF33CCFF33FFFF6600FF6633FF6666FF6699FF66CCFF66FFFF9900FF9933FF9966FF9999FF99CCFF99FFFFCC00FFCC33FFCC66FFCC99FFCCCCFFCCFFFFFF00FFFF33FFFF66FFFF99FFFFCCFFFFFF0000000D0D0D1A1A1A2828283535354343435050505D5D5D6B6B6B787878868686939393A1A1A1AEAEAEBB
310
BBBBC9C9C9D6D6D6E4E4E4F1F1F1FFFFFF0000000000000000000000000000000000000000000000000000000000003AE5ACE9000003544944415478DAED9DCD7684200C85F3386CF2FE3B9F89CDDD7714AD400181B1CA4F727AA6676AA9FA1198E4062AD113A6320E60B3A226DD98BAD77A2450DE9D43798075D1AE9FBB43
310
80A247B2C6464700503607CC0E00FD0390495026410120000480001000024000080001200004800010000240004C0760293E50D344000880B6C6F73B001E9F229C3A47C4B431B64DDB5676E4DBCBB9B7FF414849D8CB6A7A7B5D9C9B596C2B3AA253E75B2FE71D0F5009078CF7E672870728EBCC8F7BC0EF99D300626363D1
310
F161937DC006F05E98D00A00EA0B004F0E80D89B4E106CE35447C7058024801E3CE073959700B07DDD0900680800AE01B89F53DF0F017408002100D897C8C06F73AC8FC0100010F700C0590AE2B5091DE8D2038E89200A806200461802F03AD39B03AAE28096005C7F0CFAF79F02C03C6020343D807424E803082398261758
310
6F9F8707B0A40184083407204B10A9051020D09A2002B200A8A42214B06B0081464900D4A42698B02562DA4880ACFFB6EE51138CFDE05A16D7A4DB1E02D99AE09AEC1C13463980B3759B9AA0C9D762A1B019CE561054E10138B2652F3A30277DA1E31F0780DE0180CE5BE00200262044F7004E598303B71907B00703308A49
310
C300D4A507EC7DC8540CE0D3E6D2035E0E85B1AB9D171EE0DF7F7675D84A23FD146953621F8F7F2A3E0683F95F2E00CECE055E2B8F67033065CEA249D0498C1B0B84D43A062B426153EAE6FB43E1C767032719A2EC64C87429DBC9109CEE2B4986D48BC9505D2E700C6A170042009A4F876B05110E02E85110A9558436C96B
310
89D68C56003CB824B6AEFAD17FA61437041E0F80D3D12700531AB40B40A3CAE24E65C0F200BF646001403FEB0350E801796B849200BA2B8E4E0EE010B65002804602E0D6877300ECBF0F0C05804A0174B14082F01F0B25915E204184416B8373AC14150002A07F00B32F975750B98A507CC3445C3F2ADD30A19E56C414E1FB
310
2D331CFA56B765E6F90AC11D9BA6F894487C19B0F94D535F6E9BC3298F7D5ED97A87E2BFF5D21C9065990088BF0740BD02E0F3654600BFF20FF390002EF6C23BF2DFFE66AAFF1FE0CA9F1302B8A98900E8110062261E201E201E200004800010000240000C0620F72902F27C814901584D54AC498704E4010B3209E68E0D08
310
8079E30079D4964C82120A0B0001F03C801FDE405A6ECA6DC1B20000000049454E44AE426082
  0
ENDSEC
  0
EOF
