<svg xmlns="http://www.w3.org/2000/svg" viewBox="0 0 20786.665000000023 15700" role="img" aria-label="单层三房02成熟DXF户型及总尺寸"><rect width="100%" height="100%" fill="#f5f1e8"/><g data-layer="OVERALL_DIMENSIONS"><g><line x1="5000" y1="130" x2="16200.000000000015" y2="130" stroke="#536b64" stroke-width="24"/><line x1="5000" y1="40" x2="5000" y2="220" stroke="#536b64" stroke-width="24"/><line x1="16200.000000000015" y1="40" x2="16200.000000000015" y2="220" stroke="#536b64" stroke-width="24"/><text x="10600.000000000007" y="20" text-anchor="middle" font-size="190" fill="#173d34">总宽 17.8 m</text></g><g><line x1="17320.000000000015" y1="1500" x2="17320.000000000015" y2="14200" stroke="#536b64" stroke-width="24"/><line x1="17230.000000000015" y1="1500" x2="17410.000000000015" y2="1500" stroke="#536b64" stroke-width="24"/><line x1="17230.000000000015" y1="14200" x2="17410.000000000015" y2="14200" stroke="#536b64" stroke-width="24"/><text x="17470.000000000015" y="7850" transform="rotate(90 17470.000000000015 7850)" text-anchor="middle" font-size="190" fill="#173d34">总深 12.7 m</text></g></g><g data-ancillary-type="PORCH" data-area-square-meters="8.55"><polygon points="16200.000000000015,6099.999999999999 18100.000000000015,6099.999999999999 18100.000000000015,10600 16200.000000000015,10600" fill="#e5dfd2" stroke="#8f826f" stroke-width="55"/><rect x="18000.000000000015" y="5999.999999999999" width="200" height="200" fill="#454b49"/><rect x="18000.000000000015" y="10500" width="200" height="200" fill="#454b49"/><text x="17149.99999999984" y="8279.999999999996" text-anchor="middle" font-size="250" fill="#564e43">门廊</text><text x="17149.99999999984" y="8559.999999999996" text-anchor="middle" font-size="180" fill="#746a5b">8.55 m²</text></g><g data-ancillary-type="OUTDOOR-TERRACE" data-area-square-meters="12.95"><polygon points="5000,10500 1500,10500 1500,14200 5000,14200" fill="#e5dfd2" stroke="#8f826f" stroke-width="55"/><text x="3249.9999999999272" y="12280" text-anchor="middle" font-size="250" fill="#564e43">室外露台</text><text x="3249.9999999999272" y="12560" text-anchor="middle" font-size="180" fill="#746a5b">12.95 m²</text></g><g data-ancillary-type="EXTERIOR-STEPS" data-side-closure="both" stroke="#9b8d77" stroke-width="48" fill="none"><line x1="3250" y1="10500" x2="5000" y2="10500"/><line x1="3250" y1="10200" x2="5000" y2="10200"/><line x1="3250" y1="9900" x2="5000" y2="9900"/><line x1="3250" y1="9600" x2="5000" y2="9600"/><line x1="3250" y1="10500" x2="3250" y2="9600"/><line x1="5000" y1="10500" x2="5000" y2="9600"/><text x="4125" y="9900" text-anchor="middle" font-size="185" fill="#62594c" stroke="none">室外台阶</text></g><g data-ancillary-type="CURVED-EXTERIOR-STEPS" data-tread-layout="parallel" data-area-square-meters="0.86" stroke="#9b8d77" stroke-width="48" fill="none"><path data-parallel-tread="true" d="M 18400.000000000015 6099.999999999999 Q 18973.33 8350 18400.000000000015 10600"/><path data-parallel-tread="true" d="M 18700.000000000015 6099.999999999999 Q 19273.33 8350 18700.000000000015 10600"/><path data-parallel-tread="true" d="M 19000.000000000015 6099.999999999999 Q 19573.33 8350 19000.000000000015 10600"/><line x1="18100.000000000015" y1="6099.999999999999" x2="19000.000000000015" y2="6099.999999999999"/><line x1="18100.000000000015" y1="10600" x2="19000.000000000015" y2="10600"/></g><polygon data-room-category="service-base" points="5000,14200 16200.000000000015,14200 16200.000000000015,1500 5000,1500" fill="#ddd9d0"/><g data-room-id="HT-T005-F01-RM-001" data-room-category="private" data-label-position="visual-center"><polygon points="5200,4299.999999999999 9200,4299.999999999999 9200,1700 5200,1700" fill="#dfe8d6" stroke="#dfe8d6" stroke-width="40" stroke-linejoin="miter"/><text x="7199.999999999913" y="2909.9999999999973" text-anchor="middle" dominant-baseline="middle" font-size="260" fill="#173d34">卧室一</text><text x="7199.999999999913" y="3189.9999999999973" text-anchor="middle" dominant-baseline="middle" font-size="190" fill="#657872">10.4 m²</text></g><g data-room-id="HT-T005-F01-RM-002" data-room-category="service" data-label-position="visual-center"><polygon points="9400,4299.999999999999 11000.000000000015,4299.999999999999 11000.000000000015,1700 9400,1700" fill="#ddd9d0" stroke="#ddd9d0" stroke-width="40" stroke-linejoin="miter"/><text x="10199.999999999287" y="2910.0000000000573" text-anchor="middle" dominant-baseline="middle" font-size="260" fill="#173d34">卫生间一</text><text x="10199.999999999287" y="3190.0000000000573" text-anchor="middle" dominant-baseline="middle" font-size="190" fill="#657872">4.2 m²</text></g><g data-room-id="HT-T005-F01-RM-003" data-room-category="private" data-label-position="visual-center"><polygon points="11200.000000000015,5999.999999999999 16000.000000000015,5999.999999999999 16000.000000000015,1700 11200.000000000015,1700" fill="#dfe8d6" stroke="#dfe8d6" stroke-width="40" stroke-linejoin="miter"/><text x="13599.999999999956" y="3760.0000000000027" text-anchor="middle" dominant-baseline="middle" font-size="260" fill="#173d34">主卧</text><text x="13599.999999999956" y="4040.0000000000027" text-anchor="middle" dominant-baseline="middle" font-size="190" fill="#657872">20.6 m²</text></g><g data-room-id="HT-T005-F01-RM-004" data-room-category="service" data-label-position="visual-center"><polygon points="5200,5999.999999999999 7800,5999.999999999999 7800,4499.999999999999 5200,4499.999999999999" fill="#ddd9d0" stroke="#ddd9d0" stroke-width="40" stroke-linejoin="miter"/><text x="6500.0000000001455" y="5159.999999999991" text-anchor="middle" dominant-baseline="middle" font-size="260" fill="#173d34">卫生间二</text><text x="6500.0000000001455" y="5439.999999999991" text-anchor="middle" dominant-baseline="middle" font-size="190" fill="#657872">3.9 m²</text></g><g data-room-id="HT-T005-F01-RM-005" data-room-category="private" data-label-position="visual-center"><polygon points="5200,9200 9000,9200 9000,6199.999999999999 5200,6199.999999999999" fill="#dfe8d6" stroke="#dfe8d6" stroke-width="40" stroke-linejoin="miter"/><text x="7100.000000000029" y="7610.000000000002" text-anchor="middle" dominant-baseline="middle" font-size="260" fill="#173d34">卧室二</text><text x="7100.000000000029" y="7890.000000000002" text-anchor="middle" dominant-baseline="middle" font-size="190" fill="#657872">11.4 m²</text></g><g data-room-id="HT-T005-F01-RM-006" data-room-category="service" data-label-position="visual-center"><polygon points="5200,10500 9000,10500 9000,9400 5200,9400" fill="#ddd9d0" stroke="#ddd9d0" stroke-width="40" stroke-linejoin="miter"/><text x="7100.000000000087" y="9859.999999999998" text-anchor="middle" dominant-baseline="middle" font-size="260" fill="#173d34">储藏室</text><text x="7100.000000000087" y="10139.999999999998" text-anchor="middle" dominant-baseline="middle" font-size="190" fill="#657872">4.2 m²</text></g><g data-room-id="HT-T005-F01-RM-007" data-room-category="service" data-label-position="visual-center"><polygon points="5200,14000 9000,14000 9000,10700 5200,10700" fill="#ddd9d0" stroke="#ddd9d0" stroke-width="40" stroke-linejoin="miter"/><text x="7100.000000000029" y="12260" text-anchor="middle" dominant-baseline="middle" font-size="260" fill="#173d34">厨房</text><text x="7100.000000000029" y="12540" text-anchor="middle" dominant-baseline="middle" font-size="190" fill="#657872">12.5 m²</text></g><g data-room-id="HT-T005-F01-RM-008" data-room-category="public" data-label-position="visual-center"><polygon points="9400,14000 13200.000000000015,14000 13200.000000000015,10700 9400,10700" fill="#efe1cc" stroke="#efe1cc" stroke-width="40" stroke-linejoin="miter"/><text x="11299.999999999985" y="12260.000000000002" text-anchor="middle" dominant-baseline="middle" font-size="260" fill="#173d34">餐厅</text><text x="11299.999999999985" y="12540.000000000002" text-anchor="middle" dominant-baseline="middle" font-size="190" fill="#657872">12.6 m²</text></g><g data-room-id="HT-T005-F01-RM-009" data-room-category="private" data-label-position="visual-center"><polygon points="13200.000000000015,14000 16000.000000000015,14000 16000.000000000015,10700 13200.000000000015,10700" fill="#dfe8d6" stroke="#dfe8d6" stroke-width="40" stroke-linejoin="miter"/><text x="14599.999999999927" y="12259.999999999998" text-anchor="middle" dominant-baseline="middle" font-size="260" fill="#173d34">书房</text><text x="14599.999999999927" y="12539.999999999998" text-anchor="middle" dominant-baseline="middle" font-size="190" fill="#657872">9.2 m²</text></g><g data-room-id="HT-T005-F01-RM-010" data-room-category="public" data-label-position="visual-center"><polygon points="9400,10500 16000.000000000015,10500 16000.000000000015,6199.999999999999 9400,6199.999999999999" fill="#efe1cc" stroke="#efe1cc" stroke-width="40" stroke-linejoin="miter"/><text x="12699.999999999985" y="8259.999999999998" text-anchor="middle" dominant-baseline="middle" font-size="260" fill="#173d34">客厅</text><text x="12699.999999999985" y="8539.999999999998" text-anchor="middle" dominant-baseline="middle" font-size="190" fill="#657872">26.2 m²</text></g><line x1="11100.000000000015" y1="1500" x2="16200.000000000015" y2="1500" stroke="#454b49" stroke-width="70" stroke-linecap="square"/><line x1="11200.000000000015" y1="1700" x2="16000.000000000015" y2="1700" stroke="#454b49" stroke-width="70" stroke-linecap="square"/><line x1="16000.000000000015" y1="1700" x2="16000.000000000015" y2="2949.999999999999" stroke="#454b49" stroke-width="70" stroke-linecap="square"/><line x1="16000.000000000015" y1="2949.999999999999" x2="16200.000000000015" y2="2949.999999999999" stroke="#454b49" stroke-width="70" stroke-linecap="square"/><line x1="16200.000000000015" y1="2949.999999999999" x2="16200.000000000015" y2="1500" stroke="#454b49" stroke-width="70" stroke-linecap="square"/><line x1="16200.000000000015" y1="6199.999999999999" x2="16200.000000000015" y2="4749.999999999999" stroke="#454b49" stroke-width="70" stroke-linecap="square"/><line x1="16200.000000000015" y1="4749.999999999999" x2="16000.000000000015" y2="4749.999999999999" stroke="#454b49" stroke-width="70" stroke-linecap="square"/><line x1="16000.000000000015" y1="4749.999999999999" x2="16000.000000000015" y2="5999.999999999999" stroke="#454b49" stroke-width="70" stroke-linecap="square"/><line x1="16200.000000000015" y1="6199.999999999999" x2="15700.000000000015" y2="6199.999999999999" stroke="#454b49" stroke-width="70" stroke-linecap="square"/><line x1="16000.000000000015" y1="5999.999999999999" x2="15600.000000000015" y2="5999.999999999999" stroke="#454b49" stroke-width="70" stroke-linecap="square"/><line x1="11100.000000000015" y1="1500" x2="10550.000000000015" y2="1500" stroke="#454b49" stroke-width="70" stroke-linecap="square"/><line x1="10550.000000000015" y1="1500" x2="10550.000000000015" y2="1700" stroke="#454b49" stroke-width="70" stroke-linecap="square"/><line x1="10550.000000000015" y1="1700" x2="11000.000000000015" y2="1700" stroke="#454b49" stroke-width="70" stroke-linecap="square"/><line x1="9400" y1="1700" x2="9650" y2="1700" stroke="#454b49" stroke-width="70" stroke-linecap="square"/><line x1="9650" y1="1700" x2="9650" y2="1500" stroke="#454b49" stroke-width="70" stroke-linecap="square"/><line x1="9650" y1="1500" x2="9300" y2="1500" stroke="#454b49" stroke-width="70" stroke-linecap="square"/><line x1="9400" y1="1700" x2="9400" y2="4299.999999999999" stroke="#454b49" stroke-width="70" stroke-linecap="square"/><line x1="9200" y1="1700" x2="9200" y2="4299.999999999999" stroke="#454b49" stroke-width="70" stroke-linecap="square"/><line x1="5000" y1="1500" x2="5000" y2="2050" stroke="#454b49" stroke-width="70" stroke-linecap="square"/><line x1="5000" y1="2050" x2="5200" y2="2050" stroke="#454b49" stroke-width="70" stroke-linecap="square"/><line x1="5200" y1="2050" x2="5200" y2="1700" stroke="#454b49" stroke-width="70" stroke-linecap="square"/><line x1="5200" y1="4299.999999999999" x2="5200" y2="3849.999999999999" stroke="#454b49" stroke-width="70" stroke-linecap="square"/><line x1="5200" y1="3849.999999999999" x2="5000" y2="3849.999999999999" stroke="#454b49" stroke-width="70" stroke-linecap="square"/><line x1="5000" y1="3849.999999999999" x2="5000" y2="4399.999999999999" stroke="#454b49" stroke-width="70" stroke-linecap="square"/><line x1="11000.000000000015" y1="4499.999999999999" x2="9300" y2="4499.999999999999" stroke="#454b49" stroke-width="70" stroke-linecap="square"/><line x1="11000.000000000015" y1="4299.999999999999" x2="9400" y2="4299.999999999999" stroke="#454b49" stroke-width="70" stroke-linecap="square"/><line x1="9200" y1="9400" x2="5200" y2="9400" stroke="#454b49" stroke-width="70" stroke-linecap="square"/><line x1="9200" y1="9200" x2="5200" y2="9200" stroke="#454b49" stroke-width="70" stroke-linecap="square"/><line x1="5200" y1="14000" x2="5200" y2="13300" stroke="#454b49" stroke-width="70" stroke-linecap="square"/><line x1="5200" y1="13300" x2="5000" y2="13300" stroke="#454b49" stroke-width="70" stroke-linecap="square"/><line x1="5000" y1="13300" x2="5000" y2="14200" stroke="#454b49" stroke-width="70" stroke-linecap="square"/><line x1="5000" y1="10600" x2="5000" y2="10800" stroke="#454b49" stroke-width="70" stroke-linecap="square"/><line x1="5000" y1="10800" x2="5200" y2="10800" stroke="#454b49" stroke-width="70" stroke-linecap="square"/><line x1="5200" y1="10800" x2="5200" y2="10700" stroke="#454b49" stroke-width="70" stroke-linecap="square"/><line x1="5200" y1="12300" x2="5200" y2="11700" stroke="#454b49" stroke-width="70" stroke-linecap="square"/><line x1="5200" y1="11700" x2="5000" y2="11700" stroke="#454b49" stroke-width="70" stroke-linecap="square"/><line x1="5000" y1="11700" x2="5000" y2="12300" stroke="#454b49" stroke-width="70" stroke-linecap="square"/><line x1="5000" y1="12300" x2="5200" y2="12300" stroke="#454b49" stroke-width="70" stroke-linecap="square"/><line x1="9400" y1="5999.999999999999" x2="9100" y2="5999.999999999999" stroke="#454b49" stroke-width="70" stroke-linecap="square"/><line x1="9100" y1="5999.999999999999" x2="9100" y2="6199.999999999999" stroke="#454b49" stroke-width="70" stroke-linecap="square"/><line x1="9100" y1="6199.999999999999" x2="9200" y2="6199.999999999999" stroke="#454b49" stroke-width="70" stroke-linecap="square"/><line x1="7900" y1="6199.999999999999" x2="8100" y2="6199.999999999999" stroke="#454b49" stroke-width="70" stroke-linecap="square"/><line x1="8100" y1="6199.999999999999" x2="8100" y2="5999.999999999999" stroke="#454b49" stroke-width="70" stroke-linecap="square"/><line x1="8100" y1="5999.999999999999" x2="8000" y2="5999.999999999999" stroke="#454b49" stroke-width="70" stroke-linecap="square"/><line x1="5200" y1="10500" x2="5200" y2="10400" stroke="#454b49" stroke-width="70" stroke-linecap="square"/><line x1="5200" y1="10400" x2="5000" y2="10400" stroke="#454b49" stroke-width="70" stroke-linecap="square"/><line x1="5000" y1="10400" x2="5000" y2="10600" stroke="#454b49" stroke-width="70" stroke-linecap="square"/><line x1="5000" y1="9300" x2="5000" y2="9500" stroke="#454b49" stroke-width="70" stroke-linecap="square"/><line x1="5000" y1="9500" x2="5200" y2="9500" stroke="#454b49" stroke-width="70" stroke-linecap="square"/><line x1="5200" y1="9500" x2="5200" y2="9400" stroke="#454b49" stroke-width="70" stroke-linecap="square"/><line x1="9200" y1="10500" x2="6100" y2="10500" stroke="#454b49" stroke-width="70" stroke-linecap="square"/><line x1="6100" y1="10500" x2="6100" y2="10700" stroke="#454b49" stroke-width="70" stroke-linecap="square"/><line x1="6100" y1="10700" x2="9200" y2="10700" stroke="#454b49" stroke-width="70" stroke-linecap="square"/><line x1="5200" y1="10700" x2="5300" y2="10700" stroke="#454b49" stroke-width="70" stroke-linecap="square"/><line x1="5300" y1="10700" x2="5300" y2="10500" stroke="#454b49" stroke-width="70" stroke-linecap="square"/><line x1="5300" y1="10500" x2="5200" y2="10500" stroke="#454b49" stroke-width="70" stroke-linecap="square"/><line x1="16000.000000000015" y1="14000" x2="15500.000000000015" y2="14000" stroke="#454b49" stroke-width="70" stroke-linecap="square"/><line x1="15500.000000000015" y1="14000" x2="15500.000000000015" y2="14200" stroke="#454b49" stroke-width="70" stroke-linecap="square"/><line x1="15500.000000000015" y1="14200" x2="16200.000000000015" y2="14200" stroke="#454b49" stroke-width="70" stroke-linecap="square"/><line x1="13100.000000000015" y1="14200" x2="13700.000000000015" y2="14200" stroke="#454b49" stroke-width="70" stroke-linecap="square"/><line x1="13700.000000000015" y1="14200" x2="13700.000000000015" y2="14000" stroke="#454b49" stroke-width="70" stroke-linecap="square"/><line x1="13700.000000000015" y1="14000" x2="13200.000000000015" y2="14000" stroke="#454b49" stroke-width="70" stroke-linecap="square"/><line x1="16000.000000000015" y1="10700" x2="16000.000000000015" y2="11250" stroke="#454b49" stroke-width="70" stroke-linecap="square"/><line x1="16000.000000000015" y1="11250" x2="16200.000000000015" y2="11250" stroke="#454b49" stroke-width="70" stroke-linecap="square"/><line x1="16200.000000000015" y1="11250" x2="16200.000000000015" y2="10500" stroke="#454b49" stroke-width="70" stroke-linecap="square"/><line x1="16200.000000000015" y1="14200" x2="16200.000000000015" y2="13450" stroke="#454b49" stroke-width="70" stroke-linecap="square"/><line x1="16200.000000000015" y1="13450" x2="16000.000000000015" y2="13450" stroke="#454b49" stroke-width="70" stroke-linecap="square"/><line x1="16000.000000000015" y1="13450" x2="16000.000000000015" y2="14000" stroke="#454b49" stroke-width="70" stroke-linecap="square"/><line x1="16000.000000000015" y1="11850" x2="16000.000000000015" y2="12050" stroke="#454b49" stroke-width="70" stroke-linecap="square"/><line x1="16000.000000000015" y1="12050" x2="16200.000000000015" y2="12050" stroke="#454b49" stroke-width="70" stroke-linecap="square"/><line x1="16200.000000000015" y1="12050" x2="16200.000000000015" y2="11850" stroke="#454b49" stroke-width="70" stroke-linecap="square"/><line x1="16200.000000000015" y1="11850" x2="16000.000000000015" y2="11850" stroke="#454b49" stroke-width="70" stroke-linecap="square"/><line x1="16000.000000000015" y1="12650" x2="16000.000000000015" y2="12850" stroke="#454b49" stroke-width="70" stroke-linecap="square"/><line x1="16000.000000000015" y1="12850" x2="16200.000000000015" y2="12850" stroke="#454b49" stroke-width="70" stroke-linecap="square"/><line x1="16200.000000000015" y1="12850" x2="16200.000000000015" y2="12650" stroke="#454b49" stroke-width="70" stroke-linecap="square"/><line x1="16200.000000000015" y1="12650" x2="16000.000000000015" y2="12650" stroke="#454b49" stroke-width="70" stroke-linecap="square"/><line x1="13200.000000000015" y1="14000" x2="13200.000000000015" y2="13284.64" stroke="#454b49" stroke-width="70" stroke-linecap="square"/><line x1="13200.000000000015" y1="13284.64" x2="13000.000000000015" y2="13284.64" stroke="#454b49" stroke-width="70" stroke-linecap="square"/><line x1="13000.000000000015" y1="13284.64" x2="13000.000000000015" y2="14000" stroke="#454b49" stroke-width="70" stroke-linecap="square"/><line x1="13000.000000000015" y1="10500" x2="13000.000000000015" y2="11484.64" stroke="#454b49" stroke-width="70" stroke-linecap="square"/><line x1="13000.000000000015" y1="11484.64" x2="13200.000000000015" y2="11484.64" stroke="#454b49" stroke-width="70" stroke-linecap="square"/><line x1="13200.000000000015" y1="11484.64" x2="13200.000000000015" y2="10700" stroke="#454b49" stroke-width="70" stroke-linecap="square"/><line x1="13000.000000000015" y1="14000" x2="12500.000000000015" y2="14000" stroke="#454b49" stroke-width="70" stroke-linecap="square"/><line x1="12500.000000000015" y1="14000" x2="12500.000000000015" y2="14200" stroke="#454b49" stroke-width="70" stroke-linecap="square"/><line x1="12500.000000000015" y1="14200" x2="13100.000000000015" y2="14200" stroke="#454b49" stroke-width="70" stroke-linecap="square"/><line x1="9300" y1="14200" x2="9750" y2="14200" stroke="#454b49" stroke-width="70" stroke-linecap="square"/><line x1="9750" y1="14200" x2="9750" y2="14000" stroke="#454b49" stroke-width="70" stroke-linecap="square"/><line x1="9750" y1="14000" x2="9400" y2="14000" stroke="#454b49" stroke-width="70" stroke-linecap="square"/><line x1="10700.000000000015" y1="14000" x2="10350.000000000015" y2="14000" stroke="#454b49" stroke-width="70" stroke-linecap="square"/><line x1="10350.000000000015" y1="14000" x2="10350.000000000015" y2="14200" stroke="#454b49" stroke-width="70" stroke-linecap="square"/><line x1="10350.000000000015" y1="14200" x2="10700.000000000015" y2="14200" stroke="#454b49" stroke-width="70" stroke-linecap="square"/><line x1="10700.000000000015" y1="14200" x2="10700.000000000015" y2="14000" stroke="#454b49" stroke-width="70" stroke-linecap="square"/><line x1="15500.000000000015" y1="6199.999999999999" x2="15500.000000000015" y2="6299.999999999999" stroke="#454b49" stroke-width="70" stroke-linecap="square"/><line x1="15500.000000000015" y1="6299.999999999999" x2="15700.000000000015" y2="6299.999999999999" stroke="#454b49" stroke-width="70" stroke-linecap="square"/><line x1="15700.000000000015" y1="6299.999999999999" x2="15700.000000000015" y2="6199.999999999999" stroke="#454b49" stroke-width="70" stroke-linecap="square"/><line x1="15700.000000000015" y1="10500" x2="15700.000000000015" y2="9900" stroke="#454b49" stroke-width="70" stroke-linecap="square"/><line x1="15700.000000000015" y1="9900" x2="15500.000000000015" y2="9900" stroke="#454b49" stroke-width="70" stroke-linecap="square"/><line x1="15500.000000000015" y1="9900" x2="15500.000000000015" y2="10500" stroke="#454b49" stroke-width="70" stroke-linecap="square"/><line x1="15500.000000000015" y1="7499.999999999999" x2="15500.000000000015" y2="8099.999999999999" stroke="#454b49" stroke-width="70" stroke-linecap="square"/><line x1="15500.000000000015" y1="8099.999999999999" x2="15700.000000000015" y2="8099.999999999999" stroke="#454b49" stroke-width="70" stroke-linecap="square"/><line x1="15700.000000000015" y1="8099.999999999999" x2="15700.000000000015" y2="7499.999999999999" stroke="#454b49" stroke-width="70" stroke-linecap="square"/><line x1="15700.000000000015" y1="7499.999999999999" x2="15500.000000000015" y2="7499.999999999999" stroke="#454b49" stroke-width="70" stroke-linecap="square"/><line x1="13000.000000000015" y1="10500" x2="15500.000000000015" y2="10500" stroke="#454b49" stroke-width="70" stroke-linecap="square"/><line x1="13200.000000000015" y1="10700" x2="15600.000000000015" y2="10700" stroke="#454b49" stroke-width="70" stroke-linecap="square"/><line x1="9400" y1="14000" x2="9400" y2="12500" stroke="#454b49" stroke-width="70" stroke-linecap="square"/><line x1="9400" y1="12500" x2="9200" y2="12500" stroke="#454b49" stroke-width="70" stroke-linecap="square"/><line x1="9200" y1="12500" x2="9200" y2="14000" stroke="#454b49" stroke-width="70" stroke-linecap="square"/><line x1="9200" y1="10700" x2="9400" y2="10700" stroke="#454b49" stroke-width="70" stroke-linecap="square"/><line x1="9400" y1="10700" x2="9400" y2="10600" stroke="#454b49" stroke-width="70" stroke-linecap="square"/><line x1="5200" y1="9200" x2="5200" y2="8600" stroke="#454b49" stroke-width="70" stroke-linecap="square"/><line x1="5200" y1="8600" x2="5000" y2="8600" stroke="#454b49" stroke-width="70" stroke-linecap="square"/><line x1="5000" y1="8600" x2="5000" y2="9300" stroke="#454b49" stroke-width="70" stroke-linecap="square"/><line x1="5000" y1="6099.999999999999" x2="5000" y2="6799.999999999999" stroke="#454b49" stroke-width="70" stroke-linecap="square"/><line x1="5000" y1="6799.999999999999" x2="5200" y2="6799.999999999999" stroke="#454b49" stroke-width="70" stroke-linecap="square"/><line x1="5200" y1="6799.999999999999" x2="5200" y2="6199.999999999999" stroke="#454b49" stroke-width="70" stroke-linecap="square"/><line x1="7800" y1="4499.999999999999" x2="7800" y2="5099.999999999999" stroke="#454b49" stroke-width="70" stroke-linecap="square"/><line x1="7800" y1="5099.999999999999" x2="8000" y2="5099.999999999999" stroke="#454b49" stroke-width="70" stroke-linecap="square"/><line x1="8000" y1="5099.999999999999" x2="8000" y2="4499.999999999999" stroke="#454b49" stroke-width="70" stroke-linecap="square"/><line x1="8000" y1="5999.999999999999" x2="8000" y2="5899.999999999999" stroke="#454b49" stroke-width="70" stroke-linecap="square"/><line x1="8000" y1="5899.999999999999" x2="7800" y2="5899.999999999999" stroke="#454b49" stroke-width="70" stroke-linecap="square"/><line x1="7800" y1="5899.999999999999" x2="7800" y2="5999.999999999999" stroke="#454b49" stroke-width="70" stroke-linecap="square"/><line x1="11200.000000000015" y1="5999.999999999999" x2="11200.000000000015" y2="5899.999999999999" stroke="#454b49" stroke-width="70" stroke-linecap="square"/><line x1="11200.000000000015" y1="5899.999999999999" x2="11000.000000000015" y2="5899.999999999999" stroke="#454b49" stroke-width="70" stroke-linecap="square"/><line x1="11000.000000000015" y1="5899.999999999999" x2="11000.000000000015" y2="6199.999999999999" stroke="#454b49" stroke-width="70" stroke-linecap="square"/><line x1="11000.000000000015" y1="4499.999999999999" x2="11000.000000000015" y2="4899.999999999999" stroke="#454b49" stroke-width="70" stroke-linecap="square"/><line x1="11000.000000000015" y1="4899.999999999999" x2="11200.000000000015" y2="4899.999999999999" stroke="#454b49" stroke-width="70" stroke-linecap="square"/><line x1="11200.000000000015" y1="4899.999999999999" x2="11200.000000000015" y2="4399.999999999999" stroke="#454b49" stroke-width="70" stroke-linecap="square"/><line x1="11200.000000000015" y1="4399.999999999999" x2="11200.000000000015" y2="4199.999999999999" stroke="#454b49" stroke-width="70" stroke-linecap="square"/><line x1="11200.000000000015" y1="4199.999999999999" x2="11000.000000000015" y2="4199.999999999999" stroke="#454b49" stroke-width="70" stroke-linecap="square"/><line x1="11000.000000000015" y1="4199.999999999999" x2="11000.000000000015" y2="4299.999999999999" stroke="#454b49" stroke-width="70" stroke-linecap="square"/><line x1="11000.000000000015" y1="1700" x2="11000.000000000015" y2="3399.999999999999" stroke="#454b49" stroke-width="70" stroke-linecap="square"/><line x1="11000.000000000015" y1="3399.999999999999" x2="11200.000000000015" y2="3399.999999999999" stroke="#454b49" stroke-width="70" stroke-linecap="square"/><line x1="11200.000000000015" y1="3399.999999999999" x2="11200.000000000015" y2="1700" stroke="#454b49" stroke-width="70" stroke-linecap="square"/><line x1="5000" y1="4399.999999999999" x2="5000" y2="4799.999999999999" stroke="#454b49" stroke-width="70" stroke-linecap="square"/><line x1="5000" y1="4799.999999999999" x2="5200" y2="4799.999999999999" stroke="#454b49" stroke-width="70" stroke-linecap="square"/><line x1="5200" y1="4799.999999999999" x2="5200" y2="4499.999999999999" stroke="#454b49" stroke-width="70" stroke-linecap="square"/><line x1="5200" y1="5999.999999999999" x2="5200" y2="5699.999999999999" stroke="#454b49" stroke-width="70" stroke-linecap="square"/><line x1="5200" y1="5699.999999999999" x2="5000" y2="5699.999999999999" stroke="#454b49" stroke-width="70" stroke-linecap="square"/><line x1="5000" y1="5699.999999999999" x2="5000" y2="6099.999999999999" stroke="#454b49" stroke-width="70" stroke-linecap="square"/><line x1="9300" y1="1500" x2="8100" y2="1500" stroke="#454b49" stroke-width="70" stroke-linecap="square"/><line x1="8100" y1="1500" x2="8100" y2="1700" stroke="#454b49" stroke-width="70" stroke-linecap="square"/><line x1="8100" y1="1700" x2="9200" y2="1700" stroke="#454b49" stroke-width="70" stroke-linecap="square"/><line x1="5200" y1="1700" x2="6300" y2="1700" stroke="#454b49" stroke-width="70" stroke-linecap="square"/><line x1="6300" y1="1700" x2="6300" y2="1500" stroke="#454b49" stroke-width="70" stroke-linecap="square"/><line x1="6300" y1="1500" x2="5000" y2="1500" stroke="#454b49" stroke-width="70" stroke-linecap="square"/><line x1="9200" y1="4299.999999999999" x2="9100" y2="4299.999999999999" stroke="#454b49" stroke-width="70" stroke-linecap="square"/><line x1="9100" y1="4299.999999999999" x2="9100" y2="4499.999999999999" stroke="#454b49" stroke-width="70" stroke-linecap="square"/><line x1="9100" y1="4499.999999999999" x2="9300" y2="4499.999999999999" stroke="#454b49" stroke-width="70" stroke-linecap="square"/><line x1="8000" y1="4499.999999999999" x2="8100" y2="4499.999999999999" stroke="#454b49" stroke-width="70" stroke-linecap="square"/><line x1="8100" y1="4499.999999999999" x2="8100" y2="4299.999999999999" stroke="#454b49" stroke-width="70" stroke-linecap="square"/><line x1="8100" y1="4299.999999999999" x2="7900" y2="4299.999999999999" stroke="#454b49" stroke-width="70" stroke-linecap="square"/><line x1="7800" y1="4499.999999999999" x2="5200" y2="4499.999999999999" stroke="#454b49" stroke-width="70" stroke-linecap="square"/><line x1="7900" y1="4299.999999999999" x2="5200" y2="4299.999999999999" stroke="#454b49" stroke-width="70" stroke-linecap="square"/><line x1="7900" y1="6199.999999999999" x2="5200" y2="6199.999999999999" stroke="#454b49" stroke-width="70" stroke-linecap="square"/><line x1="7800" y1="5999.999999999999" x2="5200" y2="5999.999999999999" stroke="#454b49" stroke-width="70" stroke-linecap="square"/><line x1="9200" y1="14000" x2="8050" y2="14000" stroke="#454b49" stroke-width="70" stroke-linecap="square"/><line x1="8050" y1="14000" x2="8050" y2="14200" stroke="#454b49" stroke-width="70" stroke-linecap="square"/><line x1="8050" y1="14200" x2="9300" y2="14200" stroke="#454b49" stroke-width="70" stroke-linecap="square"/><line x1="5000" y1="14200" x2="6250" y2="14200" stroke="#454b49" stroke-width="70" stroke-linecap="square"/><line x1="6250" y1="14200" x2="6250" y2="14000" stroke="#454b49" stroke-width="70" stroke-linecap="square"/><line x1="6250" y1="14000" x2="5200" y2="14000" stroke="#454b49" stroke-width="70" stroke-linecap="square"/><line x1="9200" y1="10500" x2="9200" y2="9400" stroke="#454b49" stroke-width="70" stroke-linecap="square"/><line x1="9400" y1="10600" x2="9400" y2="9300" stroke="#454b49" stroke-width="70" stroke-linecap="square"/><line x1="9200" y1="9200" x2="9200" y2="6199.999999999999" stroke="#454b49" stroke-width="70" stroke-linecap="square"/><line x1="9400" y1="9300" x2="9400" y2="5999.999999999999" stroke="#454b49" stroke-width="70" stroke-linecap="square"/><line x1="15500.000000000015" y1="6199.999999999999" x2="11000.000000000015" y2="6199.999999999999" stroke="#454b49" stroke-width="70" stroke-linecap="square"/><line x1="15600.000000000015" y1="5999.999999999999" x2="11200.000000000015" y2="5999.999999999999" stroke="#454b49" stroke-width="70" stroke-linecap="square"/><line x1="15700.000000000015" y1="10500" x2="16200.000000000015" y2="10500" stroke="#454b49" stroke-width="70" stroke-linecap="square"/><line x1="15600.000000000015" y1="10700" x2="16000.000000000015" y2="10700" stroke="#454b49" stroke-width="70" stroke-linecap="square"/><polygon points="5000,14200 16200.000000000015,14200 16200.000000000015,1500 5000,1500" fill="none" stroke="#454b49" stroke-width="90"/><g data-opening-type="door" data-door-type="single-swing-inward" data-source-block="$DorLib2D$00000001" data-opening-id="HT-T005-F01-DR-001" data-opening-length-mm="1000" stroke="#e2ca7a" fill="none"><line data-door-leaf="true" x1="11100.000000000015" y1="5899.999999999999" x2="12100.000000000015" y2="5899.999999999999" stroke-width="58" stroke-linecap="square"/><path data-door-swing="true" d="M 11100.000000000015 4899.999999999999 A 1000 1000 0 0 1 12100.000000000015 5899.999999999999" stroke-width="38"/></g><g data-opening-type="door" data-door-type="single-swing-inward" data-source-block="$DorLib2D$00000001" data-opening-id="HT-T005-F01-DR-002" data-opening-length-mm="1000" stroke="#e2ca7a" fill="none"><line data-door-leaf="true" x1="9100" y1="4399.999999999999" x2="9100" y2="3399.999999999999" stroke-width="58" stroke-linecap="square"/><path data-door-swing="true" d="M 8100 4399.999999999999 A 1000 1000 0 0 1 9100 3399.999999999999" stroke-width="38"/></g><g data-opening-type="door" data-door-type="single-swing-inward" data-source-block="$DorLib2D$00000001" data-opening-id="HT-T005-F01-DR-003" data-opening-length-mm="1000" stroke="#e2ca7a" fill="none"><line data-door-leaf="true" x1="8100" y1="6099.999999999999" x2="8100" y2="7099.999999999999" stroke-width="58" stroke-linecap="square"/><path data-door-swing="true" d="M 9100 6099.999999999999 A 1000 1000 0 0 1 8100 7099.999999999999" stroke-width="38"/></g><g data-opening-type="door" data-door-type="single-swing-inward" data-source-block="$DorLib2D$00000001" data-opening-id="HT-T005-F01-DR-004" data-opening-length-mm="800" stroke="#e2ca7a" fill="none"><line data-door-leaf="true" x1="5300" y1="10600" x2="5300" y2="9800" stroke-width="58" stroke-linecap="square"/><path data-door-swing="true" d="M 6100 10600 A 800 800 0 0 0 5300 9800" stroke-width="38"/></g><g data-opening-type="door" data-door-type="single-swing-inward" data-source-block="$DorLib2D$00000001" data-opening-id="HT-T005-F01-DR-005" data-opening-length-mm="800" stroke="#e2ca7a" fill="none"><line data-door-leaf="true" x1="7900" y1="5899.999999999999" x2="7100" y2="5899.999999999999" stroke-width="58" stroke-linecap="square"/><path data-door-swing="true" d="M 7900 5099.999999999999 A 800 800 0 0 0 7100 5899.999999999999" stroke-width="38"/></g><g data-opening-type="door" data-door-type="sliding" data-source-block="$DorLib2D$00000131" data-opening-id="HT-T005-F01-DR-006" data-opening-length-mm="1800" stroke="#e2ca7a" fill="none" stroke-width="58" stroke-linecap="square"><line data-sliding-panel="1" x1="9248" y1="12500" x2="9248" y2="11456"/><line data-sliding-panel="2" x1="9352" y1="11744" x2="9352" y2="10700"/></g><g data-opening-type="door" data-door-type="sliding" data-source-block="$DorLib2D$00000131" data-opening-id="HT-T005-F01-DR-007" data-opening-length-mm="1800" stroke="#e2ca7a" fill="none" stroke-width="58" stroke-linecap="square"><line data-sliding-panel="1" x1="13048.000000000015" y1="13284.64" x2="13048.000000000015" y2="12240.64"/><line data-sliding-panel="2" x1="13152.000000000015" y1="12528.64" x2="13152.000000000015" y2="11484.64"/></g><g data-opening-type="door" data-door-type="single-swing-inward" data-source-block="$DorLib2D$00000001" data-opening-id="HT-T005-F01-DR-008" data-opening-length-mm="800" stroke="#e2ca7a" fill="none"><line data-door-leaf="true" x1="11100.000000000015" y1="4199.999999999999" x2="10300.000000000015" y2="4199.999999999999" stroke-width="58" stroke-linecap="square"/><path data-door-swing="true" d="M 11100.000000000015 3399.999999999999 A 800 800 0 0 0 10300.000000000015 4199.999999999999" stroke-width="38"/></g><line data-opening-type="window" data-opening-id="HT-T005-F01-WN-001" data-opening-length-mm="1800" x1="8100" y1="1600" x2="6300" y2="1600" stroke="#9ebdca" stroke-width="160" stroke-linecap="square"/><line data-opening-type="window" data-opening-id="HT-T005-F01-WN-002" data-opening-length-mm="1800" x1="16100.000000000015" y1="2949.999999999999" x2="16100.000000000015" y2="4749.999999999999" stroke="#9ebdca" stroke-width="160" stroke-linecap="square"/><line data-opening-type="window" data-opening-id="HT-T005-F01-WN-003" data-opening-length-mm="1800" x1="5100" y1="8600" x2="5100" y2="6799.999999999999" stroke="#9ebdca" stroke-width="160" stroke-linecap="square"/><line data-opening-type="window" data-opening-id="HT-T005-F01-WN-004" data-opening-length-mm="1800" x1="5100" y1="2050" x2="5100" y2="3849.999999999998" stroke="#9ebdca" stroke-width="160" stroke-linecap="square"/><line data-opening-type="window" data-opening-id="HT-T005-F01-WN-005" data-opening-length-mm="1800" x1="15500.000000000015" y1="14100" x2="13700.000000000015" y2="14100" stroke="#9ebdca" stroke-width="160" stroke-linecap="square"/><line data-opening-type="window" data-opening-id="HT-T005-F01-WN-006" data-opening-length-mm="1800" x1="8050" y1="14100" x2="6250" y2="14100" stroke="#9ebdca" stroke-width="160" stroke-linecap="square"/><line data-opening-type="window" data-opening-id="HT-T005-F01-WN-007" data-opening-length-mm="1800" x1="12500.000000000015" y1="14100" x2="10700.000000000015" y2="14100" stroke="#9ebdca" stroke-width="160" stroke-linecap="square"/><line data-opening-type="window" data-opening-id="HT-T005-F01-WN-008" data-opening-length-mm="900" x1="5100" y1="4799.999999999999" x2="5100" y2="5699.999999999999" stroke="#9ebdca" stroke-width="160" stroke-linecap="square"/><line data-opening-type="window" data-opening-id="HT-T005-F01-WN-009" data-opening-length-mm="900" x1="10550.000000000015" y1="1600" x2="9650.000000000015" y2="1600" stroke="#9ebdca" stroke-width="160" stroke-linecap="square"/><line data-opening-type="window" data-opening-id="HT-T005-F01-WN-010" data-opening-length-mm="900" x1="5100" y1="10400" x2="5100" y2="9500" stroke="#9ebdca" stroke-width="160" stroke-linecap="square"/><line data-opening-type="window" data-opening-id="HT-T005-F01-WN-011" data-opening-length-mm="600" x1="16100.000000000015" y1="12050" x2="16100.000000000015" y2="12650" stroke="#9ebdca" stroke-width="160" stroke-linecap="square"/><line data-opening-type="window" data-opening-id="HT-T005-F01-WN-012" data-opening-length-mm="600" x1="16100.000000000015" y1="11250" x2="16100.000000000015" y2="11850" stroke="#9ebdca" stroke-width="160" stroke-linecap="square"/><line data-opening-type="window" data-opening-id="HT-T005-F01-WN-013" data-opening-length-mm="600" x1="16100.000000000015" y1="12850" x2="16100.000000000015" y2="13450" stroke="#9ebdca" stroke-width="160" stroke-linecap="square"/><line data-opening-type="window" data-opening-id="HT-T005-F01-WN-014" data-opening-length-mm="600" x1="10350.000000000015" y1="14100" x2="9750.000000000015" y2="14100" stroke="#9ebdca" stroke-width="160" stroke-linecap="square"/><line data-opening-type="window" data-opening-id="HT-T005-F01-WN-015" data-opening-length-mm="1800" x1="15600.000000000015" y1="8099.999999999999" x2="15600.000000000015" y2="9900" stroke="#9ebdca" stroke-width="160" stroke-linecap="square"/><g data-opening-type="door" data-door-type="single-swing-inward" data-source-block="$DorLib2D$00000001" data-opening-id="HT-T005-F01-DR-009" data-opening-length-mm="1200" stroke="#e2ca7a" fill="none"><line data-door-leaf="true" x1="15600.000000000015" y1="6299.999999999999" x2="14400.000000000015" y2="6299.999999999999" stroke-width="58" stroke-linecap="square"/><path data-door-swing="true" d="M 15600.000000000015 7499.999999999999 A 1200 1200 0 0 1 14400.000000000015 6299.999999999999" stroke-width="38"/></g><g data-opening-type="door" data-door-type="single-swing-inward" data-source-block="$DorLib2D$00000001" data-opening-id="HT-T005-F01-DR-010" data-opening-length-mm="1000" stroke="#e2ca7a" fill="none"><line data-door-leaf="true" x1="5100" y1="13300" x2="6100" y2="13300" stroke-width="58" stroke-linecap="square"/><path data-door-swing="true" d="M 5100 12300 A 1000 1000 0 0 1 6100 13300" stroke-width="38"/></g><line data-opening-type="window" data-opening-id="HT-T005-F01-WN-016" data-opening-length-mm="900" x1="5100" y1="11700" x2="5100" y2="10800" stroke="#9ebdca" stroke-width="160" stroke-linecap="square"/></svg>